%TF.GenerationSoftware,KiCad,Pcbnew,9.0.7*%
%TF.CreationDate,2026-04-28T18:36:11+02:00*%
%TF.ProjectId,Grup_D_Llums,47727570-5f44-45f4-9c6c-756d732e6b69,28/04/2026*%
%TF.SameCoordinates,Original*%
%TF.FileFunction,Legend,Top*%
%TF.FilePolarity,Positive*%
%FSLAX46Y46*%
G04 Gerber Fmt 4.6, Leading zero omitted, Abs format (unit mm)*
G04 Created by KiCad (PCBNEW 9.0.7) date 2026-04-28 18:36:11*
%MOMM*%
%LPD*%
G01*
G04 APERTURE LIST*
%ADD10C,0.150000*%
%ADD11C,0.120000*%
G04 APERTURE END LIST*
D10*
X100739580Y-109442857D02*
X100787200Y-109490476D01*
X100787200Y-109490476D02*
X100834819Y-109633333D01*
X100834819Y-109633333D02*
X100834819Y-109728571D01*
X100834819Y-109728571D02*
X100787200Y-109871428D01*
X100787200Y-109871428D02*
X100691961Y-109966666D01*
X100691961Y-109966666D02*
X100596723Y-110014285D01*
X100596723Y-110014285D02*
X100406247Y-110061904D01*
X100406247Y-110061904D02*
X100263390Y-110061904D01*
X100263390Y-110061904D02*
X100072914Y-110014285D01*
X100072914Y-110014285D02*
X99977676Y-109966666D01*
X99977676Y-109966666D02*
X99882438Y-109871428D01*
X99882438Y-109871428D02*
X99834819Y-109728571D01*
X99834819Y-109728571D02*
X99834819Y-109633333D01*
X99834819Y-109633333D02*
X99882438Y-109490476D01*
X99882438Y-109490476D02*
X99930057Y-109442857D01*
X100834819Y-108490476D02*
X100834819Y-109061904D01*
X100834819Y-108776190D02*
X99834819Y-108776190D01*
X99834819Y-108776190D02*
X99977676Y-108871428D01*
X99977676Y-108871428D02*
X100072914Y-108966666D01*
X100072914Y-108966666D02*
X100120533Y-109061904D01*
X100834819Y-107538095D02*
X100834819Y-108109523D01*
X100834819Y-107823809D02*
X99834819Y-107823809D01*
X99834819Y-107823809D02*
X99977676Y-107919047D01*
X99977676Y-107919047D02*
X100072914Y-108014285D01*
X100072914Y-108014285D02*
X100120533Y-108109523D01*
X138204819Y-115892857D02*
X137728628Y-116226190D01*
X138204819Y-116464285D02*
X137204819Y-116464285D01*
X137204819Y-116464285D02*
X137204819Y-116083333D01*
X137204819Y-116083333D02*
X137252438Y-115988095D01*
X137252438Y-115988095D02*
X137300057Y-115940476D01*
X137300057Y-115940476D02*
X137395295Y-115892857D01*
X137395295Y-115892857D02*
X137538152Y-115892857D01*
X137538152Y-115892857D02*
X137633390Y-115940476D01*
X137633390Y-115940476D02*
X137681009Y-115988095D01*
X137681009Y-115988095D02*
X137728628Y-116083333D01*
X137728628Y-116083333D02*
X137728628Y-116464285D01*
X138204819Y-114940476D02*
X138204819Y-115511904D01*
X138204819Y-115226190D02*
X137204819Y-115226190D01*
X137204819Y-115226190D02*
X137347676Y-115321428D01*
X137347676Y-115321428D02*
X137442914Y-115416666D01*
X137442914Y-115416666D02*
X137490533Y-115511904D01*
X137204819Y-114607142D02*
X137204819Y-113940476D01*
X137204819Y-113940476D02*
X138204819Y-114369047D01*
X123399580Y-87402857D02*
X123447200Y-87450476D01*
X123447200Y-87450476D02*
X123494819Y-87593333D01*
X123494819Y-87593333D02*
X123494819Y-87688571D01*
X123494819Y-87688571D02*
X123447200Y-87831428D01*
X123447200Y-87831428D02*
X123351961Y-87926666D01*
X123351961Y-87926666D02*
X123256723Y-87974285D01*
X123256723Y-87974285D02*
X123066247Y-88021904D01*
X123066247Y-88021904D02*
X122923390Y-88021904D01*
X122923390Y-88021904D02*
X122732914Y-87974285D01*
X122732914Y-87974285D02*
X122637676Y-87926666D01*
X122637676Y-87926666D02*
X122542438Y-87831428D01*
X122542438Y-87831428D02*
X122494819Y-87688571D01*
X122494819Y-87688571D02*
X122494819Y-87593333D01*
X122494819Y-87593333D02*
X122542438Y-87450476D01*
X122542438Y-87450476D02*
X122590057Y-87402857D01*
X123494819Y-86450476D02*
X123494819Y-87021904D01*
X123494819Y-86736190D02*
X122494819Y-86736190D01*
X122494819Y-86736190D02*
X122637676Y-86831428D01*
X122637676Y-86831428D02*
X122732914Y-86926666D01*
X122732914Y-86926666D02*
X122780533Y-87021904D01*
X122494819Y-86117142D02*
X122494819Y-85498095D01*
X122494819Y-85498095D02*
X122875771Y-85831428D01*
X122875771Y-85831428D02*
X122875771Y-85688571D01*
X122875771Y-85688571D02*
X122923390Y-85593333D01*
X122923390Y-85593333D02*
X122971009Y-85545714D01*
X122971009Y-85545714D02*
X123066247Y-85498095D01*
X123066247Y-85498095D02*
X123304342Y-85498095D01*
X123304342Y-85498095D02*
X123399580Y-85545714D01*
X123399580Y-85545714D02*
X123447200Y-85593333D01*
X123447200Y-85593333D02*
X123494819Y-85688571D01*
X123494819Y-85688571D02*
X123494819Y-85974285D01*
X123494819Y-85974285D02*
X123447200Y-86069523D01*
X123447200Y-86069523D02*
X123399580Y-86117142D01*
X184307319Y-121714523D02*
X185021604Y-121714523D01*
X185021604Y-121714523D02*
X185164461Y-121762142D01*
X185164461Y-121762142D02*
X185259700Y-121857380D01*
X185259700Y-121857380D02*
X185307319Y-122000237D01*
X185307319Y-122000237D02*
X185307319Y-122095475D01*
X185307319Y-120714523D02*
X185307319Y-121285951D01*
X185307319Y-121000237D02*
X184307319Y-121000237D01*
X184307319Y-121000237D02*
X184450176Y-121095475D01*
X184450176Y-121095475D02*
X184545414Y-121190713D01*
X184545414Y-121190713D02*
X184593033Y-121285951D01*
X184402557Y-120333570D02*
X184354938Y-120285951D01*
X184354938Y-120285951D02*
X184307319Y-120190713D01*
X184307319Y-120190713D02*
X184307319Y-119952618D01*
X184307319Y-119952618D02*
X184354938Y-119857380D01*
X184354938Y-119857380D02*
X184402557Y-119809761D01*
X184402557Y-119809761D02*
X184497795Y-119762142D01*
X184497795Y-119762142D02*
X184593033Y-119762142D01*
X184593033Y-119762142D02*
X184735890Y-119809761D01*
X184735890Y-119809761D02*
X185307319Y-120381189D01*
X185307319Y-120381189D02*
X185307319Y-119762142D01*
X154124819Y-75003333D02*
X154839104Y-75003333D01*
X154839104Y-75003333D02*
X154981961Y-75050952D01*
X154981961Y-75050952D02*
X155077200Y-75146190D01*
X155077200Y-75146190D02*
X155124819Y-75289047D01*
X155124819Y-75289047D02*
X155124819Y-75384285D01*
X154458152Y-74098571D02*
X155124819Y-74098571D01*
X154077200Y-74336666D02*
X154791485Y-74574761D01*
X154791485Y-74574761D02*
X154791485Y-73955714D01*
X123467261Y-125750057D02*
X123372023Y-125702438D01*
X123372023Y-125702438D02*
X123276785Y-125607200D01*
X123276785Y-125607200D02*
X123133928Y-125464342D01*
X123133928Y-125464342D02*
X123038690Y-125416723D01*
X123038690Y-125416723D02*
X122943452Y-125416723D01*
X122991071Y-125654819D02*
X122895833Y-125607200D01*
X122895833Y-125607200D02*
X122800595Y-125511961D01*
X122800595Y-125511961D02*
X122752976Y-125321485D01*
X122752976Y-125321485D02*
X122752976Y-124988152D01*
X122752976Y-124988152D02*
X122800595Y-124797676D01*
X122800595Y-124797676D02*
X122895833Y-124702438D01*
X122895833Y-124702438D02*
X122991071Y-124654819D01*
X122991071Y-124654819D02*
X123181547Y-124654819D01*
X123181547Y-124654819D02*
X123276785Y-124702438D01*
X123276785Y-124702438D02*
X123372023Y-124797676D01*
X123372023Y-124797676D02*
X123419642Y-124988152D01*
X123419642Y-124988152D02*
X123419642Y-125321485D01*
X123419642Y-125321485D02*
X123372023Y-125511961D01*
X123372023Y-125511961D02*
X123276785Y-125607200D01*
X123276785Y-125607200D02*
X123181547Y-125654819D01*
X123181547Y-125654819D02*
X122991071Y-125654819D01*
X124276785Y-124654819D02*
X124086309Y-124654819D01*
X124086309Y-124654819D02*
X123991071Y-124702438D01*
X123991071Y-124702438D02*
X123943452Y-124750057D01*
X123943452Y-124750057D02*
X123848214Y-124892914D01*
X123848214Y-124892914D02*
X123800595Y-125083390D01*
X123800595Y-125083390D02*
X123800595Y-125464342D01*
X123800595Y-125464342D02*
X123848214Y-125559580D01*
X123848214Y-125559580D02*
X123895833Y-125607200D01*
X123895833Y-125607200D02*
X123991071Y-125654819D01*
X123991071Y-125654819D02*
X124181547Y-125654819D01*
X124181547Y-125654819D02*
X124276785Y-125607200D01*
X124276785Y-125607200D02*
X124324404Y-125559580D01*
X124324404Y-125559580D02*
X124372023Y-125464342D01*
X124372023Y-125464342D02*
X124372023Y-125226247D01*
X124372023Y-125226247D02*
X124324404Y-125131009D01*
X124324404Y-125131009D02*
X124276785Y-125083390D01*
X124276785Y-125083390D02*
X124181547Y-125035771D01*
X124181547Y-125035771D02*
X123991071Y-125035771D01*
X123991071Y-125035771D02*
X123895833Y-125083390D01*
X123895833Y-125083390D02*
X123848214Y-125131009D01*
X123848214Y-125131009D02*
X123800595Y-125226247D01*
X128899580Y-86946666D02*
X128947200Y-86994285D01*
X128947200Y-86994285D02*
X128994819Y-87137142D01*
X128994819Y-87137142D02*
X128994819Y-87232380D01*
X128994819Y-87232380D02*
X128947200Y-87375237D01*
X128947200Y-87375237D02*
X128851961Y-87470475D01*
X128851961Y-87470475D02*
X128756723Y-87518094D01*
X128756723Y-87518094D02*
X128566247Y-87565713D01*
X128566247Y-87565713D02*
X128423390Y-87565713D01*
X128423390Y-87565713D02*
X128232914Y-87518094D01*
X128232914Y-87518094D02*
X128137676Y-87470475D01*
X128137676Y-87470475D02*
X128042438Y-87375237D01*
X128042438Y-87375237D02*
X127994819Y-87232380D01*
X127994819Y-87232380D02*
X127994819Y-87137142D01*
X127994819Y-87137142D02*
X128042438Y-86994285D01*
X128042438Y-86994285D02*
X128090057Y-86946666D01*
X128423390Y-86375237D02*
X128375771Y-86470475D01*
X128375771Y-86470475D02*
X128328152Y-86518094D01*
X128328152Y-86518094D02*
X128232914Y-86565713D01*
X128232914Y-86565713D02*
X128185295Y-86565713D01*
X128185295Y-86565713D02*
X128090057Y-86518094D01*
X128090057Y-86518094D02*
X128042438Y-86470475D01*
X128042438Y-86470475D02*
X127994819Y-86375237D01*
X127994819Y-86375237D02*
X127994819Y-86184761D01*
X127994819Y-86184761D02*
X128042438Y-86089523D01*
X128042438Y-86089523D02*
X128090057Y-86041904D01*
X128090057Y-86041904D02*
X128185295Y-85994285D01*
X128185295Y-85994285D02*
X128232914Y-85994285D01*
X128232914Y-85994285D02*
X128328152Y-86041904D01*
X128328152Y-86041904D02*
X128375771Y-86089523D01*
X128375771Y-86089523D02*
X128423390Y-86184761D01*
X128423390Y-86184761D02*
X128423390Y-86375237D01*
X128423390Y-86375237D02*
X128471009Y-86470475D01*
X128471009Y-86470475D02*
X128518628Y-86518094D01*
X128518628Y-86518094D02*
X128613866Y-86565713D01*
X128613866Y-86565713D02*
X128804342Y-86565713D01*
X128804342Y-86565713D02*
X128899580Y-86518094D01*
X128899580Y-86518094D02*
X128947200Y-86470475D01*
X128947200Y-86470475D02*
X128994819Y-86375237D01*
X128994819Y-86375237D02*
X128994819Y-86184761D01*
X128994819Y-86184761D02*
X128947200Y-86089523D01*
X128947200Y-86089523D02*
X128899580Y-86041904D01*
X128899580Y-86041904D02*
X128804342Y-85994285D01*
X128804342Y-85994285D02*
X128613866Y-85994285D01*
X128613866Y-85994285D02*
X128518628Y-86041904D01*
X128518628Y-86041904D02*
X128471009Y-86089523D01*
X128471009Y-86089523D02*
X128423390Y-86184761D01*
X121661666Y-129707319D02*
X121661666Y-130421604D01*
X121661666Y-130421604D02*
X121614047Y-130564461D01*
X121614047Y-130564461D02*
X121518809Y-130659700D01*
X121518809Y-130659700D02*
X121375952Y-130707319D01*
X121375952Y-130707319D02*
X121280714Y-130707319D01*
X122042619Y-129707319D02*
X122709285Y-129707319D01*
X122709285Y-129707319D02*
X122280714Y-130707319D01*
X90183333Y-121054819D02*
X89707143Y-121054819D01*
X89707143Y-121054819D02*
X89707143Y-120054819D01*
X91040476Y-121054819D02*
X90469048Y-121054819D01*
X90754762Y-121054819D02*
X90754762Y-120054819D01*
X90754762Y-120054819D02*
X90659524Y-120197676D01*
X90659524Y-120197676D02*
X90564286Y-120292914D01*
X90564286Y-120292914D02*
X90469048Y-120340533D01*
X106939580Y-89872857D02*
X106987200Y-89920476D01*
X106987200Y-89920476D02*
X107034819Y-90063333D01*
X107034819Y-90063333D02*
X107034819Y-90158571D01*
X107034819Y-90158571D02*
X106987200Y-90301428D01*
X106987200Y-90301428D02*
X106891961Y-90396666D01*
X106891961Y-90396666D02*
X106796723Y-90444285D01*
X106796723Y-90444285D02*
X106606247Y-90491904D01*
X106606247Y-90491904D02*
X106463390Y-90491904D01*
X106463390Y-90491904D02*
X106272914Y-90444285D01*
X106272914Y-90444285D02*
X106177676Y-90396666D01*
X106177676Y-90396666D02*
X106082438Y-90301428D01*
X106082438Y-90301428D02*
X106034819Y-90158571D01*
X106034819Y-90158571D02*
X106034819Y-90063333D01*
X106034819Y-90063333D02*
X106082438Y-89920476D01*
X106082438Y-89920476D02*
X106130057Y-89872857D01*
X107034819Y-88920476D02*
X107034819Y-89491904D01*
X107034819Y-89206190D02*
X106034819Y-89206190D01*
X106034819Y-89206190D02*
X106177676Y-89301428D01*
X106177676Y-89301428D02*
X106272914Y-89396666D01*
X106272914Y-89396666D02*
X106320533Y-89491904D01*
X106034819Y-88063333D02*
X106034819Y-88253809D01*
X106034819Y-88253809D02*
X106082438Y-88349047D01*
X106082438Y-88349047D02*
X106130057Y-88396666D01*
X106130057Y-88396666D02*
X106272914Y-88491904D01*
X106272914Y-88491904D02*
X106463390Y-88539523D01*
X106463390Y-88539523D02*
X106844342Y-88539523D01*
X106844342Y-88539523D02*
X106939580Y-88491904D01*
X106939580Y-88491904D02*
X106987200Y-88444285D01*
X106987200Y-88444285D02*
X107034819Y-88349047D01*
X107034819Y-88349047D02*
X107034819Y-88158571D01*
X107034819Y-88158571D02*
X106987200Y-88063333D01*
X106987200Y-88063333D02*
X106939580Y-88015714D01*
X106939580Y-88015714D02*
X106844342Y-87968095D01*
X106844342Y-87968095D02*
X106606247Y-87968095D01*
X106606247Y-87968095D02*
X106511009Y-88015714D01*
X106511009Y-88015714D02*
X106463390Y-88063333D01*
X106463390Y-88063333D02*
X106415771Y-88158571D01*
X106415771Y-88158571D02*
X106415771Y-88349047D01*
X106415771Y-88349047D02*
X106463390Y-88444285D01*
X106463390Y-88444285D02*
X106511009Y-88491904D01*
X106511009Y-88491904D02*
X106606247Y-88539523D01*
X190632200Y-59983332D02*
X190679819Y-59840475D01*
X190679819Y-59840475D02*
X190679819Y-59602380D01*
X190679819Y-59602380D02*
X190632200Y-59507142D01*
X190632200Y-59507142D02*
X190584580Y-59459523D01*
X190584580Y-59459523D02*
X190489342Y-59411904D01*
X190489342Y-59411904D02*
X190394104Y-59411904D01*
X190394104Y-59411904D02*
X190298866Y-59459523D01*
X190298866Y-59459523D02*
X190251247Y-59507142D01*
X190251247Y-59507142D02*
X190203628Y-59602380D01*
X190203628Y-59602380D02*
X190156009Y-59792856D01*
X190156009Y-59792856D02*
X190108390Y-59888094D01*
X190108390Y-59888094D02*
X190060771Y-59935713D01*
X190060771Y-59935713D02*
X189965533Y-59983332D01*
X189965533Y-59983332D02*
X189870295Y-59983332D01*
X189870295Y-59983332D02*
X189775057Y-59935713D01*
X189775057Y-59935713D02*
X189727438Y-59888094D01*
X189727438Y-59888094D02*
X189679819Y-59792856D01*
X189679819Y-59792856D02*
X189679819Y-59554761D01*
X189679819Y-59554761D02*
X189727438Y-59411904D01*
X189679819Y-59078570D02*
X190679819Y-58840475D01*
X190679819Y-58840475D02*
X189965533Y-58649999D01*
X189965533Y-58649999D02*
X190679819Y-58459523D01*
X190679819Y-58459523D02*
X189679819Y-58221428D01*
X189775057Y-57888094D02*
X189727438Y-57840475D01*
X189727438Y-57840475D02*
X189679819Y-57745237D01*
X189679819Y-57745237D02*
X189679819Y-57507142D01*
X189679819Y-57507142D02*
X189727438Y-57411904D01*
X189727438Y-57411904D02*
X189775057Y-57364285D01*
X189775057Y-57364285D02*
X189870295Y-57316666D01*
X189870295Y-57316666D02*
X189965533Y-57316666D01*
X189965533Y-57316666D02*
X190108390Y-57364285D01*
X190108390Y-57364285D02*
X190679819Y-57935713D01*
X190679819Y-57935713D02*
X190679819Y-57316666D01*
X73159580Y-108966666D02*
X73207200Y-109014285D01*
X73207200Y-109014285D02*
X73254819Y-109157142D01*
X73254819Y-109157142D02*
X73254819Y-109252380D01*
X73254819Y-109252380D02*
X73207200Y-109395237D01*
X73207200Y-109395237D02*
X73111961Y-109490475D01*
X73111961Y-109490475D02*
X73016723Y-109538094D01*
X73016723Y-109538094D02*
X72826247Y-109585713D01*
X72826247Y-109585713D02*
X72683390Y-109585713D01*
X72683390Y-109585713D02*
X72492914Y-109538094D01*
X72492914Y-109538094D02*
X72397676Y-109490475D01*
X72397676Y-109490475D02*
X72302438Y-109395237D01*
X72302438Y-109395237D02*
X72254819Y-109252380D01*
X72254819Y-109252380D02*
X72254819Y-109157142D01*
X72254819Y-109157142D02*
X72302438Y-109014285D01*
X72302438Y-109014285D02*
X72350057Y-108966666D01*
X73254819Y-108490475D02*
X73254819Y-108299999D01*
X73254819Y-108299999D02*
X73207200Y-108204761D01*
X73207200Y-108204761D02*
X73159580Y-108157142D01*
X73159580Y-108157142D02*
X73016723Y-108061904D01*
X73016723Y-108061904D02*
X72826247Y-108014285D01*
X72826247Y-108014285D02*
X72445295Y-108014285D01*
X72445295Y-108014285D02*
X72350057Y-108061904D01*
X72350057Y-108061904D02*
X72302438Y-108109523D01*
X72302438Y-108109523D02*
X72254819Y-108204761D01*
X72254819Y-108204761D02*
X72254819Y-108395237D01*
X72254819Y-108395237D02*
X72302438Y-108490475D01*
X72302438Y-108490475D02*
X72350057Y-108538094D01*
X72350057Y-108538094D02*
X72445295Y-108585713D01*
X72445295Y-108585713D02*
X72683390Y-108585713D01*
X72683390Y-108585713D02*
X72778628Y-108538094D01*
X72778628Y-108538094D02*
X72826247Y-108490475D01*
X72826247Y-108490475D02*
X72873866Y-108395237D01*
X72873866Y-108395237D02*
X72873866Y-108204761D01*
X72873866Y-108204761D02*
X72826247Y-108109523D01*
X72826247Y-108109523D02*
X72778628Y-108061904D01*
X72778628Y-108061904D02*
X72683390Y-108014285D01*
X153779580Y-75166666D02*
X153827200Y-75214285D01*
X153827200Y-75214285D02*
X153874819Y-75357142D01*
X153874819Y-75357142D02*
X153874819Y-75452380D01*
X153874819Y-75452380D02*
X153827200Y-75595237D01*
X153827200Y-75595237D02*
X153731961Y-75690475D01*
X153731961Y-75690475D02*
X153636723Y-75738094D01*
X153636723Y-75738094D02*
X153446247Y-75785713D01*
X153446247Y-75785713D02*
X153303390Y-75785713D01*
X153303390Y-75785713D02*
X153112914Y-75738094D01*
X153112914Y-75738094D02*
X153017676Y-75690475D01*
X153017676Y-75690475D02*
X152922438Y-75595237D01*
X152922438Y-75595237D02*
X152874819Y-75452380D01*
X152874819Y-75452380D02*
X152874819Y-75357142D01*
X152874819Y-75357142D02*
X152922438Y-75214285D01*
X152922438Y-75214285D02*
X152970057Y-75166666D01*
X152874819Y-74309523D02*
X152874819Y-74499999D01*
X152874819Y-74499999D02*
X152922438Y-74595237D01*
X152922438Y-74595237D02*
X152970057Y-74642856D01*
X152970057Y-74642856D02*
X153112914Y-74738094D01*
X153112914Y-74738094D02*
X153303390Y-74785713D01*
X153303390Y-74785713D02*
X153684342Y-74785713D01*
X153684342Y-74785713D02*
X153779580Y-74738094D01*
X153779580Y-74738094D02*
X153827200Y-74690475D01*
X153827200Y-74690475D02*
X153874819Y-74595237D01*
X153874819Y-74595237D02*
X153874819Y-74404761D01*
X153874819Y-74404761D02*
X153827200Y-74309523D01*
X153827200Y-74309523D02*
X153779580Y-74261904D01*
X153779580Y-74261904D02*
X153684342Y-74214285D01*
X153684342Y-74214285D02*
X153446247Y-74214285D01*
X153446247Y-74214285D02*
X153351009Y-74261904D01*
X153351009Y-74261904D02*
X153303390Y-74309523D01*
X153303390Y-74309523D02*
X153255771Y-74404761D01*
X153255771Y-74404761D02*
X153255771Y-74595237D01*
X153255771Y-74595237D02*
X153303390Y-74690475D01*
X153303390Y-74690475D02*
X153351009Y-74738094D01*
X153351009Y-74738094D02*
X153446247Y-74785713D01*
X180672557Y-119360238D02*
X180624938Y-119455476D01*
X180624938Y-119455476D02*
X180529700Y-119550714D01*
X180529700Y-119550714D02*
X180386842Y-119693571D01*
X180386842Y-119693571D02*
X180339223Y-119788809D01*
X180339223Y-119788809D02*
X180339223Y-119884047D01*
X180577319Y-119836428D02*
X180529700Y-119931666D01*
X180529700Y-119931666D02*
X180434461Y-120026904D01*
X180434461Y-120026904D02*
X180243985Y-120074523D01*
X180243985Y-120074523D02*
X179910652Y-120074523D01*
X179910652Y-120074523D02*
X179720176Y-120026904D01*
X179720176Y-120026904D02*
X179624938Y-119931666D01*
X179624938Y-119931666D02*
X179577319Y-119836428D01*
X179577319Y-119836428D02*
X179577319Y-119645952D01*
X179577319Y-119645952D02*
X179624938Y-119550714D01*
X179624938Y-119550714D02*
X179720176Y-119455476D01*
X179720176Y-119455476D02*
X179910652Y-119407857D01*
X179910652Y-119407857D02*
X180243985Y-119407857D01*
X180243985Y-119407857D02*
X180434461Y-119455476D01*
X180434461Y-119455476D02*
X180529700Y-119550714D01*
X180529700Y-119550714D02*
X180577319Y-119645952D01*
X180577319Y-119645952D02*
X180577319Y-119836428D01*
X179910652Y-118550714D02*
X180577319Y-118550714D01*
X179529700Y-118788809D02*
X180243985Y-119026904D01*
X180243985Y-119026904D02*
X180243985Y-118407857D01*
X190607200Y-70083332D02*
X190654819Y-69940475D01*
X190654819Y-69940475D02*
X190654819Y-69702380D01*
X190654819Y-69702380D02*
X190607200Y-69607142D01*
X190607200Y-69607142D02*
X190559580Y-69559523D01*
X190559580Y-69559523D02*
X190464342Y-69511904D01*
X190464342Y-69511904D02*
X190369104Y-69511904D01*
X190369104Y-69511904D02*
X190273866Y-69559523D01*
X190273866Y-69559523D02*
X190226247Y-69607142D01*
X190226247Y-69607142D02*
X190178628Y-69702380D01*
X190178628Y-69702380D02*
X190131009Y-69892856D01*
X190131009Y-69892856D02*
X190083390Y-69988094D01*
X190083390Y-69988094D02*
X190035771Y-70035713D01*
X190035771Y-70035713D02*
X189940533Y-70083332D01*
X189940533Y-70083332D02*
X189845295Y-70083332D01*
X189845295Y-70083332D02*
X189750057Y-70035713D01*
X189750057Y-70035713D02*
X189702438Y-69988094D01*
X189702438Y-69988094D02*
X189654819Y-69892856D01*
X189654819Y-69892856D02*
X189654819Y-69654761D01*
X189654819Y-69654761D02*
X189702438Y-69511904D01*
X189654819Y-69178570D02*
X190654819Y-68940475D01*
X190654819Y-68940475D02*
X189940533Y-68749999D01*
X189940533Y-68749999D02*
X190654819Y-68559523D01*
X190654819Y-68559523D02*
X189654819Y-68321428D01*
X189654819Y-67511904D02*
X189654819Y-67702380D01*
X189654819Y-67702380D02*
X189702438Y-67797618D01*
X189702438Y-67797618D02*
X189750057Y-67845237D01*
X189750057Y-67845237D02*
X189892914Y-67940475D01*
X189892914Y-67940475D02*
X190083390Y-67988094D01*
X190083390Y-67988094D02*
X190464342Y-67988094D01*
X190464342Y-67988094D02*
X190559580Y-67940475D01*
X190559580Y-67940475D02*
X190607200Y-67892856D01*
X190607200Y-67892856D02*
X190654819Y-67797618D01*
X190654819Y-67797618D02*
X190654819Y-67607142D01*
X190654819Y-67607142D02*
X190607200Y-67511904D01*
X190607200Y-67511904D02*
X190559580Y-67464285D01*
X190559580Y-67464285D02*
X190464342Y-67416666D01*
X190464342Y-67416666D02*
X190226247Y-67416666D01*
X190226247Y-67416666D02*
X190131009Y-67464285D01*
X190131009Y-67464285D02*
X190083390Y-67511904D01*
X190083390Y-67511904D02*
X190035771Y-67607142D01*
X190035771Y-67607142D02*
X190035771Y-67797618D01*
X190035771Y-67797618D02*
X190083390Y-67892856D01*
X190083390Y-67892856D02*
X190131009Y-67940475D01*
X190131009Y-67940475D02*
X190226247Y-67988094D01*
X120923809Y-65398628D02*
X120923809Y-65874819D01*
X120590476Y-64874819D02*
X120923809Y-65398628D01*
X120923809Y-65398628D02*
X121257142Y-64874819D01*
X121542857Y-64970057D02*
X121590476Y-64922438D01*
X121590476Y-64922438D02*
X121685714Y-64874819D01*
X121685714Y-64874819D02*
X121923809Y-64874819D01*
X121923809Y-64874819D02*
X122019047Y-64922438D01*
X122019047Y-64922438D02*
X122066666Y-64970057D01*
X122066666Y-64970057D02*
X122114285Y-65065295D01*
X122114285Y-65065295D02*
X122114285Y-65160533D01*
X122114285Y-65160533D02*
X122066666Y-65303390D01*
X122066666Y-65303390D02*
X121495238Y-65874819D01*
X121495238Y-65874819D02*
X122114285Y-65874819D01*
X132604819Y-115892857D02*
X132128628Y-116226190D01*
X132604819Y-116464285D02*
X131604819Y-116464285D01*
X131604819Y-116464285D02*
X131604819Y-116083333D01*
X131604819Y-116083333D02*
X131652438Y-115988095D01*
X131652438Y-115988095D02*
X131700057Y-115940476D01*
X131700057Y-115940476D02*
X131795295Y-115892857D01*
X131795295Y-115892857D02*
X131938152Y-115892857D01*
X131938152Y-115892857D02*
X132033390Y-115940476D01*
X132033390Y-115940476D02*
X132081009Y-115988095D01*
X132081009Y-115988095D02*
X132128628Y-116083333D01*
X132128628Y-116083333D02*
X132128628Y-116464285D01*
X132604819Y-114940476D02*
X132604819Y-115511904D01*
X132604819Y-115226190D02*
X131604819Y-115226190D01*
X131604819Y-115226190D02*
X131747676Y-115321428D01*
X131747676Y-115321428D02*
X131842914Y-115416666D01*
X131842914Y-115416666D02*
X131890533Y-115511904D01*
X132604819Y-114464285D02*
X132604819Y-114273809D01*
X132604819Y-114273809D02*
X132557200Y-114178571D01*
X132557200Y-114178571D02*
X132509580Y-114130952D01*
X132509580Y-114130952D02*
X132366723Y-114035714D01*
X132366723Y-114035714D02*
X132176247Y-113988095D01*
X132176247Y-113988095D02*
X131795295Y-113988095D01*
X131795295Y-113988095D02*
X131700057Y-114035714D01*
X131700057Y-114035714D02*
X131652438Y-114083333D01*
X131652438Y-114083333D02*
X131604819Y-114178571D01*
X131604819Y-114178571D02*
X131604819Y-114369047D01*
X131604819Y-114369047D02*
X131652438Y-114464285D01*
X131652438Y-114464285D02*
X131700057Y-114511904D01*
X131700057Y-114511904D02*
X131795295Y-114559523D01*
X131795295Y-114559523D02*
X132033390Y-114559523D01*
X132033390Y-114559523D02*
X132128628Y-114511904D01*
X132128628Y-114511904D02*
X132176247Y-114464285D01*
X132176247Y-114464285D02*
X132223866Y-114369047D01*
X132223866Y-114369047D02*
X132223866Y-114178571D01*
X132223866Y-114178571D02*
X132176247Y-114083333D01*
X132176247Y-114083333D02*
X132128628Y-114035714D01*
X132128628Y-114035714D02*
X132033390Y-113988095D01*
X184357319Y-108864523D02*
X185071604Y-108864523D01*
X185071604Y-108864523D02*
X185214461Y-108912142D01*
X185214461Y-108912142D02*
X185309700Y-109007380D01*
X185309700Y-109007380D02*
X185357319Y-109150237D01*
X185357319Y-109150237D02*
X185357319Y-109245475D01*
X185357319Y-107864523D02*
X185357319Y-108435951D01*
X185357319Y-108150237D02*
X184357319Y-108150237D01*
X184357319Y-108150237D02*
X184500176Y-108245475D01*
X184500176Y-108245475D02*
X184595414Y-108340713D01*
X184595414Y-108340713D02*
X184643033Y-108435951D01*
X185357319Y-106912142D02*
X185357319Y-107483570D01*
X185357319Y-107197856D02*
X184357319Y-107197856D01*
X184357319Y-107197856D02*
X184500176Y-107293094D01*
X184500176Y-107293094D02*
X184595414Y-107388332D01*
X184595414Y-107388332D02*
X184643033Y-107483570D01*
X68710819Y-91404094D02*
X67710819Y-91404094D01*
X67710819Y-91404094D02*
X67710819Y-91165999D01*
X67710819Y-91165999D02*
X67758438Y-91023142D01*
X67758438Y-91023142D02*
X67853676Y-90927904D01*
X67853676Y-90927904D02*
X67948914Y-90880285D01*
X67948914Y-90880285D02*
X68139390Y-90832666D01*
X68139390Y-90832666D02*
X68282247Y-90832666D01*
X68282247Y-90832666D02*
X68472723Y-90880285D01*
X68472723Y-90880285D02*
X68567961Y-90927904D01*
X68567961Y-90927904D02*
X68663200Y-91023142D01*
X68663200Y-91023142D02*
X68710819Y-91165999D01*
X68710819Y-91165999D02*
X68710819Y-91404094D01*
X67710819Y-89927904D02*
X67710819Y-90404094D01*
X67710819Y-90404094D02*
X68187009Y-90451713D01*
X68187009Y-90451713D02*
X68139390Y-90404094D01*
X68139390Y-90404094D02*
X68091771Y-90308856D01*
X68091771Y-90308856D02*
X68091771Y-90070761D01*
X68091771Y-90070761D02*
X68139390Y-89975523D01*
X68139390Y-89975523D02*
X68187009Y-89927904D01*
X68187009Y-89927904D02*
X68282247Y-89880285D01*
X68282247Y-89880285D02*
X68520342Y-89880285D01*
X68520342Y-89880285D02*
X68615580Y-89927904D01*
X68615580Y-89927904D02*
X68663200Y-89975523D01*
X68663200Y-89975523D02*
X68710819Y-90070761D01*
X68710819Y-90070761D02*
X68710819Y-90308856D01*
X68710819Y-90308856D02*
X68663200Y-90404094D01*
X68663200Y-90404094D02*
X68615580Y-90451713D01*
X69830819Y-98547904D02*
X68830819Y-98547904D01*
X69830819Y-97976476D02*
X69259390Y-98405047D01*
X68830819Y-97976476D02*
X69402247Y-98547904D01*
X140716667Y-100057200D02*
X140859524Y-100104819D01*
X140859524Y-100104819D02*
X141097619Y-100104819D01*
X141097619Y-100104819D02*
X141192857Y-100057200D01*
X141192857Y-100057200D02*
X141240476Y-100009580D01*
X141240476Y-100009580D02*
X141288095Y-99914342D01*
X141288095Y-99914342D02*
X141288095Y-99819104D01*
X141288095Y-99819104D02*
X141240476Y-99723866D01*
X141240476Y-99723866D02*
X141192857Y-99676247D01*
X141192857Y-99676247D02*
X141097619Y-99628628D01*
X141097619Y-99628628D02*
X140907143Y-99581009D01*
X140907143Y-99581009D02*
X140811905Y-99533390D01*
X140811905Y-99533390D02*
X140764286Y-99485771D01*
X140764286Y-99485771D02*
X140716667Y-99390533D01*
X140716667Y-99390533D02*
X140716667Y-99295295D01*
X140716667Y-99295295D02*
X140764286Y-99200057D01*
X140764286Y-99200057D02*
X140811905Y-99152438D01*
X140811905Y-99152438D02*
X140907143Y-99104819D01*
X140907143Y-99104819D02*
X141145238Y-99104819D01*
X141145238Y-99104819D02*
X141288095Y-99152438D01*
X141621429Y-99104819D02*
X141859524Y-100104819D01*
X141859524Y-100104819D02*
X142050000Y-99390533D01*
X142050000Y-99390533D02*
X142240476Y-100104819D01*
X142240476Y-100104819D02*
X142478572Y-99104819D01*
X142764286Y-99104819D02*
X143430952Y-99104819D01*
X143430952Y-99104819D02*
X143002381Y-100104819D01*
X160150476Y-129734819D02*
X160150476Y-130449104D01*
X160150476Y-130449104D02*
X160102857Y-130591961D01*
X160102857Y-130591961D02*
X160007619Y-130687200D01*
X160007619Y-130687200D02*
X159864762Y-130734819D01*
X159864762Y-130734819D02*
X159769524Y-130734819D01*
X161150476Y-130734819D02*
X160579048Y-130734819D01*
X160864762Y-130734819D02*
X160864762Y-129734819D01*
X160864762Y-129734819D02*
X160769524Y-129877676D01*
X160769524Y-129877676D02*
X160674286Y-129972914D01*
X160674286Y-129972914D02*
X160579048Y-130020533D01*
X161769524Y-129734819D02*
X161864762Y-129734819D01*
X161864762Y-129734819D02*
X161960000Y-129782438D01*
X161960000Y-129782438D02*
X162007619Y-129830057D01*
X162007619Y-129830057D02*
X162055238Y-129925295D01*
X162055238Y-129925295D02*
X162102857Y-130115771D01*
X162102857Y-130115771D02*
X162102857Y-130353866D01*
X162102857Y-130353866D02*
X162055238Y-130544342D01*
X162055238Y-130544342D02*
X162007619Y-130639580D01*
X162007619Y-130639580D02*
X161960000Y-130687200D01*
X161960000Y-130687200D02*
X161864762Y-130734819D01*
X161864762Y-130734819D02*
X161769524Y-130734819D01*
X161769524Y-130734819D02*
X161674286Y-130687200D01*
X161674286Y-130687200D02*
X161626667Y-130639580D01*
X161626667Y-130639580D02*
X161579048Y-130544342D01*
X161579048Y-130544342D02*
X161531429Y-130353866D01*
X161531429Y-130353866D02*
X161531429Y-130115771D01*
X161531429Y-130115771D02*
X161579048Y-129925295D01*
X161579048Y-129925295D02*
X161626667Y-129830057D01*
X161626667Y-129830057D02*
X161674286Y-129782438D01*
X161674286Y-129782438D02*
X161769524Y-129734819D01*
X73161905Y-122474819D02*
X73161905Y-121474819D01*
X73161905Y-121474819D02*
X73400000Y-121474819D01*
X73400000Y-121474819D02*
X73542857Y-121522438D01*
X73542857Y-121522438D02*
X73638095Y-121617676D01*
X73638095Y-121617676D02*
X73685714Y-121712914D01*
X73685714Y-121712914D02*
X73733333Y-121903390D01*
X73733333Y-121903390D02*
X73733333Y-122046247D01*
X73733333Y-122046247D02*
X73685714Y-122236723D01*
X73685714Y-122236723D02*
X73638095Y-122331961D01*
X73638095Y-122331961D02*
X73542857Y-122427200D01*
X73542857Y-122427200D02*
X73400000Y-122474819D01*
X73400000Y-122474819D02*
X73161905Y-122474819D01*
X74066667Y-121474819D02*
X74685714Y-121474819D01*
X74685714Y-121474819D02*
X74352381Y-121855771D01*
X74352381Y-121855771D02*
X74495238Y-121855771D01*
X74495238Y-121855771D02*
X74590476Y-121903390D01*
X74590476Y-121903390D02*
X74638095Y-121951009D01*
X74638095Y-121951009D02*
X74685714Y-122046247D01*
X74685714Y-122046247D02*
X74685714Y-122284342D01*
X74685714Y-122284342D02*
X74638095Y-122379580D01*
X74638095Y-122379580D02*
X74590476Y-122427200D01*
X74590476Y-122427200D02*
X74495238Y-122474819D01*
X74495238Y-122474819D02*
X74209524Y-122474819D01*
X74209524Y-122474819D02*
X74114286Y-122427200D01*
X74114286Y-122427200D02*
X74066667Y-122379580D01*
X81258095Y-121354819D02*
X81258095Y-120354819D01*
X81829523Y-121354819D02*
X81400952Y-120783390D01*
X81829523Y-120354819D02*
X81258095Y-120926247D01*
X124147142Y-64779580D02*
X124099523Y-64827200D01*
X124099523Y-64827200D02*
X123956666Y-64874819D01*
X123956666Y-64874819D02*
X123861428Y-64874819D01*
X123861428Y-64874819D02*
X123718571Y-64827200D01*
X123718571Y-64827200D02*
X123623333Y-64731961D01*
X123623333Y-64731961D02*
X123575714Y-64636723D01*
X123575714Y-64636723D02*
X123528095Y-64446247D01*
X123528095Y-64446247D02*
X123528095Y-64303390D01*
X123528095Y-64303390D02*
X123575714Y-64112914D01*
X123575714Y-64112914D02*
X123623333Y-64017676D01*
X123623333Y-64017676D02*
X123718571Y-63922438D01*
X123718571Y-63922438D02*
X123861428Y-63874819D01*
X123861428Y-63874819D02*
X123956666Y-63874819D01*
X123956666Y-63874819D02*
X124099523Y-63922438D01*
X124099523Y-63922438D02*
X124147142Y-63970057D01*
X125099523Y-64874819D02*
X124528095Y-64874819D01*
X124813809Y-64874819D02*
X124813809Y-63874819D01*
X124813809Y-63874819D02*
X124718571Y-64017676D01*
X124718571Y-64017676D02*
X124623333Y-64112914D01*
X124623333Y-64112914D02*
X124528095Y-64160533D01*
X125956666Y-64208152D02*
X125956666Y-64874819D01*
X125718571Y-63827200D02*
X125480476Y-64541485D01*
X125480476Y-64541485D02*
X126099523Y-64541485D01*
X135939580Y-55966666D02*
X135987200Y-56014285D01*
X135987200Y-56014285D02*
X136034819Y-56157142D01*
X136034819Y-56157142D02*
X136034819Y-56252380D01*
X136034819Y-56252380D02*
X135987200Y-56395237D01*
X135987200Y-56395237D02*
X135891961Y-56490475D01*
X135891961Y-56490475D02*
X135796723Y-56538094D01*
X135796723Y-56538094D02*
X135606247Y-56585713D01*
X135606247Y-56585713D02*
X135463390Y-56585713D01*
X135463390Y-56585713D02*
X135272914Y-56538094D01*
X135272914Y-56538094D02*
X135177676Y-56490475D01*
X135177676Y-56490475D02*
X135082438Y-56395237D01*
X135082438Y-56395237D02*
X135034819Y-56252380D01*
X135034819Y-56252380D02*
X135034819Y-56157142D01*
X135034819Y-56157142D02*
X135082438Y-56014285D01*
X135082438Y-56014285D02*
X135130057Y-55966666D01*
X135034819Y-55633332D02*
X135034819Y-55014285D01*
X135034819Y-55014285D02*
X135415771Y-55347618D01*
X135415771Y-55347618D02*
X135415771Y-55204761D01*
X135415771Y-55204761D02*
X135463390Y-55109523D01*
X135463390Y-55109523D02*
X135511009Y-55061904D01*
X135511009Y-55061904D02*
X135606247Y-55014285D01*
X135606247Y-55014285D02*
X135844342Y-55014285D01*
X135844342Y-55014285D02*
X135939580Y-55061904D01*
X135939580Y-55061904D02*
X135987200Y-55109523D01*
X135987200Y-55109523D02*
X136034819Y-55204761D01*
X136034819Y-55204761D02*
X136034819Y-55490475D01*
X136034819Y-55490475D02*
X135987200Y-55585713D01*
X135987200Y-55585713D02*
X135939580Y-55633332D01*
X173035476Y-129757319D02*
X173035476Y-130471604D01*
X173035476Y-130471604D02*
X172987857Y-130614461D01*
X172987857Y-130614461D02*
X172892619Y-130709700D01*
X172892619Y-130709700D02*
X172749762Y-130757319D01*
X172749762Y-130757319D02*
X172654524Y-130757319D01*
X174035476Y-130757319D02*
X173464048Y-130757319D01*
X173749762Y-130757319D02*
X173749762Y-129757319D01*
X173749762Y-129757319D02*
X173654524Y-129900176D01*
X173654524Y-129900176D02*
X173559286Y-129995414D01*
X173559286Y-129995414D02*
X173464048Y-130043033D01*
X174368810Y-129757319D02*
X174987857Y-129757319D01*
X174987857Y-129757319D02*
X174654524Y-130138271D01*
X174654524Y-130138271D02*
X174797381Y-130138271D01*
X174797381Y-130138271D02*
X174892619Y-130185890D01*
X174892619Y-130185890D02*
X174940238Y-130233509D01*
X174940238Y-130233509D02*
X174987857Y-130328747D01*
X174987857Y-130328747D02*
X174987857Y-130566842D01*
X174987857Y-130566842D02*
X174940238Y-130662080D01*
X174940238Y-130662080D02*
X174892619Y-130709700D01*
X174892619Y-130709700D02*
X174797381Y-130757319D01*
X174797381Y-130757319D02*
X174511667Y-130757319D01*
X174511667Y-130757319D02*
X174416429Y-130709700D01*
X174416429Y-130709700D02*
X174368810Y-130662080D01*
X134511666Y-129684819D02*
X134511666Y-130399104D01*
X134511666Y-130399104D02*
X134464047Y-130541961D01*
X134464047Y-130541961D02*
X134368809Y-130637200D01*
X134368809Y-130637200D02*
X134225952Y-130684819D01*
X134225952Y-130684819D02*
X134130714Y-130684819D01*
X135130714Y-130113390D02*
X135035476Y-130065771D01*
X135035476Y-130065771D02*
X134987857Y-130018152D01*
X134987857Y-130018152D02*
X134940238Y-129922914D01*
X134940238Y-129922914D02*
X134940238Y-129875295D01*
X134940238Y-129875295D02*
X134987857Y-129780057D01*
X134987857Y-129780057D02*
X135035476Y-129732438D01*
X135035476Y-129732438D02*
X135130714Y-129684819D01*
X135130714Y-129684819D02*
X135321190Y-129684819D01*
X135321190Y-129684819D02*
X135416428Y-129732438D01*
X135416428Y-129732438D02*
X135464047Y-129780057D01*
X135464047Y-129780057D02*
X135511666Y-129875295D01*
X135511666Y-129875295D02*
X135511666Y-129922914D01*
X135511666Y-129922914D02*
X135464047Y-130018152D01*
X135464047Y-130018152D02*
X135416428Y-130065771D01*
X135416428Y-130065771D02*
X135321190Y-130113390D01*
X135321190Y-130113390D02*
X135130714Y-130113390D01*
X135130714Y-130113390D02*
X135035476Y-130161009D01*
X135035476Y-130161009D02*
X134987857Y-130208628D01*
X134987857Y-130208628D02*
X134940238Y-130303866D01*
X134940238Y-130303866D02*
X134940238Y-130494342D01*
X134940238Y-130494342D02*
X134987857Y-130589580D01*
X134987857Y-130589580D02*
X135035476Y-130637200D01*
X135035476Y-130637200D02*
X135130714Y-130684819D01*
X135130714Y-130684819D02*
X135321190Y-130684819D01*
X135321190Y-130684819D02*
X135416428Y-130637200D01*
X135416428Y-130637200D02*
X135464047Y-130589580D01*
X135464047Y-130589580D02*
X135511666Y-130494342D01*
X135511666Y-130494342D02*
X135511666Y-130303866D01*
X135511666Y-130303866D02*
X135464047Y-130208628D01*
X135464047Y-130208628D02*
X135416428Y-130161009D01*
X135416428Y-130161009D02*
X135321190Y-130113390D01*
X93565819Y-89989094D02*
X92565819Y-89989094D01*
X92565819Y-89989094D02*
X92565819Y-89750999D01*
X92565819Y-89750999D02*
X92613438Y-89608142D01*
X92613438Y-89608142D02*
X92708676Y-89512904D01*
X92708676Y-89512904D02*
X92803914Y-89465285D01*
X92803914Y-89465285D02*
X92994390Y-89417666D01*
X92994390Y-89417666D02*
X93137247Y-89417666D01*
X93137247Y-89417666D02*
X93327723Y-89465285D01*
X93327723Y-89465285D02*
X93422961Y-89512904D01*
X93422961Y-89512904D02*
X93518200Y-89608142D01*
X93518200Y-89608142D02*
X93565819Y-89750999D01*
X93565819Y-89750999D02*
X93565819Y-89989094D01*
X92565819Y-89084332D02*
X92565819Y-88417666D01*
X92565819Y-88417666D02*
X93565819Y-88846237D01*
X94685819Y-97132904D02*
X93685819Y-97132904D01*
X94685819Y-96561476D02*
X94114390Y-96990047D01*
X93685819Y-96561476D02*
X94257247Y-97132904D01*
X86810819Y-90380285D02*
X85810819Y-90380285D01*
X85810819Y-90380285D02*
X85810819Y-90142190D01*
X85810819Y-90142190D02*
X85858438Y-89999333D01*
X85858438Y-89999333D02*
X85953676Y-89904095D01*
X85953676Y-89904095D02*
X86048914Y-89856476D01*
X86048914Y-89856476D02*
X86239390Y-89808857D01*
X86239390Y-89808857D02*
X86382247Y-89808857D01*
X86382247Y-89808857D02*
X86572723Y-89856476D01*
X86572723Y-89856476D02*
X86667961Y-89904095D01*
X86667961Y-89904095D02*
X86763200Y-89999333D01*
X86763200Y-89999333D02*
X86810819Y-90142190D01*
X86810819Y-90142190D02*
X86810819Y-90380285D01*
X86810819Y-88856476D02*
X86810819Y-89427904D01*
X86810819Y-89142190D02*
X85810819Y-89142190D01*
X85810819Y-89142190D02*
X85953676Y-89237428D01*
X85953676Y-89237428D02*
X86048914Y-89332666D01*
X86048914Y-89332666D02*
X86096533Y-89427904D01*
X86810819Y-87904095D02*
X86810819Y-88475523D01*
X86810819Y-88189809D02*
X85810819Y-88189809D01*
X85810819Y-88189809D02*
X85953676Y-88285047D01*
X85953676Y-88285047D02*
X86048914Y-88380285D01*
X86048914Y-88380285D02*
X86096533Y-88475523D01*
X87930819Y-97047904D02*
X86930819Y-97047904D01*
X87930819Y-96476476D02*
X87359390Y-96905047D01*
X86930819Y-96476476D02*
X87502247Y-97047904D01*
X107028095Y-102754819D02*
X107028095Y-103564342D01*
X107028095Y-103564342D02*
X107075714Y-103659580D01*
X107075714Y-103659580D02*
X107123333Y-103707200D01*
X107123333Y-103707200D02*
X107218571Y-103754819D01*
X107218571Y-103754819D02*
X107409047Y-103754819D01*
X107409047Y-103754819D02*
X107504285Y-103707200D01*
X107504285Y-103707200D02*
X107551904Y-103659580D01*
X107551904Y-103659580D02*
X107599523Y-103564342D01*
X107599523Y-103564342D02*
X107599523Y-102754819D01*
X107980476Y-102754819D02*
X108647142Y-102754819D01*
X108647142Y-102754819D02*
X108218571Y-103754819D01*
X171083333Y-120354819D02*
X170750000Y-119878628D01*
X170511905Y-120354819D02*
X170511905Y-119354819D01*
X170511905Y-119354819D02*
X170892857Y-119354819D01*
X170892857Y-119354819D02*
X170988095Y-119402438D01*
X170988095Y-119402438D02*
X171035714Y-119450057D01*
X171035714Y-119450057D02*
X171083333Y-119545295D01*
X171083333Y-119545295D02*
X171083333Y-119688152D01*
X171083333Y-119688152D02*
X171035714Y-119783390D01*
X171035714Y-119783390D02*
X170988095Y-119831009D01*
X170988095Y-119831009D02*
X170892857Y-119878628D01*
X170892857Y-119878628D02*
X170511905Y-119878628D01*
X171654762Y-119783390D02*
X171559524Y-119735771D01*
X171559524Y-119735771D02*
X171511905Y-119688152D01*
X171511905Y-119688152D02*
X171464286Y-119592914D01*
X171464286Y-119592914D02*
X171464286Y-119545295D01*
X171464286Y-119545295D02*
X171511905Y-119450057D01*
X171511905Y-119450057D02*
X171559524Y-119402438D01*
X171559524Y-119402438D02*
X171654762Y-119354819D01*
X171654762Y-119354819D02*
X171845238Y-119354819D01*
X171845238Y-119354819D02*
X171940476Y-119402438D01*
X171940476Y-119402438D02*
X171988095Y-119450057D01*
X171988095Y-119450057D02*
X172035714Y-119545295D01*
X172035714Y-119545295D02*
X172035714Y-119592914D01*
X172035714Y-119592914D02*
X171988095Y-119688152D01*
X171988095Y-119688152D02*
X171940476Y-119735771D01*
X171940476Y-119735771D02*
X171845238Y-119783390D01*
X171845238Y-119783390D02*
X171654762Y-119783390D01*
X171654762Y-119783390D02*
X171559524Y-119831009D01*
X171559524Y-119831009D02*
X171511905Y-119878628D01*
X171511905Y-119878628D02*
X171464286Y-119973866D01*
X171464286Y-119973866D02*
X171464286Y-120164342D01*
X171464286Y-120164342D02*
X171511905Y-120259580D01*
X171511905Y-120259580D02*
X171559524Y-120307200D01*
X171559524Y-120307200D02*
X171654762Y-120354819D01*
X171654762Y-120354819D02*
X171845238Y-120354819D01*
X171845238Y-120354819D02*
X171940476Y-120307200D01*
X171940476Y-120307200D02*
X171988095Y-120259580D01*
X171988095Y-120259580D02*
X172035714Y-120164342D01*
X172035714Y-120164342D02*
X172035714Y-119973866D01*
X172035714Y-119973866D02*
X171988095Y-119878628D01*
X171988095Y-119878628D02*
X171940476Y-119831009D01*
X171940476Y-119831009D02*
X171845238Y-119783390D01*
X48866666Y-43504819D02*
X48533333Y-43028628D01*
X48295238Y-43504819D02*
X48295238Y-42504819D01*
X48295238Y-42504819D02*
X48676190Y-42504819D01*
X48676190Y-42504819D02*
X48771428Y-42552438D01*
X48771428Y-42552438D02*
X48819047Y-42600057D01*
X48819047Y-42600057D02*
X48866666Y-42695295D01*
X48866666Y-42695295D02*
X48866666Y-42838152D01*
X48866666Y-42838152D02*
X48819047Y-42933390D01*
X48819047Y-42933390D02*
X48771428Y-42981009D01*
X48771428Y-42981009D02*
X48676190Y-43028628D01*
X48676190Y-43028628D02*
X48295238Y-43028628D01*
X49295238Y-42981009D02*
X49628571Y-42981009D01*
X49771428Y-43504819D02*
X49295238Y-43504819D01*
X49295238Y-43504819D02*
X49295238Y-42504819D01*
X49295238Y-42504819D02*
X49771428Y-42504819D01*
X50533333Y-42981009D02*
X50200000Y-42981009D01*
X50200000Y-43504819D02*
X50200000Y-42504819D01*
X50200000Y-42504819D02*
X50676190Y-42504819D01*
X51200000Y-42504819D02*
X51200000Y-42742914D01*
X50961905Y-42647676D02*
X51200000Y-42742914D01*
X51200000Y-42742914D02*
X51438095Y-42647676D01*
X51057143Y-42933390D02*
X51200000Y-42742914D01*
X51200000Y-42742914D02*
X51342857Y-42933390D01*
X51961905Y-42504819D02*
X51961905Y-42742914D01*
X51723810Y-42647676D02*
X51961905Y-42742914D01*
X51961905Y-42742914D02*
X52200000Y-42647676D01*
X51819048Y-42933390D02*
X51961905Y-42742914D01*
X51961905Y-42742914D02*
X52104762Y-42933390D01*
X57276666Y-111434819D02*
X57276666Y-112149104D01*
X57276666Y-112149104D02*
X57229047Y-112291961D01*
X57229047Y-112291961D02*
X57133809Y-112387200D01*
X57133809Y-112387200D02*
X56990952Y-112434819D01*
X56990952Y-112434819D02*
X56895714Y-112434819D01*
X57705238Y-111530057D02*
X57752857Y-111482438D01*
X57752857Y-111482438D02*
X57848095Y-111434819D01*
X57848095Y-111434819D02*
X58086190Y-111434819D01*
X58086190Y-111434819D02*
X58181428Y-111482438D01*
X58181428Y-111482438D02*
X58229047Y-111530057D01*
X58229047Y-111530057D02*
X58276666Y-111625295D01*
X58276666Y-111625295D02*
X58276666Y-111720533D01*
X58276666Y-111720533D02*
X58229047Y-111863390D01*
X58229047Y-111863390D02*
X57657619Y-112434819D01*
X57657619Y-112434819D02*
X58276666Y-112434819D01*
X146423809Y-94588152D02*
X146423809Y-95588152D01*
X146423809Y-94635771D02*
X146519047Y-94588152D01*
X146519047Y-94588152D02*
X146709523Y-94588152D01*
X146709523Y-94588152D02*
X146804761Y-94635771D01*
X146804761Y-94635771D02*
X146852380Y-94683390D01*
X146852380Y-94683390D02*
X146899999Y-94778628D01*
X146899999Y-94778628D02*
X146899999Y-95064342D01*
X146899999Y-95064342D02*
X146852380Y-95159580D01*
X146852380Y-95159580D02*
X146804761Y-95207200D01*
X146804761Y-95207200D02*
X146709523Y-95254819D01*
X146709523Y-95254819D02*
X146519047Y-95254819D01*
X146519047Y-95254819D02*
X146423809Y-95207200D01*
X147757142Y-94588152D02*
X147757142Y-95254819D01*
X147328571Y-94588152D02*
X147328571Y-95111961D01*
X147328571Y-95111961D02*
X147376190Y-95207200D01*
X147376190Y-95207200D02*
X147471428Y-95254819D01*
X147471428Y-95254819D02*
X147614285Y-95254819D01*
X147614285Y-95254819D02*
X147709523Y-95207200D01*
X147709523Y-95207200D02*
X147757142Y-95159580D01*
X148376190Y-95254819D02*
X148280952Y-95207200D01*
X148280952Y-95207200D02*
X148233333Y-95111961D01*
X148233333Y-95111961D02*
X148233333Y-94254819D01*
X148900000Y-95254819D02*
X148804762Y-95207200D01*
X148804762Y-95207200D02*
X148757143Y-95111961D01*
X148757143Y-95111961D02*
X148757143Y-94254819D01*
X149042858Y-95350057D02*
X149804762Y-95350057D01*
X150376191Y-94731009D02*
X150042858Y-94731009D01*
X150042858Y-95254819D02*
X150042858Y-94254819D01*
X150042858Y-94254819D02*
X150519048Y-94254819D01*
X151471429Y-95159580D02*
X151423810Y-95207200D01*
X151423810Y-95207200D02*
X151280953Y-95254819D01*
X151280953Y-95254819D02*
X151185715Y-95254819D01*
X151185715Y-95254819D02*
X151042858Y-95207200D01*
X151042858Y-95207200D02*
X150947620Y-95111961D01*
X150947620Y-95111961D02*
X150900001Y-95016723D01*
X150900001Y-95016723D02*
X150852382Y-94826247D01*
X150852382Y-94826247D02*
X150852382Y-94683390D01*
X150852382Y-94683390D02*
X150900001Y-94492914D01*
X150900001Y-94492914D02*
X150947620Y-94397676D01*
X150947620Y-94397676D02*
X151042858Y-94302438D01*
X151042858Y-94302438D02*
X151185715Y-94254819D01*
X151185715Y-94254819D02*
X151280953Y-94254819D01*
X151280953Y-94254819D02*
X151423810Y-94302438D01*
X151423810Y-94302438D02*
X151471429Y-94350057D01*
X152423810Y-95254819D02*
X151852382Y-95254819D01*
X152138096Y-95254819D02*
X152138096Y-94254819D01*
X152138096Y-94254819D02*
X152042858Y-94397676D01*
X152042858Y-94397676D02*
X151947620Y-94492914D01*
X151947620Y-94492914D02*
X151852382Y-94540533D01*
X127254819Y-115429166D02*
X126778628Y-115762499D01*
X127254819Y-116000594D02*
X126254819Y-116000594D01*
X126254819Y-116000594D02*
X126254819Y-115619642D01*
X126254819Y-115619642D02*
X126302438Y-115524404D01*
X126302438Y-115524404D02*
X126350057Y-115476785D01*
X126350057Y-115476785D02*
X126445295Y-115429166D01*
X126445295Y-115429166D02*
X126588152Y-115429166D01*
X126588152Y-115429166D02*
X126683390Y-115476785D01*
X126683390Y-115476785D02*
X126731009Y-115524404D01*
X126731009Y-115524404D02*
X126778628Y-115619642D01*
X126778628Y-115619642D02*
X126778628Y-116000594D01*
X126254819Y-115095832D02*
X126254819Y-114476785D01*
X126254819Y-114476785D02*
X126635771Y-114810118D01*
X126635771Y-114810118D02*
X126635771Y-114667261D01*
X126635771Y-114667261D02*
X126683390Y-114572023D01*
X126683390Y-114572023D02*
X126731009Y-114524404D01*
X126731009Y-114524404D02*
X126826247Y-114476785D01*
X126826247Y-114476785D02*
X127064342Y-114476785D01*
X127064342Y-114476785D02*
X127159580Y-114524404D01*
X127159580Y-114524404D02*
X127207200Y-114572023D01*
X127207200Y-114572023D02*
X127254819Y-114667261D01*
X127254819Y-114667261D02*
X127254819Y-114952975D01*
X127254819Y-114952975D02*
X127207200Y-115048213D01*
X127207200Y-115048213D02*
X127159580Y-115095832D01*
X186066666Y-140104819D02*
X185733333Y-139628628D01*
X185495238Y-140104819D02*
X185495238Y-139104819D01*
X185495238Y-139104819D02*
X185876190Y-139104819D01*
X185876190Y-139104819D02*
X185971428Y-139152438D01*
X185971428Y-139152438D02*
X186019047Y-139200057D01*
X186019047Y-139200057D02*
X186066666Y-139295295D01*
X186066666Y-139295295D02*
X186066666Y-139438152D01*
X186066666Y-139438152D02*
X186019047Y-139533390D01*
X186019047Y-139533390D02*
X185971428Y-139581009D01*
X185971428Y-139581009D02*
X185876190Y-139628628D01*
X185876190Y-139628628D02*
X185495238Y-139628628D01*
X186495238Y-139581009D02*
X186828571Y-139581009D01*
X186971428Y-140104819D02*
X186495238Y-140104819D01*
X186495238Y-140104819D02*
X186495238Y-139104819D01*
X186495238Y-139104819D02*
X186971428Y-139104819D01*
X187733333Y-139581009D02*
X187400000Y-139581009D01*
X187400000Y-140104819D02*
X187400000Y-139104819D01*
X187400000Y-139104819D02*
X187876190Y-139104819D01*
X188400000Y-139104819D02*
X188400000Y-139342914D01*
X188161905Y-139247676D02*
X188400000Y-139342914D01*
X188400000Y-139342914D02*
X188638095Y-139247676D01*
X188257143Y-139533390D02*
X188400000Y-139342914D01*
X188400000Y-139342914D02*
X188542857Y-139533390D01*
X189161905Y-139104819D02*
X189161905Y-139342914D01*
X188923810Y-139247676D02*
X189161905Y-139342914D01*
X189161905Y-139342914D02*
X189400000Y-139247676D01*
X189019048Y-139533390D02*
X189161905Y-139342914D01*
X189161905Y-139342914D02*
X189304762Y-139533390D01*
X135454819Y-115416666D02*
X134978628Y-115749999D01*
X135454819Y-115988094D02*
X134454819Y-115988094D01*
X134454819Y-115988094D02*
X134454819Y-115607142D01*
X134454819Y-115607142D02*
X134502438Y-115511904D01*
X134502438Y-115511904D02*
X134550057Y-115464285D01*
X134550057Y-115464285D02*
X134645295Y-115416666D01*
X134645295Y-115416666D02*
X134788152Y-115416666D01*
X134788152Y-115416666D02*
X134883390Y-115464285D01*
X134883390Y-115464285D02*
X134931009Y-115511904D01*
X134931009Y-115511904D02*
X134978628Y-115607142D01*
X134978628Y-115607142D02*
X134978628Y-115988094D01*
X135454819Y-114940475D02*
X135454819Y-114749999D01*
X135454819Y-114749999D02*
X135407200Y-114654761D01*
X135407200Y-114654761D02*
X135359580Y-114607142D01*
X135359580Y-114607142D02*
X135216723Y-114511904D01*
X135216723Y-114511904D02*
X135026247Y-114464285D01*
X135026247Y-114464285D02*
X134645295Y-114464285D01*
X134645295Y-114464285D02*
X134550057Y-114511904D01*
X134550057Y-114511904D02*
X134502438Y-114559523D01*
X134502438Y-114559523D02*
X134454819Y-114654761D01*
X134454819Y-114654761D02*
X134454819Y-114845237D01*
X134454819Y-114845237D02*
X134502438Y-114940475D01*
X134502438Y-114940475D02*
X134550057Y-114988094D01*
X134550057Y-114988094D02*
X134645295Y-115035713D01*
X134645295Y-115035713D02*
X134883390Y-115035713D01*
X134883390Y-115035713D02*
X134978628Y-114988094D01*
X134978628Y-114988094D02*
X135026247Y-114940475D01*
X135026247Y-114940475D02*
X135073866Y-114845237D01*
X135073866Y-114845237D02*
X135073866Y-114654761D01*
X135073866Y-114654761D02*
X135026247Y-114559523D01*
X135026247Y-114559523D02*
X134978628Y-114511904D01*
X134978628Y-114511904D02*
X134883390Y-114464285D01*
X185716666Y-43104819D02*
X185383333Y-42628628D01*
X185145238Y-43104819D02*
X185145238Y-42104819D01*
X185145238Y-42104819D02*
X185526190Y-42104819D01*
X185526190Y-42104819D02*
X185621428Y-42152438D01*
X185621428Y-42152438D02*
X185669047Y-42200057D01*
X185669047Y-42200057D02*
X185716666Y-42295295D01*
X185716666Y-42295295D02*
X185716666Y-42438152D01*
X185716666Y-42438152D02*
X185669047Y-42533390D01*
X185669047Y-42533390D02*
X185621428Y-42581009D01*
X185621428Y-42581009D02*
X185526190Y-42628628D01*
X185526190Y-42628628D02*
X185145238Y-42628628D01*
X186145238Y-42581009D02*
X186478571Y-42581009D01*
X186621428Y-43104819D02*
X186145238Y-43104819D01*
X186145238Y-43104819D02*
X186145238Y-42104819D01*
X186145238Y-42104819D02*
X186621428Y-42104819D01*
X187383333Y-42581009D02*
X187050000Y-42581009D01*
X187050000Y-43104819D02*
X187050000Y-42104819D01*
X187050000Y-42104819D02*
X187526190Y-42104819D01*
X188050000Y-42104819D02*
X188050000Y-42342914D01*
X187811905Y-42247676D02*
X188050000Y-42342914D01*
X188050000Y-42342914D02*
X188288095Y-42247676D01*
X187907143Y-42533390D02*
X188050000Y-42342914D01*
X188050000Y-42342914D02*
X188192857Y-42533390D01*
X188811905Y-42104819D02*
X188811905Y-42342914D01*
X188573810Y-42247676D02*
X188811905Y-42342914D01*
X188811905Y-42342914D02*
X189050000Y-42247676D01*
X188669048Y-42533390D02*
X188811905Y-42342914D01*
X188811905Y-42342914D02*
X188954762Y-42533390D01*
X106266666Y-79934819D02*
X105933333Y-79458628D01*
X105695238Y-79934819D02*
X105695238Y-78934819D01*
X105695238Y-78934819D02*
X106076190Y-78934819D01*
X106076190Y-78934819D02*
X106171428Y-78982438D01*
X106171428Y-78982438D02*
X106219047Y-79030057D01*
X106219047Y-79030057D02*
X106266666Y-79125295D01*
X106266666Y-79125295D02*
X106266666Y-79268152D01*
X106266666Y-79268152D02*
X106219047Y-79363390D01*
X106219047Y-79363390D02*
X106171428Y-79411009D01*
X106171428Y-79411009D02*
X106076190Y-79458628D01*
X106076190Y-79458628D02*
X105695238Y-79458628D01*
X106695238Y-79411009D02*
X107028571Y-79411009D01*
X107171428Y-79934819D02*
X106695238Y-79934819D01*
X106695238Y-79934819D02*
X106695238Y-78934819D01*
X106695238Y-78934819D02*
X107171428Y-78934819D01*
X107933333Y-79411009D02*
X107600000Y-79411009D01*
X107600000Y-79934819D02*
X107600000Y-78934819D01*
X107600000Y-78934819D02*
X108076190Y-78934819D01*
X108600000Y-78934819D02*
X108600000Y-79172914D01*
X108361905Y-79077676D02*
X108600000Y-79172914D01*
X108600000Y-79172914D02*
X108838095Y-79077676D01*
X108457143Y-79363390D02*
X108600000Y-79172914D01*
X108600000Y-79172914D02*
X108742857Y-79363390D01*
X109361905Y-78934819D02*
X109361905Y-79172914D01*
X109123810Y-79077676D02*
X109361905Y-79172914D01*
X109361905Y-79172914D02*
X109600000Y-79077676D01*
X109219048Y-79363390D02*
X109361905Y-79172914D01*
X109361905Y-79172914D02*
X109504762Y-79363390D01*
X124404819Y-115429166D02*
X123928628Y-115762499D01*
X124404819Y-116000594D02*
X123404819Y-116000594D01*
X123404819Y-116000594D02*
X123404819Y-115619642D01*
X123404819Y-115619642D02*
X123452438Y-115524404D01*
X123452438Y-115524404D02*
X123500057Y-115476785D01*
X123500057Y-115476785D02*
X123595295Y-115429166D01*
X123595295Y-115429166D02*
X123738152Y-115429166D01*
X123738152Y-115429166D02*
X123833390Y-115476785D01*
X123833390Y-115476785D02*
X123881009Y-115524404D01*
X123881009Y-115524404D02*
X123928628Y-115619642D01*
X123928628Y-115619642D02*
X123928628Y-116000594D01*
X123500057Y-115048213D02*
X123452438Y-115000594D01*
X123452438Y-115000594D02*
X123404819Y-114905356D01*
X123404819Y-114905356D02*
X123404819Y-114667261D01*
X123404819Y-114667261D02*
X123452438Y-114572023D01*
X123452438Y-114572023D02*
X123500057Y-114524404D01*
X123500057Y-114524404D02*
X123595295Y-114476785D01*
X123595295Y-114476785D02*
X123690533Y-114476785D01*
X123690533Y-114476785D02*
X123833390Y-114524404D01*
X123833390Y-114524404D02*
X124404819Y-115095832D01*
X124404819Y-115095832D02*
X124404819Y-114476785D01*
X147716666Y-56370150D02*
X147716666Y-57084435D01*
X147716666Y-57084435D02*
X147669047Y-57227292D01*
X147669047Y-57227292D02*
X147573809Y-57322531D01*
X147573809Y-57322531D02*
X147430952Y-57370150D01*
X147430952Y-57370150D02*
X147335714Y-57370150D01*
X148716666Y-57370150D02*
X148145238Y-57370150D01*
X148430952Y-57370150D02*
X148430952Y-56370150D01*
X148430952Y-56370150D02*
X148335714Y-56513007D01*
X148335714Y-56513007D02*
X148240476Y-56608245D01*
X148240476Y-56608245D02*
X148145238Y-56655864D01*
X107963095Y-86209819D02*
X107963095Y-87019342D01*
X107963095Y-87019342D02*
X108010714Y-87114580D01*
X108010714Y-87114580D02*
X108058333Y-87162200D01*
X108058333Y-87162200D02*
X108153571Y-87209819D01*
X108153571Y-87209819D02*
X108344047Y-87209819D01*
X108344047Y-87209819D02*
X108439285Y-87162200D01*
X108439285Y-87162200D02*
X108486904Y-87114580D01*
X108486904Y-87114580D02*
X108534523Y-87019342D01*
X108534523Y-87019342D02*
X108534523Y-86209819D01*
X109058333Y-87209819D02*
X109248809Y-87209819D01*
X109248809Y-87209819D02*
X109344047Y-87162200D01*
X109344047Y-87162200D02*
X109391666Y-87114580D01*
X109391666Y-87114580D02*
X109486904Y-86971723D01*
X109486904Y-86971723D02*
X109534523Y-86781247D01*
X109534523Y-86781247D02*
X109534523Y-86400295D01*
X109534523Y-86400295D02*
X109486904Y-86305057D01*
X109486904Y-86305057D02*
X109439285Y-86257438D01*
X109439285Y-86257438D02*
X109344047Y-86209819D01*
X109344047Y-86209819D02*
X109153571Y-86209819D01*
X109153571Y-86209819D02*
X109058333Y-86257438D01*
X109058333Y-86257438D02*
X109010714Y-86305057D01*
X109010714Y-86305057D02*
X108963095Y-86400295D01*
X108963095Y-86400295D02*
X108963095Y-86638390D01*
X108963095Y-86638390D02*
X109010714Y-86733628D01*
X109010714Y-86733628D02*
X109058333Y-86781247D01*
X109058333Y-86781247D02*
X109153571Y-86828866D01*
X109153571Y-86828866D02*
X109344047Y-86828866D01*
X109344047Y-86828866D02*
X109439285Y-86781247D01*
X109439285Y-86781247D02*
X109486904Y-86733628D01*
X109486904Y-86733628D02*
X109534523Y-86638390D01*
X117357142Y-68139580D02*
X117309523Y-68187200D01*
X117309523Y-68187200D02*
X117166666Y-68234819D01*
X117166666Y-68234819D02*
X117071428Y-68234819D01*
X117071428Y-68234819D02*
X116928571Y-68187200D01*
X116928571Y-68187200D02*
X116833333Y-68091961D01*
X116833333Y-68091961D02*
X116785714Y-67996723D01*
X116785714Y-67996723D02*
X116738095Y-67806247D01*
X116738095Y-67806247D02*
X116738095Y-67663390D01*
X116738095Y-67663390D02*
X116785714Y-67472914D01*
X116785714Y-67472914D02*
X116833333Y-67377676D01*
X116833333Y-67377676D02*
X116928571Y-67282438D01*
X116928571Y-67282438D02*
X117071428Y-67234819D01*
X117071428Y-67234819D02*
X117166666Y-67234819D01*
X117166666Y-67234819D02*
X117309523Y-67282438D01*
X117309523Y-67282438D02*
X117357142Y-67330057D01*
X118309523Y-68234819D02*
X117738095Y-68234819D01*
X118023809Y-68234819D02*
X118023809Y-67234819D01*
X118023809Y-67234819D02*
X117928571Y-67377676D01*
X117928571Y-67377676D02*
X117833333Y-67472914D01*
X117833333Y-67472914D02*
X117738095Y-67520533D01*
X118642857Y-67234819D02*
X119309523Y-67234819D01*
X119309523Y-67234819D02*
X118880952Y-68234819D01*
X83004819Y-111511904D02*
X83814342Y-111511904D01*
X83814342Y-111511904D02*
X83909580Y-111464285D01*
X83909580Y-111464285D02*
X83957200Y-111416666D01*
X83957200Y-111416666D02*
X84004819Y-111321428D01*
X84004819Y-111321428D02*
X84004819Y-111130952D01*
X84004819Y-111130952D02*
X83957200Y-111035714D01*
X83957200Y-111035714D02*
X83909580Y-110988095D01*
X83909580Y-110988095D02*
X83814342Y-110940476D01*
X83814342Y-110940476D02*
X83004819Y-110940476D01*
X83100057Y-110511904D02*
X83052438Y-110464285D01*
X83052438Y-110464285D02*
X83004819Y-110369047D01*
X83004819Y-110369047D02*
X83004819Y-110130952D01*
X83004819Y-110130952D02*
X83052438Y-110035714D01*
X83052438Y-110035714D02*
X83100057Y-109988095D01*
X83100057Y-109988095D02*
X83195295Y-109940476D01*
X83195295Y-109940476D02*
X83290533Y-109940476D01*
X83290533Y-109940476D02*
X83433390Y-109988095D01*
X83433390Y-109988095D02*
X84004819Y-110559523D01*
X84004819Y-110559523D02*
X84004819Y-109940476D01*
X129854819Y-65061904D02*
X130664342Y-65061904D01*
X130664342Y-65061904D02*
X130759580Y-65014285D01*
X130759580Y-65014285D02*
X130807200Y-64966666D01*
X130807200Y-64966666D02*
X130854819Y-64871428D01*
X130854819Y-64871428D02*
X130854819Y-64680952D01*
X130854819Y-64680952D02*
X130807200Y-64585714D01*
X130807200Y-64585714D02*
X130759580Y-64538095D01*
X130759580Y-64538095D02*
X130664342Y-64490476D01*
X130664342Y-64490476D02*
X129854819Y-64490476D01*
X129854819Y-63585714D02*
X129854819Y-63776190D01*
X129854819Y-63776190D02*
X129902438Y-63871428D01*
X129902438Y-63871428D02*
X129950057Y-63919047D01*
X129950057Y-63919047D02*
X130092914Y-64014285D01*
X130092914Y-64014285D02*
X130283390Y-64061904D01*
X130283390Y-64061904D02*
X130664342Y-64061904D01*
X130664342Y-64061904D02*
X130759580Y-64014285D01*
X130759580Y-64014285D02*
X130807200Y-63966666D01*
X130807200Y-63966666D02*
X130854819Y-63871428D01*
X130854819Y-63871428D02*
X130854819Y-63680952D01*
X130854819Y-63680952D02*
X130807200Y-63585714D01*
X130807200Y-63585714D02*
X130759580Y-63538095D01*
X130759580Y-63538095D02*
X130664342Y-63490476D01*
X130664342Y-63490476D02*
X130426247Y-63490476D01*
X130426247Y-63490476D02*
X130331009Y-63538095D01*
X130331009Y-63538095D02*
X130283390Y-63585714D01*
X130283390Y-63585714D02*
X130235771Y-63680952D01*
X130235771Y-63680952D02*
X130235771Y-63871428D01*
X130235771Y-63871428D02*
X130283390Y-63966666D01*
X130283390Y-63966666D02*
X130331009Y-64014285D01*
X130331009Y-64014285D02*
X130426247Y-64061904D01*
X76555819Y-60319094D02*
X75555819Y-60319094D01*
X75555819Y-60319094D02*
X75555819Y-60080999D01*
X75555819Y-60080999D02*
X75603438Y-59938142D01*
X75603438Y-59938142D02*
X75698676Y-59842904D01*
X75698676Y-59842904D02*
X75793914Y-59795285D01*
X75793914Y-59795285D02*
X75984390Y-59747666D01*
X75984390Y-59747666D02*
X76127247Y-59747666D01*
X76127247Y-59747666D02*
X76317723Y-59795285D01*
X76317723Y-59795285D02*
X76412961Y-59842904D01*
X76412961Y-59842904D02*
X76508200Y-59938142D01*
X76508200Y-59938142D02*
X76555819Y-60080999D01*
X76555819Y-60080999D02*
X76555819Y-60319094D01*
X76555819Y-59271475D02*
X76555819Y-59080999D01*
X76555819Y-59080999D02*
X76508200Y-58985761D01*
X76508200Y-58985761D02*
X76460580Y-58938142D01*
X76460580Y-58938142D02*
X76317723Y-58842904D01*
X76317723Y-58842904D02*
X76127247Y-58795285D01*
X76127247Y-58795285D02*
X75746295Y-58795285D01*
X75746295Y-58795285D02*
X75651057Y-58842904D01*
X75651057Y-58842904D02*
X75603438Y-58890523D01*
X75603438Y-58890523D02*
X75555819Y-58985761D01*
X75555819Y-58985761D02*
X75555819Y-59176237D01*
X75555819Y-59176237D02*
X75603438Y-59271475D01*
X75603438Y-59271475D02*
X75651057Y-59319094D01*
X75651057Y-59319094D02*
X75746295Y-59366713D01*
X75746295Y-59366713D02*
X75984390Y-59366713D01*
X75984390Y-59366713D02*
X76079628Y-59319094D01*
X76079628Y-59319094D02*
X76127247Y-59271475D01*
X76127247Y-59271475D02*
X76174866Y-59176237D01*
X76174866Y-59176237D02*
X76174866Y-58985761D01*
X76174866Y-58985761D02*
X76127247Y-58890523D01*
X76127247Y-58890523D02*
X76079628Y-58842904D01*
X76079628Y-58842904D02*
X75984390Y-58795285D01*
X75435819Y-52222904D02*
X74435819Y-52222904D01*
X75435819Y-51651476D02*
X74864390Y-52080047D01*
X74435819Y-51651476D02*
X75007247Y-52222904D01*
X111786666Y-87094819D02*
X111453333Y-86618628D01*
X111215238Y-87094819D02*
X111215238Y-86094819D01*
X111215238Y-86094819D02*
X111596190Y-86094819D01*
X111596190Y-86094819D02*
X111691428Y-86142438D01*
X111691428Y-86142438D02*
X111739047Y-86190057D01*
X111739047Y-86190057D02*
X111786666Y-86285295D01*
X111786666Y-86285295D02*
X111786666Y-86428152D01*
X111786666Y-86428152D02*
X111739047Y-86523390D01*
X111739047Y-86523390D02*
X111691428Y-86571009D01*
X111691428Y-86571009D02*
X111596190Y-86618628D01*
X111596190Y-86618628D02*
X111215238Y-86618628D01*
X112215238Y-86571009D02*
X112548571Y-86571009D01*
X112691428Y-87094819D02*
X112215238Y-87094819D01*
X112215238Y-87094819D02*
X112215238Y-86094819D01*
X112215238Y-86094819D02*
X112691428Y-86094819D01*
X113453333Y-86571009D02*
X113120000Y-86571009D01*
X113120000Y-87094819D02*
X113120000Y-86094819D01*
X113120000Y-86094819D02*
X113596190Y-86094819D01*
X114120000Y-86094819D02*
X114120000Y-86332914D01*
X113881905Y-86237676D02*
X114120000Y-86332914D01*
X114120000Y-86332914D02*
X114358095Y-86237676D01*
X113977143Y-86523390D02*
X114120000Y-86332914D01*
X114120000Y-86332914D02*
X114262857Y-86523390D01*
X114881905Y-86094819D02*
X114881905Y-86332914D01*
X114643810Y-86237676D02*
X114881905Y-86332914D01*
X114881905Y-86332914D02*
X115120000Y-86237676D01*
X114739048Y-86523390D02*
X114881905Y-86332914D01*
X114881905Y-86332914D02*
X115024762Y-86523390D01*
X86865819Y-62015285D02*
X85865819Y-62015285D01*
X85865819Y-62015285D02*
X85865819Y-61777190D01*
X85865819Y-61777190D02*
X85913438Y-61634333D01*
X85913438Y-61634333D02*
X86008676Y-61539095D01*
X86008676Y-61539095D02*
X86103914Y-61491476D01*
X86103914Y-61491476D02*
X86294390Y-61443857D01*
X86294390Y-61443857D02*
X86437247Y-61443857D01*
X86437247Y-61443857D02*
X86627723Y-61491476D01*
X86627723Y-61491476D02*
X86722961Y-61539095D01*
X86722961Y-61539095D02*
X86818200Y-61634333D01*
X86818200Y-61634333D02*
X86865819Y-61777190D01*
X86865819Y-61777190D02*
X86865819Y-62015285D01*
X86865819Y-60491476D02*
X86865819Y-61062904D01*
X86865819Y-60777190D02*
X85865819Y-60777190D01*
X85865819Y-60777190D02*
X86008676Y-60872428D01*
X86008676Y-60872428D02*
X86103914Y-60967666D01*
X86103914Y-60967666D02*
X86151533Y-61062904D01*
X85865819Y-59872428D02*
X85865819Y-59777190D01*
X85865819Y-59777190D02*
X85913438Y-59681952D01*
X85913438Y-59681952D02*
X85961057Y-59634333D01*
X85961057Y-59634333D02*
X86056295Y-59586714D01*
X86056295Y-59586714D02*
X86246771Y-59539095D01*
X86246771Y-59539095D02*
X86484866Y-59539095D01*
X86484866Y-59539095D02*
X86675342Y-59586714D01*
X86675342Y-59586714D02*
X86770580Y-59634333D01*
X86770580Y-59634333D02*
X86818200Y-59681952D01*
X86818200Y-59681952D02*
X86865819Y-59777190D01*
X86865819Y-59777190D02*
X86865819Y-59872428D01*
X86865819Y-59872428D02*
X86818200Y-59967666D01*
X86818200Y-59967666D02*
X86770580Y-60015285D01*
X86770580Y-60015285D02*
X86675342Y-60062904D01*
X86675342Y-60062904D02*
X86484866Y-60110523D01*
X86484866Y-60110523D02*
X86246771Y-60110523D01*
X86246771Y-60110523D02*
X86056295Y-60062904D01*
X86056295Y-60062904D02*
X85961057Y-60015285D01*
X85961057Y-60015285D02*
X85913438Y-59967666D01*
X85913438Y-59967666D02*
X85865819Y-59872428D01*
X87985819Y-68682904D02*
X86985819Y-68682904D01*
X87985819Y-68111476D02*
X87414390Y-68540047D01*
X86985819Y-68111476D02*
X87557247Y-68682904D01*
X180772557Y-133110238D02*
X180724938Y-133205476D01*
X180724938Y-133205476D02*
X180629700Y-133300714D01*
X180629700Y-133300714D02*
X180486842Y-133443571D01*
X180486842Y-133443571D02*
X180439223Y-133538809D01*
X180439223Y-133538809D02*
X180439223Y-133634047D01*
X180677319Y-133586428D02*
X180629700Y-133681666D01*
X180629700Y-133681666D02*
X180534461Y-133776904D01*
X180534461Y-133776904D02*
X180343985Y-133824523D01*
X180343985Y-133824523D02*
X180010652Y-133824523D01*
X180010652Y-133824523D02*
X179820176Y-133776904D01*
X179820176Y-133776904D02*
X179724938Y-133681666D01*
X179724938Y-133681666D02*
X179677319Y-133586428D01*
X179677319Y-133586428D02*
X179677319Y-133395952D01*
X179677319Y-133395952D02*
X179724938Y-133300714D01*
X179724938Y-133300714D02*
X179820176Y-133205476D01*
X179820176Y-133205476D02*
X180010652Y-133157857D01*
X180010652Y-133157857D02*
X180343985Y-133157857D01*
X180343985Y-133157857D02*
X180534461Y-133205476D01*
X180534461Y-133205476D02*
X180629700Y-133300714D01*
X180629700Y-133300714D02*
X180677319Y-133395952D01*
X180677319Y-133395952D02*
X180677319Y-133586428D01*
X180105890Y-132586428D02*
X180058271Y-132681666D01*
X180058271Y-132681666D02*
X180010652Y-132729285D01*
X180010652Y-132729285D02*
X179915414Y-132776904D01*
X179915414Y-132776904D02*
X179867795Y-132776904D01*
X179867795Y-132776904D02*
X179772557Y-132729285D01*
X179772557Y-132729285D02*
X179724938Y-132681666D01*
X179724938Y-132681666D02*
X179677319Y-132586428D01*
X179677319Y-132586428D02*
X179677319Y-132395952D01*
X179677319Y-132395952D02*
X179724938Y-132300714D01*
X179724938Y-132300714D02*
X179772557Y-132253095D01*
X179772557Y-132253095D02*
X179867795Y-132205476D01*
X179867795Y-132205476D02*
X179915414Y-132205476D01*
X179915414Y-132205476D02*
X180010652Y-132253095D01*
X180010652Y-132253095D02*
X180058271Y-132300714D01*
X180058271Y-132300714D02*
X180105890Y-132395952D01*
X180105890Y-132395952D02*
X180105890Y-132586428D01*
X180105890Y-132586428D02*
X180153509Y-132681666D01*
X180153509Y-132681666D02*
X180201128Y-132729285D01*
X180201128Y-132729285D02*
X180296366Y-132776904D01*
X180296366Y-132776904D02*
X180486842Y-132776904D01*
X180486842Y-132776904D02*
X180582080Y-132729285D01*
X180582080Y-132729285D02*
X180629700Y-132681666D01*
X180629700Y-132681666D02*
X180677319Y-132586428D01*
X180677319Y-132586428D02*
X180677319Y-132395952D01*
X180677319Y-132395952D02*
X180629700Y-132300714D01*
X180629700Y-132300714D02*
X180582080Y-132253095D01*
X180582080Y-132253095D02*
X180486842Y-132205476D01*
X180486842Y-132205476D02*
X180296366Y-132205476D01*
X180296366Y-132205476D02*
X180201128Y-132253095D01*
X180201128Y-132253095D02*
X180153509Y-132300714D01*
X180153509Y-132300714D02*
X180105890Y-132395952D01*
X74275819Y-75662904D02*
X75085342Y-75662904D01*
X75085342Y-75662904D02*
X75180580Y-75615285D01*
X75180580Y-75615285D02*
X75228200Y-75567666D01*
X75228200Y-75567666D02*
X75275819Y-75472428D01*
X75275819Y-75472428D02*
X75275819Y-75281952D01*
X75275819Y-75281952D02*
X75228200Y-75186714D01*
X75228200Y-75186714D02*
X75180580Y-75139095D01*
X75180580Y-75139095D02*
X75085342Y-75091476D01*
X75085342Y-75091476D02*
X74275819Y-75091476D01*
X74275819Y-74710523D02*
X74275819Y-74091476D01*
X74275819Y-74091476D02*
X74656771Y-74424809D01*
X74656771Y-74424809D02*
X74656771Y-74281952D01*
X74656771Y-74281952D02*
X74704390Y-74186714D01*
X74704390Y-74186714D02*
X74752009Y-74139095D01*
X74752009Y-74139095D02*
X74847247Y-74091476D01*
X74847247Y-74091476D02*
X75085342Y-74091476D01*
X75085342Y-74091476D02*
X75180580Y-74139095D01*
X75180580Y-74139095D02*
X75228200Y-74186714D01*
X75228200Y-74186714D02*
X75275819Y-74281952D01*
X75275819Y-74281952D02*
X75275819Y-74567666D01*
X75275819Y-74567666D02*
X75228200Y-74662904D01*
X75228200Y-74662904D02*
X75180580Y-74710523D01*
X184329819Y-135429523D02*
X185044104Y-135429523D01*
X185044104Y-135429523D02*
X185186961Y-135477142D01*
X185186961Y-135477142D02*
X185282200Y-135572380D01*
X185282200Y-135572380D02*
X185329819Y-135715237D01*
X185329819Y-135715237D02*
X185329819Y-135810475D01*
X185329819Y-134429523D02*
X185329819Y-135000951D01*
X185329819Y-134715237D02*
X184329819Y-134715237D01*
X184329819Y-134715237D02*
X184472676Y-134810475D01*
X184472676Y-134810475D02*
X184567914Y-134905713D01*
X184567914Y-134905713D02*
X184615533Y-135000951D01*
X184663152Y-133572380D02*
X185329819Y-133572380D01*
X184282200Y-133810475D02*
X184996485Y-134048570D01*
X184996485Y-134048570D02*
X184996485Y-133429523D01*
X107361905Y-100204819D02*
X107361905Y-99204819D01*
X107361905Y-99204819D02*
X107600000Y-99204819D01*
X107600000Y-99204819D02*
X107742857Y-99252438D01*
X107742857Y-99252438D02*
X107838095Y-99347676D01*
X107838095Y-99347676D02*
X107885714Y-99442914D01*
X107885714Y-99442914D02*
X107933333Y-99633390D01*
X107933333Y-99633390D02*
X107933333Y-99776247D01*
X107933333Y-99776247D02*
X107885714Y-99966723D01*
X107885714Y-99966723D02*
X107838095Y-100061961D01*
X107838095Y-100061961D02*
X107742857Y-100157200D01*
X107742857Y-100157200D02*
X107600000Y-100204819D01*
X107600000Y-100204819D02*
X107361905Y-100204819D01*
X108314286Y-99300057D02*
X108361905Y-99252438D01*
X108361905Y-99252438D02*
X108457143Y-99204819D01*
X108457143Y-99204819D02*
X108695238Y-99204819D01*
X108695238Y-99204819D02*
X108790476Y-99252438D01*
X108790476Y-99252438D02*
X108838095Y-99300057D01*
X108838095Y-99300057D02*
X108885714Y-99395295D01*
X108885714Y-99395295D02*
X108885714Y-99490533D01*
X108885714Y-99490533D02*
X108838095Y-99633390D01*
X108838095Y-99633390D02*
X108266667Y-100204819D01*
X108266667Y-100204819D02*
X108885714Y-100204819D01*
X97007142Y-125679580D02*
X96959523Y-125727200D01*
X96959523Y-125727200D02*
X96816666Y-125774819D01*
X96816666Y-125774819D02*
X96721428Y-125774819D01*
X96721428Y-125774819D02*
X96578571Y-125727200D01*
X96578571Y-125727200D02*
X96483333Y-125631961D01*
X96483333Y-125631961D02*
X96435714Y-125536723D01*
X96435714Y-125536723D02*
X96388095Y-125346247D01*
X96388095Y-125346247D02*
X96388095Y-125203390D01*
X96388095Y-125203390D02*
X96435714Y-125012914D01*
X96435714Y-125012914D02*
X96483333Y-124917676D01*
X96483333Y-124917676D02*
X96578571Y-124822438D01*
X96578571Y-124822438D02*
X96721428Y-124774819D01*
X96721428Y-124774819D02*
X96816666Y-124774819D01*
X96816666Y-124774819D02*
X96959523Y-124822438D01*
X96959523Y-124822438D02*
X97007142Y-124870057D01*
X97959523Y-125774819D02*
X97388095Y-125774819D01*
X97673809Y-125774819D02*
X97673809Y-124774819D01*
X97673809Y-124774819D02*
X97578571Y-124917676D01*
X97578571Y-124917676D02*
X97483333Y-125012914D01*
X97483333Y-125012914D02*
X97388095Y-125060533D01*
X98578571Y-124774819D02*
X98673809Y-124774819D01*
X98673809Y-124774819D02*
X98769047Y-124822438D01*
X98769047Y-124822438D02*
X98816666Y-124870057D01*
X98816666Y-124870057D02*
X98864285Y-124965295D01*
X98864285Y-124965295D02*
X98911904Y-125155771D01*
X98911904Y-125155771D02*
X98911904Y-125393866D01*
X98911904Y-125393866D02*
X98864285Y-125584342D01*
X98864285Y-125584342D02*
X98816666Y-125679580D01*
X98816666Y-125679580D02*
X98769047Y-125727200D01*
X98769047Y-125727200D02*
X98673809Y-125774819D01*
X98673809Y-125774819D02*
X98578571Y-125774819D01*
X98578571Y-125774819D02*
X98483333Y-125727200D01*
X98483333Y-125727200D02*
X98435714Y-125679580D01*
X98435714Y-125679580D02*
X98388095Y-125584342D01*
X98388095Y-125584342D02*
X98340476Y-125393866D01*
X98340476Y-125393866D02*
X98340476Y-125155771D01*
X98340476Y-125155771D02*
X98388095Y-124965295D01*
X98388095Y-124965295D02*
X98435714Y-124870057D01*
X98435714Y-124870057D02*
X98483333Y-124822438D01*
X98483333Y-124822438D02*
X98578571Y-124774819D01*
X104133333Y-113059580D02*
X104085714Y-113107200D01*
X104085714Y-113107200D02*
X103942857Y-113154819D01*
X103942857Y-113154819D02*
X103847619Y-113154819D01*
X103847619Y-113154819D02*
X103704762Y-113107200D01*
X103704762Y-113107200D02*
X103609524Y-113011961D01*
X103609524Y-113011961D02*
X103561905Y-112916723D01*
X103561905Y-112916723D02*
X103514286Y-112726247D01*
X103514286Y-112726247D02*
X103514286Y-112583390D01*
X103514286Y-112583390D02*
X103561905Y-112392914D01*
X103561905Y-112392914D02*
X103609524Y-112297676D01*
X103609524Y-112297676D02*
X103704762Y-112202438D01*
X103704762Y-112202438D02*
X103847619Y-112154819D01*
X103847619Y-112154819D02*
X103942857Y-112154819D01*
X103942857Y-112154819D02*
X104085714Y-112202438D01*
X104085714Y-112202438D02*
X104133333Y-112250057D01*
X105085714Y-113154819D02*
X104514286Y-113154819D01*
X104800000Y-113154819D02*
X104800000Y-112154819D01*
X104800000Y-112154819D02*
X104704762Y-112297676D01*
X104704762Y-112297676D02*
X104609524Y-112392914D01*
X104609524Y-112392914D02*
X104514286Y-112440533D01*
X190632200Y-90383332D02*
X190679819Y-90240475D01*
X190679819Y-90240475D02*
X190679819Y-90002380D01*
X190679819Y-90002380D02*
X190632200Y-89907142D01*
X190632200Y-89907142D02*
X190584580Y-89859523D01*
X190584580Y-89859523D02*
X190489342Y-89811904D01*
X190489342Y-89811904D02*
X190394104Y-89811904D01*
X190394104Y-89811904D02*
X190298866Y-89859523D01*
X190298866Y-89859523D02*
X190251247Y-89907142D01*
X190251247Y-89907142D02*
X190203628Y-90002380D01*
X190203628Y-90002380D02*
X190156009Y-90192856D01*
X190156009Y-90192856D02*
X190108390Y-90288094D01*
X190108390Y-90288094D02*
X190060771Y-90335713D01*
X190060771Y-90335713D02*
X189965533Y-90383332D01*
X189965533Y-90383332D02*
X189870295Y-90383332D01*
X189870295Y-90383332D02*
X189775057Y-90335713D01*
X189775057Y-90335713D02*
X189727438Y-90288094D01*
X189727438Y-90288094D02*
X189679819Y-90192856D01*
X189679819Y-90192856D02*
X189679819Y-89954761D01*
X189679819Y-89954761D02*
X189727438Y-89811904D01*
X189679819Y-89478570D02*
X190679819Y-89240475D01*
X190679819Y-89240475D02*
X189965533Y-89049999D01*
X189965533Y-89049999D02*
X190679819Y-88859523D01*
X190679819Y-88859523D02*
X189679819Y-88621428D01*
X190013152Y-87811904D02*
X190679819Y-87811904D01*
X189632200Y-88049999D02*
X190346485Y-88288094D01*
X190346485Y-88288094D02*
X190346485Y-87669047D01*
X113438152Y-92890476D02*
X114438152Y-92890476D01*
X113485771Y-92890476D02*
X113438152Y-92795238D01*
X113438152Y-92795238D02*
X113438152Y-92604762D01*
X113438152Y-92604762D02*
X113485771Y-92509524D01*
X113485771Y-92509524D02*
X113533390Y-92461905D01*
X113533390Y-92461905D02*
X113628628Y-92414286D01*
X113628628Y-92414286D02*
X113914342Y-92414286D01*
X113914342Y-92414286D02*
X114009580Y-92461905D01*
X114009580Y-92461905D02*
X114057200Y-92509524D01*
X114057200Y-92509524D02*
X114104819Y-92604762D01*
X114104819Y-92604762D02*
X114104819Y-92795238D01*
X114104819Y-92795238D02*
X114057200Y-92890476D01*
X113438152Y-91557143D02*
X114104819Y-91557143D01*
X113438152Y-91985714D02*
X113961961Y-91985714D01*
X113961961Y-91985714D02*
X114057200Y-91938095D01*
X114057200Y-91938095D02*
X114104819Y-91842857D01*
X114104819Y-91842857D02*
X114104819Y-91700000D01*
X114104819Y-91700000D02*
X114057200Y-91604762D01*
X114057200Y-91604762D02*
X114009580Y-91557143D01*
X114104819Y-90938095D02*
X114057200Y-91033333D01*
X114057200Y-91033333D02*
X113961961Y-91080952D01*
X113961961Y-91080952D02*
X113104819Y-91080952D01*
X114104819Y-90414285D02*
X114057200Y-90509523D01*
X114057200Y-90509523D02*
X113961961Y-90557142D01*
X113961961Y-90557142D02*
X113104819Y-90557142D01*
X114200057Y-90271428D02*
X114200057Y-89509523D01*
X114104819Y-89271427D02*
X113104819Y-89271427D01*
X114104819Y-88795237D02*
X113104819Y-88795237D01*
X113104819Y-88795237D02*
X114104819Y-88223809D01*
X114104819Y-88223809D02*
X113104819Y-88223809D01*
X113104819Y-87890475D02*
X113104819Y-87319047D01*
X114104819Y-87604761D02*
X113104819Y-87604761D01*
X114104819Y-86461904D02*
X114104819Y-87033332D01*
X114104819Y-86747618D02*
X113104819Y-86747618D01*
X113104819Y-86747618D02*
X113247676Y-86842856D01*
X113247676Y-86842856D02*
X113342914Y-86938094D01*
X113342914Y-86938094D02*
X113390533Y-87033332D01*
X141104819Y-115416666D02*
X140628628Y-115749999D01*
X141104819Y-115988094D02*
X140104819Y-115988094D01*
X140104819Y-115988094D02*
X140104819Y-115607142D01*
X140104819Y-115607142D02*
X140152438Y-115511904D01*
X140152438Y-115511904D02*
X140200057Y-115464285D01*
X140200057Y-115464285D02*
X140295295Y-115416666D01*
X140295295Y-115416666D02*
X140438152Y-115416666D01*
X140438152Y-115416666D02*
X140533390Y-115464285D01*
X140533390Y-115464285D02*
X140581009Y-115511904D01*
X140581009Y-115511904D02*
X140628628Y-115607142D01*
X140628628Y-115607142D02*
X140628628Y-115988094D01*
X140104819Y-115083332D02*
X140104819Y-114416666D01*
X140104819Y-114416666D02*
X141104819Y-114845237D01*
X190632200Y-80233332D02*
X190679819Y-80090475D01*
X190679819Y-80090475D02*
X190679819Y-79852380D01*
X190679819Y-79852380D02*
X190632200Y-79757142D01*
X190632200Y-79757142D02*
X190584580Y-79709523D01*
X190584580Y-79709523D02*
X190489342Y-79661904D01*
X190489342Y-79661904D02*
X190394104Y-79661904D01*
X190394104Y-79661904D02*
X190298866Y-79709523D01*
X190298866Y-79709523D02*
X190251247Y-79757142D01*
X190251247Y-79757142D02*
X190203628Y-79852380D01*
X190203628Y-79852380D02*
X190156009Y-80042856D01*
X190156009Y-80042856D02*
X190108390Y-80138094D01*
X190108390Y-80138094D02*
X190060771Y-80185713D01*
X190060771Y-80185713D02*
X189965533Y-80233332D01*
X189965533Y-80233332D02*
X189870295Y-80233332D01*
X189870295Y-80233332D02*
X189775057Y-80185713D01*
X189775057Y-80185713D02*
X189727438Y-80138094D01*
X189727438Y-80138094D02*
X189679819Y-80042856D01*
X189679819Y-80042856D02*
X189679819Y-79804761D01*
X189679819Y-79804761D02*
X189727438Y-79661904D01*
X189679819Y-79328570D02*
X190679819Y-79090475D01*
X190679819Y-79090475D02*
X189965533Y-78899999D01*
X189965533Y-78899999D02*
X190679819Y-78709523D01*
X190679819Y-78709523D02*
X189679819Y-78471428D01*
X189679819Y-77614285D02*
X189679819Y-78090475D01*
X189679819Y-78090475D02*
X190156009Y-78138094D01*
X190156009Y-78138094D02*
X190108390Y-78090475D01*
X190108390Y-78090475D02*
X190060771Y-77995237D01*
X190060771Y-77995237D02*
X190060771Y-77757142D01*
X190060771Y-77757142D02*
X190108390Y-77661904D01*
X190108390Y-77661904D02*
X190156009Y-77614285D01*
X190156009Y-77614285D02*
X190251247Y-77566666D01*
X190251247Y-77566666D02*
X190489342Y-77566666D01*
X190489342Y-77566666D02*
X190584580Y-77614285D01*
X190584580Y-77614285D02*
X190632200Y-77661904D01*
X190632200Y-77661904D02*
X190679819Y-77757142D01*
X190679819Y-77757142D02*
X190679819Y-77995237D01*
X190679819Y-77995237D02*
X190632200Y-78090475D01*
X190632200Y-78090475D02*
X190584580Y-78138094D01*
X104341428Y-84093152D02*
X104341428Y-85093152D01*
X104341428Y-84140771D02*
X104436666Y-84093152D01*
X104436666Y-84093152D02*
X104627142Y-84093152D01*
X104627142Y-84093152D02*
X104722380Y-84140771D01*
X104722380Y-84140771D02*
X104769999Y-84188390D01*
X104769999Y-84188390D02*
X104817618Y-84283628D01*
X104817618Y-84283628D02*
X104817618Y-84569342D01*
X104817618Y-84569342D02*
X104769999Y-84664580D01*
X104769999Y-84664580D02*
X104722380Y-84712200D01*
X104722380Y-84712200D02*
X104627142Y-84759819D01*
X104627142Y-84759819D02*
X104436666Y-84759819D01*
X104436666Y-84759819D02*
X104341428Y-84712200D01*
X105674761Y-84093152D02*
X105674761Y-84759819D01*
X105246190Y-84093152D02*
X105246190Y-84616961D01*
X105246190Y-84616961D02*
X105293809Y-84712200D01*
X105293809Y-84712200D02*
X105389047Y-84759819D01*
X105389047Y-84759819D02*
X105531904Y-84759819D01*
X105531904Y-84759819D02*
X105627142Y-84712200D01*
X105627142Y-84712200D02*
X105674761Y-84664580D01*
X106293809Y-84759819D02*
X106198571Y-84712200D01*
X106198571Y-84712200D02*
X106150952Y-84616961D01*
X106150952Y-84616961D02*
X106150952Y-83759819D01*
X106817619Y-84759819D02*
X106722381Y-84712200D01*
X106722381Y-84712200D02*
X106674762Y-84616961D01*
X106674762Y-84616961D02*
X106674762Y-83759819D01*
X106960477Y-84855057D02*
X107722381Y-84855057D01*
X107912858Y-84712200D02*
X108055715Y-84759819D01*
X108055715Y-84759819D02*
X108293810Y-84759819D01*
X108293810Y-84759819D02*
X108389048Y-84712200D01*
X108389048Y-84712200D02*
X108436667Y-84664580D01*
X108436667Y-84664580D02*
X108484286Y-84569342D01*
X108484286Y-84569342D02*
X108484286Y-84474104D01*
X108484286Y-84474104D02*
X108436667Y-84378866D01*
X108436667Y-84378866D02*
X108389048Y-84331247D01*
X108389048Y-84331247D02*
X108293810Y-84283628D01*
X108293810Y-84283628D02*
X108103334Y-84236009D01*
X108103334Y-84236009D02*
X108008096Y-84188390D01*
X108008096Y-84188390D02*
X107960477Y-84140771D01*
X107960477Y-84140771D02*
X107912858Y-84045533D01*
X107912858Y-84045533D02*
X107912858Y-83950295D01*
X107912858Y-83950295D02*
X107960477Y-83855057D01*
X107960477Y-83855057D02*
X108008096Y-83807438D01*
X108008096Y-83807438D02*
X108103334Y-83759819D01*
X108103334Y-83759819D02*
X108341429Y-83759819D01*
X108341429Y-83759819D02*
X108484286Y-83807438D01*
X109484286Y-84664580D02*
X109436667Y-84712200D01*
X109436667Y-84712200D02*
X109293810Y-84759819D01*
X109293810Y-84759819D02*
X109198572Y-84759819D01*
X109198572Y-84759819D02*
X109055715Y-84712200D01*
X109055715Y-84712200D02*
X108960477Y-84616961D01*
X108960477Y-84616961D02*
X108912858Y-84521723D01*
X108912858Y-84521723D02*
X108865239Y-84331247D01*
X108865239Y-84331247D02*
X108865239Y-84188390D01*
X108865239Y-84188390D02*
X108912858Y-83997914D01*
X108912858Y-83997914D02*
X108960477Y-83902676D01*
X108960477Y-83902676D02*
X109055715Y-83807438D01*
X109055715Y-83807438D02*
X109198572Y-83759819D01*
X109198572Y-83759819D02*
X109293810Y-83759819D01*
X109293810Y-83759819D02*
X109436667Y-83807438D01*
X109436667Y-83807438D02*
X109484286Y-83855057D01*
X110389048Y-84759819D02*
X109912858Y-84759819D01*
X109912858Y-84759819D02*
X109912858Y-83759819D01*
X110674763Y-83855057D02*
X110722382Y-83807438D01*
X110722382Y-83807438D02*
X110817620Y-83759819D01*
X110817620Y-83759819D02*
X111055715Y-83759819D01*
X111055715Y-83759819D02*
X111150953Y-83807438D01*
X111150953Y-83807438D02*
X111198572Y-83855057D01*
X111198572Y-83855057D02*
X111246191Y-83950295D01*
X111246191Y-83950295D02*
X111246191Y-84045533D01*
X111246191Y-84045533D02*
X111198572Y-84188390D01*
X111198572Y-84188390D02*
X110627144Y-84759819D01*
X110627144Y-84759819D02*
X111246191Y-84759819D01*
X121354819Y-115942857D02*
X120878628Y-116276190D01*
X121354819Y-116514285D02*
X120354819Y-116514285D01*
X120354819Y-116514285D02*
X120354819Y-116133333D01*
X120354819Y-116133333D02*
X120402438Y-116038095D01*
X120402438Y-116038095D02*
X120450057Y-115990476D01*
X120450057Y-115990476D02*
X120545295Y-115942857D01*
X120545295Y-115942857D02*
X120688152Y-115942857D01*
X120688152Y-115942857D02*
X120783390Y-115990476D01*
X120783390Y-115990476D02*
X120831009Y-116038095D01*
X120831009Y-116038095D02*
X120878628Y-116133333D01*
X120878628Y-116133333D02*
X120878628Y-116514285D01*
X121354819Y-114990476D02*
X121354819Y-115561904D01*
X121354819Y-115276190D02*
X120354819Y-115276190D01*
X120354819Y-115276190D02*
X120497676Y-115371428D01*
X120497676Y-115371428D02*
X120592914Y-115466666D01*
X120592914Y-115466666D02*
X120640533Y-115561904D01*
X120354819Y-114085714D02*
X120354819Y-114561904D01*
X120354819Y-114561904D02*
X120831009Y-114609523D01*
X120831009Y-114609523D02*
X120783390Y-114561904D01*
X120783390Y-114561904D02*
X120735771Y-114466666D01*
X120735771Y-114466666D02*
X120735771Y-114228571D01*
X120735771Y-114228571D02*
X120783390Y-114133333D01*
X120783390Y-114133333D02*
X120831009Y-114085714D01*
X120831009Y-114085714D02*
X120926247Y-114038095D01*
X120926247Y-114038095D02*
X121164342Y-114038095D01*
X121164342Y-114038095D02*
X121259580Y-114085714D01*
X121259580Y-114085714D02*
X121307200Y-114133333D01*
X121307200Y-114133333D02*
X121354819Y-114228571D01*
X121354819Y-114228571D02*
X121354819Y-114466666D01*
X121354819Y-114466666D02*
X121307200Y-114561904D01*
X121307200Y-114561904D02*
X121259580Y-114609523D01*
X105954819Y-99205357D02*
X105478628Y-99538690D01*
X105954819Y-99776785D02*
X104954819Y-99776785D01*
X104954819Y-99776785D02*
X104954819Y-99395833D01*
X104954819Y-99395833D02*
X105002438Y-99300595D01*
X105002438Y-99300595D02*
X105050057Y-99252976D01*
X105050057Y-99252976D02*
X105145295Y-99205357D01*
X105145295Y-99205357D02*
X105288152Y-99205357D01*
X105288152Y-99205357D02*
X105383390Y-99252976D01*
X105383390Y-99252976D02*
X105431009Y-99300595D01*
X105431009Y-99300595D02*
X105478628Y-99395833D01*
X105478628Y-99395833D02*
X105478628Y-99776785D01*
X105954819Y-98252976D02*
X105954819Y-98824404D01*
X105954819Y-98538690D02*
X104954819Y-98538690D01*
X104954819Y-98538690D02*
X105097676Y-98633928D01*
X105097676Y-98633928D02*
X105192914Y-98729166D01*
X105192914Y-98729166D02*
X105240533Y-98824404D01*
X105954819Y-97300595D02*
X105954819Y-97872023D01*
X105954819Y-97586309D02*
X104954819Y-97586309D01*
X104954819Y-97586309D02*
X105097676Y-97681547D01*
X105097676Y-97681547D02*
X105192914Y-97776785D01*
X105192914Y-97776785D02*
X105240533Y-97872023D01*
X134283333Y-120204819D02*
X133950000Y-119728628D01*
X133711905Y-120204819D02*
X133711905Y-119204819D01*
X133711905Y-119204819D02*
X134092857Y-119204819D01*
X134092857Y-119204819D02*
X134188095Y-119252438D01*
X134188095Y-119252438D02*
X134235714Y-119300057D01*
X134235714Y-119300057D02*
X134283333Y-119395295D01*
X134283333Y-119395295D02*
X134283333Y-119538152D01*
X134283333Y-119538152D02*
X134235714Y-119633390D01*
X134235714Y-119633390D02*
X134188095Y-119681009D01*
X134188095Y-119681009D02*
X134092857Y-119728628D01*
X134092857Y-119728628D02*
X133711905Y-119728628D01*
X135140476Y-119538152D02*
X135140476Y-120204819D01*
X134902381Y-119157200D02*
X134664286Y-119871485D01*
X134664286Y-119871485D02*
X135283333Y-119871485D01*
X163107142Y-120304819D02*
X162773809Y-119828628D01*
X162535714Y-120304819D02*
X162535714Y-119304819D01*
X162535714Y-119304819D02*
X162916666Y-119304819D01*
X162916666Y-119304819D02*
X163011904Y-119352438D01*
X163011904Y-119352438D02*
X163059523Y-119400057D01*
X163059523Y-119400057D02*
X163107142Y-119495295D01*
X163107142Y-119495295D02*
X163107142Y-119638152D01*
X163107142Y-119638152D02*
X163059523Y-119733390D01*
X163059523Y-119733390D02*
X163011904Y-119781009D01*
X163011904Y-119781009D02*
X162916666Y-119828628D01*
X162916666Y-119828628D02*
X162535714Y-119828628D01*
X164059523Y-120304819D02*
X163488095Y-120304819D01*
X163773809Y-120304819D02*
X163773809Y-119304819D01*
X163773809Y-119304819D02*
X163678571Y-119447676D01*
X163678571Y-119447676D02*
X163583333Y-119542914D01*
X163583333Y-119542914D02*
X163488095Y-119590533D01*
X164630952Y-119733390D02*
X164535714Y-119685771D01*
X164535714Y-119685771D02*
X164488095Y-119638152D01*
X164488095Y-119638152D02*
X164440476Y-119542914D01*
X164440476Y-119542914D02*
X164440476Y-119495295D01*
X164440476Y-119495295D02*
X164488095Y-119400057D01*
X164488095Y-119400057D02*
X164535714Y-119352438D01*
X164535714Y-119352438D02*
X164630952Y-119304819D01*
X164630952Y-119304819D02*
X164821428Y-119304819D01*
X164821428Y-119304819D02*
X164916666Y-119352438D01*
X164916666Y-119352438D02*
X164964285Y-119400057D01*
X164964285Y-119400057D02*
X165011904Y-119495295D01*
X165011904Y-119495295D02*
X165011904Y-119542914D01*
X165011904Y-119542914D02*
X164964285Y-119638152D01*
X164964285Y-119638152D02*
X164916666Y-119685771D01*
X164916666Y-119685771D02*
X164821428Y-119733390D01*
X164821428Y-119733390D02*
X164630952Y-119733390D01*
X164630952Y-119733390D02*
X164535714Y-119781009D01*
X164535714Y-119781009D02*
X164488095Y-119828628D01*
X164488095Y-119828628D02*
X164440476Y-119923866D01*
X164440476Y-119923866D02*
X164440476Y-120114342D01*
X164440476Y-120114342D02*
X164488095Y-120209580D01*
X164488095Y-120209580D02*
X164535714Y-120257200D01*
X164535714Y-120257200D02*
X164630952Y-120304819D01*
X164630952Y-120304819D02*
X164821428Y-120304819D01*
X164821428Y-120304819D02*
X164916666Y-120257200D01*
X164916666Y-120257200D02*
X164964285Y-120209580D01*
X164964285Y-120209580D02*
X165011904Y-120114342D01*
X165011904Y-120114342D02*
X165011904Y-119923866D01*
X165011904Y-119923866D02*
X164964285Y-119828628D01*
X164964285Y-119828628D02*
X164916666Y-119781009D01*
X164916666Y-119781009D02*
X164821428Y-119733390D01*
X49066666Y-138504819D02*
X48733333Y-138028628D01*
X48495238Y-138504819D02*
X48495238Y-137504819D01*
X48495238Y-137504819D02*
X48876190Y-137504819D01*
X48876190Y-137504819D02*
X48971428Y-137552438D01*
X48971428Y-137552438D02*
X49019047Y-137600057D01*
X49019047Y-137600057D02*
X49066666Y-137695295D01*
X49066666Y-137695295D02*
X49066666Y-137838152D01*
X49066666Y-137838152D02*
X49019047Y-137933390D01*
X49019047Y-137933390D02*
X48971428Y-137981009D01*
X48971428Y-137981009D02*
X48876190Y-138028628D01*
X48876190Y-138028628D02*
X48495238Y-138028628D01*
X49495238Y-137981009D02*
X49828571Y-137981009D01*
X49971428Y-138504819D02*
X49495238Y-138504819D01*
X49495238Y-138504819D02*
X49495238Y-137504819D01*
X49495238Y-137504819D02*
X49971428Y-137504819D01*
X50733333Y-137981009D02*
X50400000Y-137981009D01*
X50400000Y-138504819D02*
X50400000Y-137504819D01*
X50400000Y-137504819D02*
X50876190Y-137504819D01*
X51400000Y-137504819D02*
X51400000Y-137742914D01*
X51161905Y-137647676D02*
X51400000Y-137742914D01*
X51400000Y-137742914D02*
X51638095Y-137647676D01*
X51257143Y-137933390D02*
X51400000Y-137742914D01*
X51400000Y-137742914D02*
X51542857Y-137933390D01*
X52161905Y-137504819D02*
X52161905Y-137742914D01*
X51923810Y-137647676D02*
X52161905Y-137742914D01*
X52161905Y-137742914D02*
X52400000Y-137647676D01*
X52019048Y-137933390D02*
X52161905Y-137742914D01*
X52161905Y-137742914D02*
X52304762Y-137933390D01*
X148294642Y-120229819D02*
X147961309Y-119753628D01*
X147723214Y-120229819D02*
X147723214Y-119229819D01*
X147723214Y-119229819D02*
X148104166Y-119229819D01*
X148104166Y-119229819D02*
X148199404Y-119277438D01*
X148199404Y-119277438D02*
X148247023Y-119325057D01*
X148247023Y-119325057D02*
X148294642Y-119420295D01*
X148294642Y-119420295D02*
X148294642Y-119563152D01*
X148294642Y-119563152D02*
X148247023Y-119658390D01*
X148247023Y-119658390D02*
X148199404Y-119706009D01*
X148199404Y-119706009D02*
X148104166Y-119753628D01*
X148104166Y-119753628D02*
X147723214Y-119753628D01*
X148675595Y-119325057D02*
X148723214Y-119277438D01*
X148723214Y-119277438D02*
X148818452Y-119229819D01*
X148818452Y-119229819D02*
X149056547Y-119229819D01*
X149056547Y-119229819D02*
X149151785Y-119277438D01*
X149151785Y-119277438D02*
X149199404Y-119325057D01*
X149199404Y-119325057D02*
X149247023Y-119420295D01*
X149247023Y-119420295D02*
X149247023Y-119515533D01*
X149247023Y-119515533D02*
X149199404Y-119658390D01*
X149199404Y-119658390D02*
X148627976Y-120229819D01*
X148627976Y-120229819D02*
X149247023Y-120229819D01*
X149866071Y-119229819D02*
X149961309Y-119229819D01*
X149961309Y-119229819D02*
X150056547Y-119277438D01*
X150056547Y-119277438D02*
X150104166Y-119325057D01*
X150104166Y-119325057D02*
X150151785Y-119420295D01*
X150151785Y-119420295D02*
X150199404Y-119610771D01*
X150199404Y-119610771D02*
X150199404Y-119848866D01*
X150199404Y-119848866D02*
X150151785Y-120039342D01*
X150151785Y-120039342D02*
X150104166Y-120134580D01*
X150104166Y-120134580D02*
X150056547Y-120182200D01*
X150056547Y-120182200D02*
X149961309Y-120229819D01*
X149961309Y-120229819D02*
X149866071Y-120229819D01*
X149866071Y-120229819D02*
X149770833Y-120182200D01*
X149770833Y-120182200D02*
X149723214Y-120134580D01*
X149723214Y-120134580D02*
X149675595Y-120039342D01*
X149675595Y-120039342D02*
X149627976Y-119848866D01*
X149627976Y-119848866D02*
X149627976Y-119610771D01*
X149627976Y-119610771D02*
X149675595Y-119420295D01*
X149675595Y-119420295D02*
X149723214Y-119325057D01*
X149723214Y-119325057D02*
X149770833Y-119277438D01*
X149770833Y-119277438D02*
X149866071Y-119229819D01*
X115504819Y-78161904D02*
X116314342Y-78161904D01*
X116314342Y-78161904D02*
X116409580Y-78114285D01*
X116409580Y-78114285D02*
X116457200Y-78066666D01*
X116457200Y-78066666D02*
X116504819Y-77971428D01*
X116504819Y-77971428D02*
X116504819Y-77780952D01*
X116504819Y-77780952D02*
X116457200Y-77685714D01*
X116457200Y-77685714D02*
X116409580Y-77638095D01*
X116409580Y-77638095D02*
X116314342Y-77590476D01*
X116314342Y-77590476D02*
X115504819Y-77590476D01*
X116504819Y-76590476D02*
X116504819Y-77161904D01*
X116504819Y-76876190D02*
X115504819Y-76876190D01*
X115504819Y-76876190D02*
X115647676Y-76971428D01*
X115647676Y-76971428D02*
X115742914Y-77066666D01*
X115742914Y-77066666D02*
X115790533Y-77161904D01*
X62178319Y-91044333D02*
X62892604Y-91044333D01*
X62892604Y-91044333D02*
X63035461Y-91091952D01*
X63035461Y-91091952D02*
X63130700Y-91187190D01*
X63130700Y-91187190D02*
X63178319Y-91330047D01*
X63178319Y-91330047D02*
X63178319Y-91425285D01*
X62178319Y-90663380D02*
X62178319Y-90044333D01*
X62178319Y-90044333D02*
X62559271Y-90377666D01*
X62559271Y-90377666D02*
X62559271Y-90234809D01*
X62559271Y-90234809D02*
X62606890Y-90139571D01*
X62606890Y-90139571D02*
X62654509Y-90091952D01*
X62654509Y-90091952D02*
X62749747Y-90044333D01*
X62749747Y-90044333D02*
X62987842Y-90044333D01*
X62987842Y-90044333D02*
X63083080Y-90091952D01*
X63083080Y-90091952D02*
X63130700Y-90139571D01*
X63130700Y-90139571D02*
X63178319Y-90234809D01*
X63178319Y-90234809D02*
X63178319Y-90520523D01*
X63178319Y-90520523D02*
X63130700Y-90615761D01*
X63130700Y-90615761D02*
X63083080Y-90663380D01*
X119469642Y-120154819D02*
X119136309Y-119678628D01*
X118898214Y-120154819D02*
X118898214Y-119154819D01*
X118898214Y-119154819D02*
X119279166Y-119154819D01*
X119279166Y-119154819D02*
X119374404Y-119202438D01*
X119374404Y-119202438D02*
X119422023Y-119250057D01*
X119422023Y-119250057D02*
X119469642Y-119345295D01*
X119469642Y-119345295D02*
X119469642Y-119488152D01*
X119469642Y-119488152D02*
X119422023Y-119583390D01*
X119422023Y-119583390D02*
X119374404Y-119631009D01*
X119374404Y-119631009D02*
X119279166Y-119678628D01*
X119279166Y-119678628D02*
X118898214Y-119678628D01*
X120422023Y-120154819D02*
X119850595Y-120154819D01*
X120136309Y-120154819D02*
X120136309Y-119154819D01*
X120136309Y-119154819D02*
X120041071Y-119297676D01*
X120041071Y-119297676D02*
X119945833Y-119392914D01*
X119945833Y-119392914D02*
X119850595Y-119440533D01*
X121279166Y-119154819D02*
X121088690Y-119154819D01*
X121088690Y-119154819D02*
X120993452Y-119202438D01*
X120993452Y-119202438D02*
X120945833Y-119250057D01*
X120945833Y-119250057D02*
X120850595Y-119392914D01*
X120850595Y-119392914D02*
X120802976Y-119583390D01*
X120802976Y-119583390D02*
X120802976Y-119964342D01*
X120802976Y-119964342D02*
X120850595Y-120059580D01*
X120850595Y-120059580D02*
X120898214Y-120107200D01*
X120898214Y-120107200D02*
X120993452Y-120154819D01*
X120993452Y-120154819D02*
X121183928Y-120154819D01*
X121183928Y-120154819D02*
X121279166Y-120107200D01*
X121279166Y-120107200D02*
X121326785Y-120059580D01*
X121326785Y-120059580D02*
X121374404Y-119964342D01*
X121374404Y-119964342D02*
X121374404Y-119726247D01*
X121374404Y-119726247D02*
X121326785Y-119631009D01*
X121326785Y-119631009D02*
X121279166Y-119583390D01*
X121279166Y-119583390D02*
X121183928Y-119535771D01*
X121183928Y-119535771D02*
X120993452Y-119535771D01*
X120993452Y-119535771D02*
X120898214Y-119583390D01*
X120898214Y-119583390D02*
X120850595Y-119631009D01*
X120850595Y-119631009D02*
X120802976Y-119726247D01*
X149242261Y-125800057D02*
X149147023Y-125752438D01*
X149147023Y-125752438D02*
X149051785Y-125657200D01*
X149051785Y-125657200D02*
X148908928Y-125514342D01*
X148908928Y-125514342D02*
X148813690Y-125466723D01*
X148813690Y-125466723D02*
X148718452Y-125466723D01*
X148766071Y-125704819D02*
X148670833Y-125657200D01*
X148670833Y-125657200D02*
X148575595Y-125561961D01*
X148575595Y-125561961D02*
X148527976Y-125371485D01*
X148527976Y-125371485D02*
X148527976Y-125038152D01*
X148527976Y-125038152D02*
X148575595Y-124847676D01*
X148575595Y-124847676D02*
X148670833Y-124752438D01*
X148670833Y-124752438D02*
X148766071Y-124704819D01*
X148766071Y-124704819D02*
X148956547Y-124704819D01*
X148956547Y-124704819D02*
X149051785Y-124752438D01*
X149051785Y-124752438D02*
X149147023Y-124847676D01*
X149147023Y-124847676D02*
X149194642Y-125038152D01*
X149194642Y-125038152D02*
X149194642Y-125371485D01*
X149194642Y-125371485D02*
X149147023Y-125561961D01*
X149147023Y-125561961D02*
X149051785Y-125657200D01*
X149051785Y-125657200D02*
X148956547Y-125704819D01*
X148956547Y-125704819D02*
X148766071Y-125704819D01*
X149575595Y-124800057D02*
X149623214Y-124752438D01*
X149623214Y-124752438D02*
X149718452Y-124704819D01*
X149718452Y-124704819D02*
X149956547Y-124704819D01*
X149956547Y-124704819D02*
X150051785Y-124752438D01*
X150051785Y-124752438D02*
X150099404Y-124800057D01*
X150099404Y-124800057D02*
X150147023Y-124895295D01*
X150147023Y-124895295D02*
X150147023Y-124990533D01*
X150147023Y-124990533D02*
X150099404Y-125133390D01*
X150099404Y-125133390D02*
X149527976Y-125704819D01*
X149527976Y-125704819D02*
X150147023Y-125704819D01*
X135389580Y-79116666D02*
X135437200Y-79164285D01*
X135437200Y-79164285D02*
X135484819Y-79307142D01*
X135484819Y-79307142D02*
X135484819Y-79402380D01*
X135484819Y-79402380D02*
X135437200Y-79545237D01*
X135437200Y-79545237D02*
X135341961Y-79640475D01*
X135341961Y-79640475D02*
X135246723Y-79688094D01*
X135246723Y-79688094D02*
X135056247Y-79735713D01*
X135056247Y-79735713D02*
X134913390Y-79735713D01*
X134913390Y-79735713D02*
X134722914Y-79688094D01*
X134722914Y-79688094D02*
X134627676Y-79640475D01*
X134627676Y-79640475D02*
X134532438Y-79545237D01*
X134532438Y-79545237D02*
X134484819Y-79402380D01*
X134484819Y-79402380D02*
X134484819Y-79307142D01*
X134484819Y-79307142D02*
X134532438Y-79164285D01*
X134532438Y-79164285D02*
X134580057Y-79116666D01*
X134484819Y-78211904D02*
X134484819Y-78688094D01*
X134484819Y-78688094D02*
X134961009Y-78735713D01*
X134961009Y-78735713D02*
X134913390Y-78688094D01*
X134913390Y-78688094D02*
X134865771Y-78592856D01*
X134865771Y-78592856D02*
X134865771Y-78354761D01*
X134865771Y-78354761D02*
X134913390Y-78259523D01*
X134913390Y-78259523D02*
X134961009Y-78211904D01*
X134961009Y-78211904D02*
X135056247Y-78164285D01*
X135056247Y-78164285D02*
X135294342Y-78164285D01*
X135294342Y-78164285D02*
X135389580Y-78211904D01*
X135389580Y-78211904D02*
X135437200Y-78259523D01*
X135437200Y-78259523D02*
X135484819Y-78354761D01*
X135484819Y-78354761D02*
X135484819Y-78592856D01*
X135484819Y-78592856D02*
X135437200Y-78688094D01*
X135437200Y-78688094D02*
X135389580Y-78735713D01*
X132024819Y-59642857D02*
X131548628Y-59976190D01*
X132024819Y-60214285D02*
X131024819Y-60214285D01*
X131024819Y-60214285D02*
X131024819Y-59833333D01*
X131024819Y-59833333D02*
X131072438Y-59738095D01*
X131072438Y-59738095D02*
X131120057Y-59690476D01*
X131120057Y-59690476D02*
X131215295Y-59642857D01*
X131215295Y-59642857D02*
X131358152Y-59642857D01*
X131358152Y-59642857D02*
X131453390Y-59690476D01*
X131453390Y-59690476D02*
X131501009Y-59738095D01*
X131501009Y-59738095D02*
X131548628Y-59833333D01*
X131548628Y-59833333D02*
X131548628Y-60214285D01*
X132024819Y-58690476D02*
X132024819Y-59261904D01*
X132024819Y-58976190D02*
X131024819Y-58976190D01*
X131024819Y-58976190D02*
X131167676Y-59071428D01*
X131167676Y-59071428D02*
X131262914Y-59166666D01*
X131262914Y-59166666D02*
X131310533Y-59261904D01*
X131120057Y-58309523D02*
X131072438Y-58261904D01*
X131072438Y-58261904D02*
X131024819Y-58166666D01*
X131024819Y-58166666D02*
X131024819Y-57928571D01*
X131024819Y-57928571D02*
X131072438Y-57833333D01*
X131072438Y-57833333D02*
X131120057Y-57785714D01*
X131120057Y-57785714D02*
X131215295Y-57738095D01*
X131215295Y-57738095D02*
X131310533Y-57738095D01*
X131310533Y-57738095D02*
X131453390Y-57785714D01*
X131453390Y-57785714D02*
X132024819Y-58357142D01*
X132024819Y-58357142D02*
X132024819Y-57738095D01*
X127283333Y-120204819D02*
X126950000Y-119728628D01*
X126711905Y-120204819D02*
X126711905Y-119204819D01*
X126711905Y-119204819D02*
X127092857Y-119204819D01*
X127092857Y-119204819D02*
X127188095Y-119252438D01*
X127188095Y-119252438D02*
X127235714Y-119300057D01*
X127235714Y-119300057D02*
X127283333Y-119395295D01*
X127283333Y-119395295D02*
X127283333Y-119538152D01*
X127283333Y-119538152D02*
X127235714Y-119633390D01*
X127235714Y-119633390D02*
X127188095Y-119681009D01*
X127188095Y-119681009D02*
X127092857Y-119728628D01*
X127092857Y-119728628D02*
X126711905Y-119728628D01*
X128235714Y-120204819D02*
X127664286Y-120204819D01*
X127950000Y-120204819D02*
X127950000Y-119204819D01*
X127950000Y-119204819D02*
X127854762Y-119347676D01*
X127854762Y-119347676D02*
X127759524Y-119442914D01*
X127759524Y-119442914D02*
X127664286Y-119490533D01*
X129954819Y-115429166D02*
X129478628Y-115762499D01*
X129954819Y-116000594D02*
X128954819Y-116000594D01*
X128954819Y-116000594D02*
X128954819Y-115619642D01*
X128954819Y-115619642D02*
X129002438Y-115524404D01*
X129002438Y-115524404D02*
X129050057Y-115476785D01*
X129050057Y-115476785D02*
X129145295Y-115429166D01*
X129145295Y-115429166D02*
X129288152Y-115429166D01*
X129288152Y-115429166D02*
X129383390Y-115476785D01*
X129383390Y-115476785D02*
X129431009Y-115524404D01*
X129431009Y-115524404D02*
X129478628Y-115619642D01*
X129478628Y-115619642D02*
X129478628Y-116000594D01*
X128954819Y-114524404D02*
X128954819Y-115000594D01*
X128954819Y-115000594D02*
X129431009Y-115048213D01*
X129431009Y-115048213D02*
X129383390Y-115000594D01*
X129383390Y-115000594D02*
X129335771Y-114905356D01*
X129335771Y-114905356D02*
X129335771Y-114667261D01*
X129335771Y-114667261D02*
X129383390Y-114572023D01*
X129383390Y-114572023D02*
X129431009Y-114524404D01*
X129431009Y-114524404D02*
X129526247Y-114476785D01*
X129526247Y-114476785D02*
X129764342Y-114476785D01*
X129764342Y-114476785D02*
X129859580Y-114524404D01*
X129859580Y-114524404D02*
X129907200Y-114572023D01*
X129907200Y-114572023D02*
X129954819Y-114667261D01*
X129954819Y-114667261D02*
X129954819Y-114905356D01*
X129954819Y-114905356D02*
X129907200Y-115000594D01*
X129907200Y-115000594D02*
X129859580Y-115048213D01*
X156054819Y-82592857D02*
X155578628Y-82926190D01*
X156054819Y-83164285D02*
X155054819Y-83164285D01*
X155054819Y-83164285D02*
X155054819Y-82783333D01*
X155054819Y-82783333D02*
X155102438Y-82688095D01*
X155102438Y-82688095D02*
X155150057Y-82640476D01*
X155150057Y-82640476D02*
X155245295Y-82592857D01*
X155245295Y-82592857D02*
X155388152Y-82592857D01*
X155388152Y-82592857D02*
X155483390Y-82640476D01*
X155483390Y-82640476D02*
X155531009Y-82688095D01*
X155531009Y-82688095D02*
X155578628Y-82783333D01*
X155578628Y-82783333D02*
X155578628Y-83164285D01*
X156054819Y-81640476D02*
X156054819Y-82211904D01*
X156054819Y-81926190D02*
X155054819Y-81926190D01*
X155054819Y-81926190D02*
X155197676Y-82021428D01*
X155197676Y-82021428D02*
X155292914Y-82116666D01*
X155292914Y-82116666D02*
X155340533Y-82211904D01*
X155388152Y-80783333D02*
X156054819Y-80783333D01*
X155007200Y-81021428D02*
X155721485Y-81259523D01*
X155721485Y-81259523D02*
X155721485Y-80640476D01*
X141533333Y-120204819D02*
X141200000Y-119728628D01*
X140961905Y-120204819D02*
X140961905Y-119204819D01*
X140961905Y-119204819D02*
X141342857Y-119204819D01*
X141342857Y-119204819D02*
X141438095Y-119252438D01*
X141438095Y-119252438D02*
X141485714Y-119300057D01*
X141485714Y-119300057D02*
X141533333Y-119395295D01*
X141533333Y-119395295D02*
X141533333Y-119538152D01*
X141533333Y-119538152D02*
X141485714Y-119633390D01*
X141485714Y-119633390D02*
X141438095Y-119681009D01*
X141438095Y-119681009D02*
X141342857Y-119728628D01*
X141342857Y-119728628D02*
X140961905Y-119728628D01*
X142390476Y-119204819D02*
X142200000Y-119204819D01*
X142200000Y-119204819D02*
X142104762Y-119252438D01*
X142104762Y-119252438D02*
X142057143Y-119300057D01*
X142057143Y-119300057D02*
X141961905Y-119442914D01*
X141961905Y-119442914D02*
X141914286Y-119633390D01*
X141914286Y-119633390D02*
X141914286Y-120014342D01*
X141914286Y-120014342D02*
X141961905Y-120109580D01*
X141961905Y-120109580D02*
X142009524Y-120157200D01*
X142009524Y-120157200D02*
X142104762Y-120204819D01*
X142104762Y-120204819D02*
X142295238Y-120204819D01*
X142295238Y-120204819D02*
X142390476Y-120157200D01*
X142390476Y-120157200D02*
X142438095Y-120109580D01*
X142438095Y-120109580D02*
X142485714Y-120014342D01*
X142485714Y-120014342D02*
X142485714Y-119776247D01*
X142485714Y-119776247D02*
X142438095Y-119681009D01*
X142438095Y-119681009D02*
X142390476Y-119633390D01*
X142390476Y-119633390D02*
X142295238Y-119585771D01*
X142295238Y-119585771D02*
X142104762Y-119585771D01*
X142104762Y-119585771D02*
X142009524Y-119633390D01*
X142009524Y-119633390D02*
X141961905Y-119681009D01*
X141961905Y-119681009D02*
X141914286Y-119776247D01*
X162467261Y-126100057D02*
X162372023Y-126052438D01*
X162372023Y-126052438D02*
X162276785Y-125957200D01*
X162276785Y-125957200D02*
X162133928Y-125814342D01*
X162133928Y-125814342D02*
X162038690Y-125766723D01*
X162038690Y-125766723D02*
X161943452Y-125766723D01*
X161991071Y-126004819D02*
X161895833Y-125957200D01*
X161895833Y-125957200D02*
X161800595Y-125861961D01*
X161800595Y-125861961D02*
X161752976Y-125671485D01*
X161752976Y-125671485D02*
X161752976Y-125338152D01*
X161752976Y-125338152D02*
X161800595Y-125147676D01*
X161800595Y-125147676D02*
X161895833Y-125052438D01*
X161895833Y-125052438D02*
X161991071Y-125004819D01*
X161991071Y-125004819D02*
X162181547Y-125004819D01*
X162181547Y-125004819D02*
X162276785Y-125052438D01*
X162276785Y-125052438D02*
X162372023Y-125147676D01*
X162372023Y-125147676D02*
X162419642Y-125338152D01*
X162419642Y-125338152D02*
X162419642Y-125671485D01*
X162419642Y-125671485D02*
X162372023Y-125861961D01*
X162372023Y-125861961D02*
X162276785Y-125957200D01*
X162276785Y-125957200D02*
X162181547Y-126004819D01*
X162181547Y-126004819D02*
X161991071Y-126004819D01*
X162752976Y-125004819D02*
X163372023Y-125004819D01*
X163372023Y-125004819D02*
X163038690Y-125385771D01*
X163038690Y-125385771D02*
X163181547Y-125385771D01*
X163181547Y-125385771D02*
X163276785Y-125433390D01*
X163276785Y-125433390D02*
X163324404Y-125481009D01*
X163324404Y-125481009D02*
X163372023Y-125576247D01*
X163372023Y-125576247D02*
X163372023Y-125814342D01*
X163372023Y-125814342D02*
X163324404Y-125909580D01*
X163324404Y-125909580D02*
X163276785Y-125957200D01*
X163276785Y-125957200D02*
X163181547Y-126004819D01*
X163181547Y-126004819D02*
X162895833Y-126004819D01*
X162895833Y-126004819D02*
X162800595Y-125957200D01*
X162800595Y-125957200D02*
X162752976Y-125909580D01*
X147406666Y-129684819D02*
X147406666Y-130399104D01*
X147406666Y-130399104D02*
X147359047Y-130541961D01*
X147359047Y-130541961D02*
X147263809Y-130637200D01*
X147263809Y-130637200D02*
X147120952Y-130684819D01*
X147120952Y-130684819D02*
X147025714Y-130684819D01*
X147930476Y-130684819D02*
X148120952Y-130684819D01*
X148120952Y-130684819D02*
X148216190Y-130637200D01*
X148216190Y-130637200D02*
X148263809Y-130589580D01*
X148263809Y-130589580D02*
X148359047Y-130446723D01*
X148359047Y-130446723D02*
X148406666Y-130256247D01*
X148406666Y-130256247D02*
X148406666Y-129875295D01*
X148406666Y-129875295D02*
X148359047Y-129780057D01*
X148359047Y-129780057D02*
X148311428Y-129732438D01*
X148311428Y-129732438D02*
X148216190Y-129684819D01*
X148216190Y-129684819D02*
X148025714Y-129684819D01*
X148025714Y-129684819D02*
X147930476Y-129732438D01*
X147930476Y-129732438D02*
X147882857Y-129780057D01*
X147882857Y-129780057D02*
X147835238Y-129875295D01*
X147835238Y-129875295D02*
X147835238Y-130113390D01*
X147835238Y-130113390D02*
X147882857Y-130208628D01*
X147882857Y-130208628D02*
X147930476Y-130256247D01*
X147930476Y-130256247D02*
X148025714Y-130303866D01*
X148025714Y-130303866D02*
X148216190Y-130303866D01*
X148216190Y-130303866D02*
X148311428Y-130256247D01*
X148311428Y-130256247D02*
X148359047Y-130208628D01*
X148359047Y-130208628D02*
X148406666Y-130113390D01*
X110008152Y-92519881D02*
X111008152Y-92519881D01*
X110055771Y-92519881D02*
X110008152Y-92424643D01*
X110008152Y-92424643D02*
X110008152Y-92234167D01*
X110008152Y-92234167D02*
X110055771Y-92138929D01*
X110055771Y-92138929D02*
X110103390Y-92091310D01*
X110103390Y-92091310D02*
X110198628Y-92043691D01*
X110198628Y-92043691D02*
X110484342Y-92043691D01*
X110484342Y-92043691D02*
X110579580Y-92091310D01*
X110579580Y-92091310D02*
X110627200Y-92138929D01*
X110627200Y-92138929D02*
X110674819Y-92234167D01*
X110674819Y-92234167D02*
X110674819Y-92424643D01*
X110674819Y-92424643D02*
X110627200Y-92519881D01*
X110008152Y-91186548D02*
X110674819Y-91186548D01*
X110008152Y-91615119D02*
X110531961Y-91615119D01*
X110531961Y-91615119D02*
X110627200Y-91567500D01*
X110627200Y-91567500D02*
X110674819Y-91472262D01*
X110674819Y-91472262D02*
X110674819Y-91329405D01*
X110674819Y-91329405D02*
X110627200Y-91234167D01*
X110627200Y-91234167D02*
X110579580Y-91186548D01*
X110674819Y-90567500D02*
X110627200Y-90662738D01*
X110627200Y-90662738D02*
X110531961Y-90710357D01*
X110531961Y-90710357D02*
X109674819Y-90710357D01*
X110674819Y-90043690D02*
X110627200Y-90138928D01*
X110627200Y-90138928D02*
X110531961Y-90186547D01*
X110531961Y-90186547D02*
X109674819Y-90186547D01*
X110770057Y-89900833D02*
X110770057Y-89138928D01*
X110627200Y-88948451D02*
X110674819Y-88805594D01*
X110674819Y-88805594D02*
X110674819Y-88567499D01*
X110674819Y-88567499D02*
X110627200Y-88472261D01*
X110627200Y-88472261D02*
X110579580Y-88424642D01*
X110579580Y-88424642D02*
X110484342Y-88377023D01*
X110484342Y-88377023D02*
X110389104Y-88377023D01*
X110389104Y-88377023D02*
X110293866Y-88424642D01*
X110293866Y-88424642D02*
X110246247Y-88472261D01*
X110246247Y-88472261D02*
X110198628Y-88567499D01*
X110198628Y-88567499D02*
X110151009Y-88757975D01*
X110151009Y-88757975D02*
X110103390Y-88853213D01*
X110103390Y-88853213D02*
X110055771Y-88900832D01*
X110055771Y-88900832D02*
X109960533Y-88948451D01*
X109960533Y-88948451D02*
X109865295Y-88948451D01*
X109865295Y-88948451D02*
X109770057Y-88900832D01*
X109770057Y-88900832D02*
X109722438Y-88853213D01*
X109722438Y-88853213D02*
X109674819Y-88757975D01*
X109674819Y-88757975D02*
X109674819Y-88519880D01*
X109674819Y-88519880D02*
X109722438Y-88377023D01*
X110674819Y-87948451D02*
X109674819Y-87948451D01*
X109674819Y-87948451D02*
X109674819Y-87710356D01*
X109674819Y-87710356D02*
X109722438Y-87567499D01*
X109722438Y-87567499D02*
X109817676Y-87472261D01*
X109817676Y-87472261D02*
X109912914Y-87424642D01*
X109912914Y-87424642D02*
X110103390Y-87377023D01*
X110103390Y-87377023D02*
X110246247Y-87377023D01*
X110246247Y-87377023D02*
X110436723Y-87424642D01*
X110436723Y-87424642D02*
X110531961Y-87472261D01*
X110531961Y-87472261D02*
X110627200Y-87567499D01*
X110627200Y-87567499D02*
X110674819Y-87710356D01*
X110674819Y-87710356D02*
X110674819Y-87948451D01*
X110389104Y-86996070D02*
X110389104Y-86519880D01*
X110674819Y-87091308D02*
X109674819Y-86757975D01*
X109674819Y-86757975D02*
X110674819Y-86424642D01*
X109770057Y-86138927D02*
X109722438Y-86091308D01*
X109722438Y-86091308D02*
X109674819Y-85996070D01*
X109674819Y-85996070D02*
X109674819Y-85757975D01*
X109674819Y-85757975D02*
X109722438Y-85662737D01*
X109722438Y-85662737D02*
X109770057Y-85615118D01*
X109770057Y-85615118D02*
X109865295Y-85567499D01*
X109865295Y-85567499D02*
X109960533Y-85567499D01*
X109960533Y-85567499D02*
X110103390Y-85615118D01*
X110103390Y-85615118D02*
X110674819Y-86186546D01*
X110674819Y-86186546D02*
X110674819Y-85567499D01*
X161166667Y-79857200D02*
X161309524Y-79904819D01*
X161309524Y-79904819D02*
X161547619Y-79904819D01*
X161547619Y-79904819D02*
X161642857Y-79857200D01*
X161642857Y-79857200D02*
X161690476Y-79809580D01*
X161690476Y-79809580D02*
X161738095Y-79714342D01*
X161738095Y-79714342D02*
X161738095Y-79619104D01*
X161738095Y-79619104D02*
X161690476Y-79523866D01*
X161690476Y-79523866D02*
X161642857Y-79476247D01*
X161642857Y-79476247D02*
X161547619Y-79428628D01*
X161547619Y-79428628D02*
X161357143Y-79381009D01*
X161357143Y-79381009D02*
X161261905Y-79333390D01*
X161261905Y-79333390D02*
X161214286Y-79285771D01*
X161214286Y-79285771D02*
X161166667Y-79190533D01*
X161166667Y-79190533D02*
X161166667Y-79095295D01*
X161166667Y-79095295D02*
X161214286Y-79000057D01*
X161214286Y-79000057D02*
X161261905Y-78952438D01*
X161261905Y-78952438D02*
X161357143Y-78904819D01*
X161357143Y-78904819D02*
X161595238Y-78904819D01*
X161595238Y-78904819D02*
X161738095Y-78952438D01*
X162071429Y-78904819D02*
X162309524Y-79904819D01*
X162309524Y-79904819D02*
X162500000Y-79190533D01*
X162500000Y-79190533D02*
X162690476Y-79904819D01*
X162690476Y-79904819D02*
X162928572Y-78904819D01*
X163833333Y-79904819D02*
X163261905Y-79904819D01*
X163547619Y-79904819D02*
X163547619Y-78904819D01*
X163547619Y-78904819D02*
X163452381Y-79047676D01*
X163452381Y-79047676D02*
X163357143Y-79142914D01*
X163357143Y-79142914D02*
X163261905Y-79190533D01*
X62460819Y-60304094D02*
X61460819Y-60304094D01*
X61460819Y-60304094D02*
X61460819Y-60065999D01*
X61460819Y-60065999D02*
X61508438Y-59923142D01*
X61508438Y-59923142D02*
X61603676Y-59827904D01*
X61603676Y-59827904D02*
X61698914Y-59780285D01*
X61698914Y-59780285D02*
X61889390Y-59732666D01*
X61889390Y-59732666D02*
X62032247Y-59732666D01*
X62032247Y-59732666D02*
X62222723Y-59780285D01*
X62222723Y-59780285D02*
X62317961Y-59827904D01*
X62317961Y-59827904D02*
X62413200Y-59923142D01*
X62413200Y-59923142D02*
X62460819Y-60065999D01*
X62460819Y-60065999D02*
X62460819Y-60304094D01*
X61460819Y-58875523D02*
X61460819Y-59065999D01*
X61460819Y-59065999D02*
X61508438Y-59161237D01*
X61508438Y-59161237D02*
X61556057Y-59208856D01*
X61556057Y-59208856D02*
X61698914Y-59304094D01*
X61698914Y-59304094D02*
X61889390Y-59351713D01*
X61889390Y-59351713D02*
X62270342Y-59351713D01*
X62270342Y-59351713D02*
X62365580Y-59304094D01*
X62365580Y-59304094D02*
X62413200Y-59256475D01*
X62413200Y-59256475D02*
X62460819Y-59161237D01*
X62460819Y-59161237D02*
X62460819Y-58970761D01*
X62460819Y-58970761D02*
X62413200Y-58875523D01*
X62413200Y-58875523D02*
X62365580Y-58827904D01*
X62365580Y-58827904D02*
X62270342Y-58780285D01*
X62270342Y-58780285D02*
X62032247Y-58780285D01*
X62032247Y-58780285D02*
X61937009Y-58827904D01*
X61937009Y-58827904D02*
X61889390Y-58875523D01*
X61889390Y-58875523D02*
X61841771Y-58970761D01*
X61841771Y-58970761D02*
X61841771Y-59161237D01*
X61841771Y-59161237D02*
X61889390Y-59256475D01*
X61889390Y-59256475D02*
X61937009Y-59304094D01*
X61937009Y-59304094D02*
X62032247Y-59351713D01*
X63580819Y-67447904D02*
X62580819Y-67447904D01*
X63580819Y-66876476D02*
X63009390Y-67305047D01*
X62580819Y-66876476D02*
X63152247Y-67447904D01*
X175417261Y-126100057D02*
X175322023Y-126052438D01*
X175322023Y-126052438D02*
X175226785Y-125957200D01*
X175226785Y-125957200D02*
X175083928Y-125814342D01*
X175083928Y-125814342D02*
X174988690Y-125766723D01*
X174988690Y-125766723D02*
X174893452Y-125766723D01*
X174941071Y-126004819D02*
X174845833Y-125957200D01*
X174845833Y-125957200D02*
X174750595Y-125861961D01*
X174750595Y-125861961D02*
X174702976Y-125671485D01*
X174702976Y-125671485D02*
X174702976Y-125338152D01*
X174702976Y-125338152D02*
X174750595Y-125147676D01*
X174750595Y-125147676D02*
X174845833Y-125052438D01*
X174845833Y-125052438D02*
X174941071Y-125004819D01*
X174941071Y-125004819D02*
X175131547Y-125004819D01*
X175131547Y-125004819D02*
X175226785Y-125052438D01*
X175226785Y-125052438D02*
X175322023Y-125147676D01*
X175322023Y-125147676D02*
X175369642Y-125338152D01*
X175369642Y-125338152D02*
X175369642Y-125671485D01*
X175369642Y-125671485D02*
X175322023Y-125861961D01*
X175322023Y-125861961D02*
X175226785Y-125957200D01*
X175226785Y-125957200D02*
X175131547Y-126004819D01*
X175131547Y-126004819D02*
X174941071Y-126004819D01*
X176274404Y-125004819D02*
X175798214Y-125004819D01*
X175798214Y-125004819D02*
X175750595Y-125481009D01*
X175750595Y-125481009D02*
X175798214Y-125433390D01*
X175798214Y-125433390D02*
X175893452Y-125385771D01*
X175893452Y-125385771D02*
X176131547Y-125385771D01*
X176131547Y-125385771D02*
X176226785Y-125433390D01*
X176226785Y-125433390D02*
X176274404Y-125481009D01*
X176274404Y-125481009D02*
X176322023Y-125576247D01*
X176322023Y-125576247D02*
X176322023Y-125814342D01*
X176322023Y-125814342D02*
X176274404Y-125909580D01*
X176274404Y-125909580D02*
X176226785Y-125957200D01*
X176226785Y-125957200D02*
X176131547Y-126004819D01*
X176131547Y-126004819D02*
X175893452Y-126004819D01*
X175893452Y-126004819D02*
X175798214Y-125957200D01*
X175798214Y-125957200D02*
X175750595Y-125909580D01*
X190632200Y-49883332D02*
X190679819Y-49740475D01*
X190679819Y-49740475D02*
X190679819Y-49502380D01*
X190679819Y-49502380D02*
X190632200Y-49407142D01*
X190632200Y-49407142D02*
X190584580Y-49359523D01*
X190584580Y-49359523D02*
X190489342Y-49311904D01*
X190489342Y-49311904D02*
X190394104Y-49311904D01*
X190394104Y-49311904D02*
X190298866Y-49359523D01*
X190298866Y-49359523D02*
X190251247Y-49407142D01*
X190251247Y-49407142D02*
X190203628Y-49502380D01*
X190203628Y-49502380D02*
X190156009Y-49692856D01*
X190156009Y-49692856D02*
X190108390Y-49788094D01*
X190108390Y-49788094D02*
X190060771Y-49835713D01*
X190060771Y-49835713D02*
X189965533Y-49883332D01*
X189965533Y-49883332D02*
X189870295Y-49883332D01*
X189870295Y-49883332D02*
X189775057Y-49835713D01*
X189775057Y-49835713D02*
X189727438Y-49788094D01*
X189727438Y-49788094D02*
X189679819Y-49692856D01*
X189679819Y-49692856D02*
X189679819Y-49454761D01*
X189679819Y-49454761D02*
X189727438Y-49311904D01*
X189679819Y-48978570D02*
X190679819Y-48740475D01*
X190679819Y-48740475D02*
X189965533Y-48549999D01*
X189965533Y-48549999D02*
X190679819Y-48359523D01*
X190679819Y-48359523D02*
X189679819Y-48121428D01*
X189679819Y-47835713D02*
X189679819Y-47216666D01*
X189679819Y-47216666D02*
X190060771Y-47549999D01*
X190060771Y-47549999D02*
X190060771Y-47407142D01*
X190060771Y-47407142D02*
X190108390Y-47311904D01*
X190108390Y-47311904D02*
X190156009Y-47264285D01*
X190156009Y-47264285D02*
X190251247Y-47216666D01*
X190251247Y-47216666D02*
X190489342Y-47216666D01*
X190489342Y-47216666D02*
X190584580Y-47264285D01*
X190584580Y-47264285D02*
X190632200Y-47311904D01*
X190632200Y-47311904D02*
X190679819Y-47407142D01*
X190679819Y-47407142D02*
X190679819Y-47692856D01*
X190679819Y-47692856D02*
X190632200Y-47788094D01*
X190632200Y-47788094D02*
X190584580Y-47835713D01*
X110016666Y-56470150D02*
X110016666Y-57184435D01*
X110016666Y-57184435D02*
X109969047Y-57327292D01*
X109969047Y-57327292D02*
X109873809Y-57422531D01*
X109873809Y-57422531D02*
X109730952Y-57470150D01*
X109730952Y-57470150D02*
X109635714Y-57470150D01*
X110969047Y-56470150D02*
X110492857Y-56470150D01*
X110492857Y-56470150D02*
X110445238Y-56946340D01*
X110445238Y-56946340D02*
X110492857Y-56898721D01*
X110492857Y-56898721D02*
X110588095Y-56851102D01*
X110588095Y-56851102D02*
X110826190Y-56851102D01*
X110826190Y-56851102D02*
X110921428Y-56898721D01*
X110921428Y-56898721D02*
X110969047Y-56946340D01*
X110969047Y-56946340D02*
X111016666Y-57041578D01*
X111016666Y-57041578D02*
X111016666Y-57279673D01*
X111016666Y-57279673D02*
X110969047Y-57374911D01*
X110969047Y-57374911D02*
X110921428Y-57422531D01*
X110921428Y-57422531D02*
X110826190Y-57470150D01*
X110826190Y-57470150D02*
X110588095Y-57470150D01*
X110588095Y-57470150D02*
X110492857Y-57422531D01*
X110492857Y-57422531D02*
X110445238Y-57374911D01*
X100605819Y-61439094D02*
X99605819Y-61439094D01*
X99605819Y-61439094D02*
X99605819Y-61200999D01*
X99605819Y-61200999D02*
X99653438Y-61058142D01*
X99653438Y-61058142D02*
X99748676Y-60962904D01*
X99748676Y-60962904D02*
X99843914Y-60915285D01*
X99843914Y-60915285D02*
X100034390Y-60867666D01*
X100034390Y-60867666D02*
X100177247Y-60867666D01*
X100177247Y-60867666D02*
X100367723Y-60915285D01*
X100367723Y-60915285D02*
X100462961Y-60962904D01*
X100462961Y-60962904D02*
X100558200Y-61058142D01*
X100558200Y-61058142D02*
X100605819Y-61200999D01*
X100605819Y-61200999D02*
X100605819Y-61439094D01*
X100034390Y-60296237D02*
X99986771Y-60391475D01*
X99986771Y-60391475D02*
X99939152Y-60439094D01*
X99939152Y-60439094D02*
X99843914Y-60486713D01*
X99843914Y-60486713D02*
X99796295Y-60486713D01*
X99796295Y-60486713D02*
X99701057Y-60439094D01*
X99701057Y-60439094D02*
X99653438Y-60391475D01*
X99653438Y-60391475D02*
X99605819Y-60296237D01*
X99605819Y-60296237D02*
X99605819Y-60105761D01*
X99605819Y-60105761D02*
X99653438Y-60010523D01*
X99653438Y-60010523D02*
X99701057Y-59962904D01*
X99701057Y-59962904D02*
X99796295Y-59915285D01*
X99796295Y-59915285D02*
X99843914Y-59915285D01*
X99843914Y-59915285D02*
X99939152Y-59962904D01*
X99939152Y-59962904D02*
X99986771Y-60010523D01*
X99986771Y-60010523D02*
X100034390Y-60105761D01*
X100034390Y-60105761D02*
X100034390Y-60296237D01*
X100034390Y-60296237D02*
X100082009Y-60391475D01*
X100082009Y-60391475D02*
X100129628Y-60439094D01*
X100129628Y-60439094D02*
X100224866Y-60486713D01*
X100224866Y-60486713D02*
X100415342Y-60486713D01*
X100415342Y-60486713D02*
X100510580Y-60439094D01*
X100510580Y-60439094D02*
X100558200Y-60391475D01*
X100558200Y-60391475D02*
X100605819Y-60296237D01*
X100605819Y-60296237D02*
X100605819Y-60105761D01*
X100605819Y-60105761D02*
X100558200Y-60010523D01*
X100558200Y-60010523D02*
X100510580Y-59962904D01*
X100510580Y-59962904D02*
X100415342Y-59915285D01*
X100415342Y-59915285D02*
X100224866Y-59915285D01*
X100224866Y-59915285D02*
X100129628Y-59962904D01*
X100129628Y-59962904D02*
X100082009Y-60010523D01*
X100082009Y-60010523D02*
X100034390Y-60105761D01*
X99485819Y-53342904D02*
X98485819Y-53342904D01*
X99485819Y-52771476D02*
X98914390Y-53200047D01*
X98485819Y-52771476D02*
X99057247Y-53342904D01*
X73261905Y-130874819D02*
X73261905Y-129874819D01*
X73261905Y-129874819D02*
X73500000Y-129874819D01*
X73500000Y-129874819D02*
X73642857Y-129922438D01*
X73642857Y-129922438D02*
X73738095Y-130017676D01*
X73738095Y-130017676D02*
X73785714Y-130112914D01*
X73785714Y-130112914D02*
X73833333Y-130303390D01*
X73833333Y-130303390D02*
X73833333Y-130446247D01*
X73833333Y-130446247D02*
X73785714Y-130636723D01*
X73785714Y-130636723D02*
X73738095Y-130731961D01*
X73738095Y-130731961D02*
X73642857Y-130827200D01*
X73642857Y-130827200D02*
X73500000Y-130874819D01*
X73500000Y-130874819D02*
X73261905Y-130874819D01*
X74690476Y-130208152D02*
X74690476Y-130874819D01*
X74452381Y-129827200D02*
X74214286Y-130541485D01*
X74214286Y-130541485D02*
X74833333Y-130541485D01*
X81358095Y-129754819D02*
X81358095Y-128754819D01*
X81929523Y-129754819D02*
X81500952Y-129183390D01*
X81929523Y-128754819D02*
X81358095Y-129326247D01*
X73161905Y-139174819D02*
X73161905Y-138174819D01*
X73161905Y-138174819D02*
X73400000Y-138174819D01*
X73400000Y-138174819D02*
X73542857Y-138222438D01*
X73542857Y-138222438D02*
X73638095Y-138317676D01*
X73638095Y-138317676D02*
X73685714Y-138412914D01*
X73685714Y-138412914D02*
X73733333Y-138603390D01*
X73733333Y-138603390D02*
X73733333Y-138746247D01*
X73733333Y-138746247D02*
X73685714Y-138936723D01*
X73685714Y-138936723D02*
X73638095Y-139031961D01*
X73638095Y-139031961D02*
X73542857Y-139127200D01*
X73542857Y-139127200D02*
X73400000Y-139174819D01*
X73400000Y-139174819D02*
X73161905Y-139174819D01*
X74685714Y-139174819D02*
X74114286Y-139174819D01*
X74400000Y-139174819D02*
X74400000Y-138174819D01*
X74400000Y-138174819D02*
X74304762Y-138317676D01*
X74304762Y-138317676D02*
X74209524Y-138412914D01*
X74209524Y-138412914D02*
X74114286Y-138460533D01*
X81258095Y-138054819D02*
X81258095Y-137054819D01*
X81829523Y-138054819D02*
X81400952Y-137483390D01*
X81829523Y-137054819D02*
X81258095Y-137626247D01*
X135233333Y-68379580D02*
X135185714Y-68427200D01*
X135185714Y-68427200D02*
X135042857Y-68474819D01*
X135042857Y-68474819D02*
X134947619Y-68474819D01*
X134947619Y-68474819D02*
X134804762Y-68427200D01*
X134804762Y-68427200D02*
X134709524Y-68331961D01*
X134709524Y-68331961D02*
X134661905Y-68236723D01*
X134661905Y-68236723D02*
X134614286Y-68046247D01*
X134614286Y-68046247D02*
X134614286Y-67903390D01*
X134614286Y-67903390D02*
X134661905Y-67712914D01*
X134661905Y-67712914D02*
X134709524Y-67617676D01*
X134709524Y-67617676D02*
X134804762Y-67522438D01*
X134804762Y-67522438D02*
X134947619Y-67474819D01*
X134947619Y-67474819D02*
X135042857Y-67474819D01*
X135042857Y-67474819D02*
X135185714Y-67522438D01*
X135185714Y-67522438D02*
X135233333Y-67570057D01*
X135566667Y-67474819D02*
X136233333Y-67474819D01*
X136233333Y-67474819D02*
X135804762Y-68474819D01*
X180672557Y-106560238D02*
X180624938Y-106655476D01*
X180624938Y-106655476D02*
X180529700Y-106750714D01*
X180529700Y-106750714D02*
X180386842Y-106893571D01*
X180386842Y-106893571D02*
X180339223Y-106988809D01*
X180339223Y-106988809D02*
X180339223Y-107084047D01*
X180577319Y-107036428D02*
X180529700Y-107131666D01*
X180529700Y-107131666D02*
X180434461Y-107226904D01*
X180434461Y-107226904D02*
X180243985Y-107274523D01*
X180243985Y-107274523D02*
X179910652Y-107274523D01*
X179910652Y-107274523D02*
X179720176Y-107226904D01*
X179720176Y-107226904D02*
X179624938Y-107131666D01*
X179624938Y-107131666D02*
X179577319Y-107036428D01*
X179577319Y-107036428D02*
X179577319Y-106845952D01*
X179577319Y-106845952D02*
X179624938Y-106750714D01*
X179624938Y-106750714D02*
X179720176Y-106655476D01*
X179720176Y-106655476D02*
X179910652Y-106607857D01*
X179910652Y-106607857D02*
X180243985Y-106607857D01*
X180243985Y-106607857D02*
X180434461Y-106655476D01*
X180434461Y-106655476D02*
X180529700Y-106750714D01*
X180529700Y-106750714D02*
X180577319Y-106845952D01*
X180577319Y-106845952D02*
X180577319Y-107036428D01*
X179577319Y-106274523D02*
X179577319Y-105607857D01*
X179577319Y-105607857D02*
X180577319Y-106036428D01*
X88809333Y-72395580D02*
X88761714Y-72443200D01*
X88761714Y-72443200D02*
X88618857Y-72490819D01*
X88618857Y-72490819D02*
X88523619Y-72490819D01*
X88523619Y-72490819D02*
X88380762Y-72443200D01*
X88380762Y-72443200D02*
X88285524Y-72347961D01*
X88285524Y-72347961D02*
X88237905Y-72252723D01*
X88237905Y-72252723D02*
X88190286Y-72062247D01*
X88190286Y-72062247D02*
X88190286Y-71919390D01*
X88190286Y-71919390D02*
X88237905Y-71728914D01*
X88237905Y-71728914D02*
X88285524Y-71633676D01*
X88285524Y-71633676D02*
X88380762Y-71538438D01*
X88380762Y-71538438D02*
X88523619Y-71490819D01*
X88523619Y-71490819D02*
X88618857Y-71490819D01*
X88618857Y-71490819D02*
X88761714Y-71538438D01*
X88761714Y-71538438D02*
X88809333Y-71586057D01*
X89666476Y-71824152D02*
X89666476Y-72490819D01*
X89428381Y-71443200D02*
X89190286Y-72157485D01*
X89190286Y-72157485D02*
X89809333Y-72157485D01*
X136367261Y-125850057D02*
X136272023Y-125802438D01*
X136272023Y-125802438D02*
X136176785Y-125707200D01*
X136176785Y-125707200D02*
X136033928Y-125564342D01*
X136033928Y-125564342D02*
X135938690Y-125516723D01*
X135938690Y-125516723D02*
X135843452Y-125516723D01*
X135891071Y-125754819D02*
X135795833Y-125707200D01*
X135795833Y-125707200D02*
X135700595Y-125611961D01*
X135700595Y-125611961D02*
X135652976Y-125421485D01*
X135652976Y-125421485D02*
X135652976Y-125088152D01*
X135652976Y-125088152D02*
X135700595Y-124897676D01*
X135700595Y-124897676D02*
X135795833Y-124802438D01*
X135795833Y-124802438D02*
X135891071Y-124754819D01*
X135891071Y-124754819D02*
X136081547Y-124754819D01*
X136081547Y-124754819D02*
X136176785Y-124802438D01*
X136176785Y-124802438D02*
X136272023Y-124897676D01*
X136272023Y-124897676D02*
X136319642Y-125088152D01*
X136319642Y-125088152D02*
X136319642Y-125421485D01*
X136319642Y-125421485D02*
X136272023Y-125611961D01*
X136272023Y-125611961D02*
X136176785Y-125707200D01*
X136176785Y-125707200D02*
X136081547Y-125754819D01*
X136081547Y-125754819D02*
X135891071Y-125754819D01*
X137272023Y-125754819D02*
X136700595Y-125754819D01*
X136986309Y-125754819D02*
X136986309Y-124754819D01*
X136986309Y-124754819D02*
X136891071Y-124897676D01*
X136891071Y-124897676D02*
X136795833Y-124992914D01*
X136795833Y-124992914D02*
X136700595Y-125040533D01*
X155757142Y-120254819D02*
X155423809Y-119778628D01*
X155185714Y-120254819D02*
X155185714Y-119254819D01*
X155185714Y-119254819D02*
X155566666Y-119254819D01*
X155566666Y-119254819D02*
X155661904Y-119302438D01*
X155661904Y-119302438D02*
X155709523Y-119350057D01*
X155709523Y-119350057D02*
X155757142Y-119445295D01*
X155757142Y-119445295D02*
X155757142Y-119588152D01*
X155757142Y-119588152D02*
X155709523Y-119683390D01*
X155709523Y-119683390D02*
X155661904Y-119731009D01*
X155661904Y-119731009D02*
X155566666Y-119778628D01*
X155566666Y-119778628D02*
X155185714Y-119778628D01*
X156709523Y-120254819D02*
X156138095Y-120254819D01*
X156423809Y-120254819D02*
X156423809Y-119254819D01*
X156423809Y-119254819D02*
X156328571Y-119397676D01*
X156328571Y-119397676D02*
X156233333Y-119492914D01*
X156233333Y-119492914D02*
X156138095Y-119540533D01*
X157328571Y-119254819D02*
X157423809Y-119254819D01*
X157423809Y-119254819D02*
X157519047Y-119302438D01*
X157519047Y-119302438D02*
X157566666Y-119350057D01*
X157566666Y-119350057D02*
X157614285Y-119445295D01*
X157614285Y-119445295D02*
X157661904Y-119635771D01*
X157661904Y-119635771D02*
X157661904Y-119873866D01*
X157661904Y-119873866D02*
X157614285Y-120064342D01*
X157614285Y-120064342D02*
X157566666Y-120159580D01*
X157566666Y-120159580D02*
X157519047Y-120207200D01*
X157519047Y-120207200D02*
X157423809Y-120254819D01*
X157423809Y-120254819D02*
X157328571Y-120254819D01*
X157328571Y-120254819D02*
X157233333Y-120207200D01*
X157233333Y-120207200D02*
X157185714Y-120159580D01*
X157185714Y-120159580D02*
X157138095Y-120064342D01*
X157138095Y-120064342D02*
X157090476Y-119873866D01*
X157090476Y-119873866D02*
X157090476Y-119635771D01*
X157090476Y-119635771D02*
X157138095Y-119445295D01*
X157138095Y-119445295D02*
X157185714Y-119350057D01*
X157185714Y-119350057D02*
X157233333Y-119302438D01*
X157233333Y-119302438D02*
X157328571Y-119254819D01*
X136484819Y-59642857D02*
X136008628Y-59976190D01*
X136484819Y-60214285D02*
X135484819Y-60214285D01*
X135484819Y-60214285D02*
X135484819Y-59833333D01*
X135484819Y-59833333D02*
X135532438Y-59738095D01*
X135532438Y-59738095D02*
X135580057Y-59690476D01*
X135580057Y-59690476D02*
X135675295Y-59642857D01*
X135675295Y-59642857D02*
X135818152Y-59642857D01*
X135818152Y-59642857D02*
X135913390Y-59690476D01*
X135913390Y-59690476D02*
X135961009Y-59738095D01*
X135961009Y-59738095D02*
X136008628Y-59833333D01*
X136008628Y-59833333D02*
X136008628Y-60214285D01*
X136484819Y-58690476D02*
X136484819Y-59261904D01*
X136484819Y-58976190D02*
X135484819Y-58976190D01*
X135484819Y-58976190D02*
X135627676Y-59071428D01*
X135627676Y-59071428D02*
X135722914Y-59166666D01*
X135722914Y-59166666D02*
X135770533Y-59261904D01*
X135484819Y-58357142D02*
X135484819Y-57738095D01*
X135484819Y-57738095D02*
X135865771Y-58071428D01*
X135865771Y-58071428D02*
X135865771Y-57928571D01*
X135865771Y-57928571D02*
X135913390Y-57833333D01*
X135913390Y-57833333D02*
X135961009Y-57785714D01*
X135961009Y-57785714D02*
X136056247Y-57738095D01*
X136056247Y-57738095D02*
X136294342Y-57738095D01*
X136294342Y-57738095D02*
X136389580Y-57785714D01*
X136389580Y-57785714D02*
X136437200Y-57833333D01*
X136437200Y-57833333D02*
X136484819Y-57928571D01*
X136484819Y-57928571D02*
X136484819Y-58214285D01*
X136484819Y-58214285D02*
X136437200Y-58309523D01*
X136437200Y-58309523D02*
X136389580Y-58357142D01*
X70100819Y-91830285D02*
X69100819Y-91830285D01*
X69100819Y-91830285D02*
X69100819Y-91592190D01*
X69100819Y-91592190D02*
X69148438Y-91449333D01*
X69148438Y-91449333D02*
X69243676Y-91354095D01*
X69243676Y-91354095D02*
X69338914Y-91306476D01*
X69338914Y-91306476D02*
X69529390Y-91258857D01*
X69529390Y-91258857D02*
X69672247Y-91258857D01*
X69672247Y-91258857D02*
X69862723Y-91306476D01*
X69862723Y-91306476D02*
X69957961Y-91354095D01*
X69957961Y-91354095D02*
X70053200Y-91449333D01*
X70053200Y-91449333D02*
X70100819Y-91592190D01*
X70100819Y-91592190D02*
X70100819Y-91830285D01*
X70100819Y-90306476D02*
X70100819Y-90877904D01*
X70100819Y-90592190D02*
X69100819Y-90592190D01*
X69100819Y-90592190D02*
X69243676Y-90687428D01*
X69243676Y-90687428D02*
X69338914Y-90782666D01*
X69338914Y-90782666D02*
X69386533Y-90877904D01*
X69196057Y-89925523D02*
X69148438Y-89877904D01*
X69148438Y-89877904D02*
X69100819Y-89782666D01*
X69100819Y-89782666D02*
X69100819Y-89544571D01*
X69100819Y-89544571D02*
X69148438Y-89449333D01*
X69148438Y-89449333D02*
X69196057Y-89401714D01*
X69196057Y-89401714D02*
X69291295Y-89354095D01*
X69291295Y-89354095D02*
X69386533Y-89354095D01*
X69386533Y-89354095D02*
X69529390Y-89401714D01*
X69529390Y-89401714D02*
X70100819Y-89973142D01*
X70100819Y-89973142D02*
X70100819Y-89354095D01*
X68980819Y-83257904D02*
X67980819Y-83257904D01*
X68980819Y-82686476D02*
X68409390Y-83115047D01*
X67980819Y-82686476D02*
X68552247Y-83257904D01*
D11*
%TO.C,C11*%
X97965000Y-108538748D02*
X97965000Y-109061252D01*
X99435000Y-108538748D02*
X99435000Y-109061252D01*
%TO.C,R17*%
X135365000Y-115022936D02*
X135365000Y-115477064D01*
X136835000Y-115022936D02*
X136835000Y-115477064D01*
%TO.C,C13*%
X123985000Y-87021252D02*
X123985000Y-86498748D01*
X125455000Y-87021252D02*
X125455000Y-86498748D01*
%TO.C,J12*%
X185852500Y-115705000D02*
X195892500Y-115705000D01*
X185852500Y-126105000D02*
X185852500Y-115705000D01*
X188872500Y-126105000D02*
X188872500Y-115705000D01*
X193772500Y-126105000D02*
X193772500Y-115705000D01*
X195272500Y-126105000D02*
X195272500Y-115705000D01*
X195892500Y-115705000D02*
X195892500Y-123145000D01*
X195892500Y-123745000D02*
X195892500Y-126105000D01*
X195892500Y-126105000D02*
X185852500Y-126105000D01*
X196502500Y-123885000D02*
X195892500Y-123445000D01*
X196502500Y-123005000D01*
X196502500Y-123885000D01*
G36*
X196502500Y-123885000D02*
G01*
X195892500Y-123445000D01*
X196502500Y-123005000D01*
X196502500Y-123885000D01*
G37*
%TO.C,J4*%
X145830000Y-72020000D02*
X145830000Y-77320000D01*
X151020000Y-72020000D02*
X145830000Y-72020000D01*
X151020000Y-72020000D02*
X151020000Y-74670000D01*
X151020000Y-74670000D02*
X153670000Y-74670000D01*
X152290000Y-72020000D02*
X153670000Y-72020000D01*
X153670000Y-72020000D02*
X153670000Y-73400000D01*
X153670000Y-74670000D02*
X153670000Y-77320000D01*
X153670000Y-77320000D02*
X145830000Y-77320000D01*
%TO.C,Q6*%
X122802500Y-126040000D02*
X124322500Y-126040000D01*
X122802500Y-126090000D02*
X122802500Y-126040000D01*
X122802500Y-127990000D02*
X122802500Y-127210000D01*
X122802500Y-129160000D02*
X122802500Y-129110000D01*
X124322500Y-126040000D02*
X124322500Y-127040000D01*
X124322500Y-128160000D02*
X124322500Y-129160000D01*
X124322500Y-129160000D02*
X122802500Y-129160000D01*
X122502500Y-127550000D02*
X122022500Y-127550000D01*
X122262500Y-127220000D01*
X122502500Y-127550000D01*
G36*
X122502500Y-127550000D02*
G01*
X122022500Y-127550000D01*
X122262500Y-127220000D01*
X122502500Y-127550000D01*
G37*
%TO.C,C8*%
X126125000Y-86518748D02*
X126125000Y-87041252D01*
X127595000Y-86518748D02*
X127595000Y-87041252D01*
%TO.C,J7*%
X116795000Y-131252500D02*
X127195000Y-131252500D01*
X116795000Y-134272500D02*
X127195000Y-134272500D01*
X116795000Y-139172500D02*
X127195000Y-139172500D01*
X116795000Y-140672500D02*
X127195000Y-140672500D01*
X116795000Y-141292500D02*
X116795000Y-131252500D01*
X119155000Y-141292500D02*
X116795000Y-141292500D01*
X127195000Y-131252500D02*
X127195000Y-141292500D01*
X127195000Y-141292500D02*
X119755000Y-141292500D01*
X119895000Y-141902500D02*
X119015000Y-141902500D01*
X119455000Y-141292500D01*
X119895000Y-141902500D01*
G36*
X119895000Y-141902500D02*
G01*
X119015000Y-141902500D01*
X119455000Y-141292500D01*
X119895000Y-141902500D01*
G37*
%TO.C,L1*%
X95470000Y-126850000D02*
G75*
G02*
X85230000Y-126850000I-5120000J0D01*
G01*
X85230000Y-126850000D02*
G75*
G02*
X95470000Y-126850000I5120000J0D01*
G01*
%TO.C,C16*%
X104165000Y-88968748D02*
X104165000Y-89491252D01*
X105635000Y-88968748D02*
X105635000Y-89491252D01*
%TO.C,SW2*%
X193125000Y-54050000D02*
X195425000Y-54050000D01*
X193125000Y-55250000D02*
X193125000Y-54050000D01*
X193125000Y-57050000D02*
X193125000Y-57750000D01*
X193125000Y-59550000D02*
X193125000Y-60250000D01*
X193125000Y-63250000D02*
X193125000Y-62050000D01*
X195425000Y-63250000D02*
X193125000Y-63250000D01*
%TO.C,C9*%
X73970000Y-108760000D02*
X84130000Y-108760000D01*
X73970000Y-108800000D02*
X84130000Y-108800000D01*
X73971000Y-108680000D02*
X84129000Y-108680000D01*
X73971000Y-108720000D02*
X84129000Y-108720000D01*
X73973000Y-108640000D02*
X84127000Y-108640000D01*
X73974000Y-108600000D02*
X84126000Y-108600000D01*
X73976000Y-108560000D02*
X84124000Y-108560000D01*
X73978000Y-108520000D02*
X84122000Y-108520000D01*
X73980000Y-108480000D02*
X84120000Y-108480000D01*
X73983000Y-108440000D02*
X84117000Y-108440000D01*
X73986000Y-108400000D02*
X84114000Y-108400000D01*
X73989000Y-108360000D02*
X84111000Y-108360000D01*
X73993000Y-108320000D02*
X84107000Y-108320000D01*
X73996000Y-108280000D02*
X84104000Y-108280000D01*
X74001000Y-108240000D02*
X84099000Y-108240000D01*
X74005000Y-108200000D02*
X84095000Y-108200000D01*
X74010000Y-108160000D02*
X84090000Y-108160000D01*
X74015000Y-108120000D02*
X84085000Y-108120000D01*
X74021000Y-108080000D02*
X84079000Y-108080000D01*
X74027000Y-108040000D02*
X84073000Y-108040000D01*
X74033000Y-108000000D02*
X84067000Y-108000000D01*
X74039000Y-107960000D02*
X84061000Y-107960000D01*
X74046000Y-107920000D02*
X84054000Y-107920000D01*
X74053000Y-107880000D02*
X84047000Y-107880000D01*
X74061000Y-107840000D02*
X84039000Y-107840000D01*
X74069000Y-107800000D02*
X84031000Y-107800000D01*
X74077000Y-107760000D02*
X84023000Y-107760000D01*
X74085000Y-107720000D02*
X84015000Y-107720000D01*
X74094000Y-107680000D02*
X84006000Y-107680000D01*
X74103000Y-107640000D02*
X83997000Y-107640000D01*
X74113000Y-107600000D02*
X83987000Y-107600000D01*
X74122000Y-107560000D02*
X83978000Y-107560000D01*
X74133000Y-107520000D02*
X77810000Y-107520000D01*
X74143000Y-107480000D02*
X77810000Y-107480000D01*
X74154000Y-107440000D02*
X77810000Y-107440000D01*
X74165000Y-107400000D02*
X77810000Y-107400000D01*
X74177000Y-107360000D02*
X77810000Y-107360000D01*
X74189000Y-107320000D02*
X77810000Y-107320000D01*
X74201000Y-107280000D02*
X77810000Y-107280000D01*
X74213000Y-107240000D02*
X77810000Y-107240000D01*
X74226000Y-107200000D02*
X77810000Y-107200000D01*
X74240000Y-107160000D02*
X77810000Y-107160000D01*
X74253000Y-107120000D02*
X77810000Y-107120000D01*
X74268000Y-107080000D02*
X77810000Y-107080000D01*
X74282000Y-107040000D02*
X77810000Y-107040000D01*
X74297000Y-107000000D02*
X77810000Y-107000000D01*
X74312000Y-106960000D02*
X77810000Y-106960000D01*
X74328000Y-106920000D02*
X77810000Y-106920000D01*
X74344000Y-106880000D02*
X77810000Y-106880000D01*
X74360000Y-106840000D02*
X77810000Y-106840000D01*
X74377000Y-106800000D02*
X77810000Y-106800000D01*
X74394000Y-106760000D02*
X77810000Y-106760000D01*
X74412000Y-106720000D02*
X77810000Y-106720000D01*
X74430000Y-106680000D02*
X77810000Y-106680000D01*
X74448000Y-106640000D02*
X77810000Y-106640000D01*
X74467000Y-106600000D02*
X77810000Y-106600000D01*
X74486000Y-106560000D02*
X77810000Y-106560000D01*
X74506000Y-106520000D02*
X77810000Y-106520000D01*
X74526000Y-106480000D02*
X77810000Y-106480000D01*
X74546000Y-106440000D02*
X77810000Y-106440000D01*
X74567000Y-106400000D02*
X77810000Y-106400000D01*
X74589000Y-106360000D02*
X77810000Y-106360000D01*
X74611000Y-106320000D02*
X77810000Y-106320000D01*
X74633000Y-106280000D02*
X77810000Y-106280000D01*
X74656000Y-106240000D02*
X77810000Y-106240000D01*
X74679000Y-106200000D02*
X77810000Y-106200000D01*
X74703000Y-106160000D02*
X77810000Y-106160000D01*
X74727000Y-106120000D02*
X77810000Y-106120000D01*
X74752000Y-106080000D02*
X77810000Y-106080000D01*
X74778000Y-106040000D02*
X77810000Y-106040000D01*
X74803000Y-106000000D02*
X77810000Y-106000000D01*
X74830000Y-105960000D02*
X77810000Y-105960000D01*
X74857000Y-105920000D02*
X77810000Y-105920000D01*
X74884000Y-105880000D02*
X77810000Y-105880000D01*
X74912000Y-105840000D02*
X77810000Y-105840000D01*
X74941000Y-105800000D02*
X77810000Y-105800000D01*
X74970000Y-105760000D02*
X77810000Y-105760000D01*
X75000000Y-105720000D02*
X77810000Y-105720000D01*
X75030000Y-105680000D02*
X77810000Y-105680000D01*
X75062000Y-105640000D02*
X77810000Y-105640000D01*
X75093000Y-105600000D02*
X77810000Y-105600000D01*
X75126000Y-105560000D02*
X77810000Y-105560000D01*
X75159000Y-105520000D02*
X77810000Y-105520000D01*
X75192000Y-105480000D02*
X77810000Y-105480000D01*
X75227000Y-105440000D02*
X77810000Y-105440000D01*
X75262000Y-105400000D02*
X77810000Y-105400000D01*
X75298000Y-105360000D02*
X77810000Y-105360000D01*
X75334000Y-105320000D02*
X77810000Y-105320000D01*
X75372000Y-105280000D02*
X77810000Y-105280000D01*
X75410000Y-105240000D02*
X77810000Y-105240000D01*
X75449000Y-105200000D02*
X77810000Y-105200000D01*
X75489000Y-105160000D02*
X77810000Y-105160000D01*
X75530000Y-105120000D02*
X77810000Y-105120000D01*
X75572000Y-105080000D02*
X77810000Y-105080000D01*
X75615000Y-105040000D02*
X82485000Y-105040000D01*
X75659000Y-105000000D02*
X82441000Y-105000000D01*
X75675000Y-113779646D02*
X76675000Y-113779646D01*
X75703000Y-104960000D02*
X82397000Y-104960000D01*
X75749000Y-104920000D02*
X82351000Y-104920000D01*
X75796000Y-104880000D02*
X82304000Y-104880000D01*
X75845000Y-104840000D02*
X82255000Y-104840000D01*
X75894000Y-104800000D02*
X82206000Y-104800000D01*
X75945000Y-104760000D02*
X82155000Y-104760000D01*
X75997000Y-104720000D02*
X82103000Y-104720000D01*
X76050000Y-104680000D02*
X82050000Y-104680000D01*
X76105000Y-104640000D02*
X81995000Y-104640000D01*
X76162000Y-104600000D02*
X81938000Y-104600000D01*
X76175000Y-114279646D02*
X76175000Y-113279646D01*
X76220000Y-104560000D02*
X81880000Y-104560000D01*
X76280000Y-104520000D02*
X81820000Y-104520000D01*
X76342000Y-104480000D02*
X81758000Y-104480000D01*
X76406000Y-104440000D02*
X81694000Y-104440000D01*
X76472000Y-104400000D02*
X81628000Y-104400000D01*
X76540000Y-104360000D02*
X81560000Y-104360000D01*
X76611000Y-104320000D02*
X81489000Y-104320000D01*
X76685000Y-104280000D02*
X81415000Y-104280000D01*
X76762000Y-104240000D02*
X81338000Y-104240000D01*
X76842000Y-104200000D02*
X81258000Y-104200000D01*
X76926000Y-104160000D02*
X81174000Y-104160000D01*
X77013000Y-104120000D02*
X81087000Y-104120000D01*
X77106000Y-104080000D02*
X80994000Y-104080000D01*
X77204000Y-104040000D02*
X80896000Y-104040000D01*
X77308000Y-104000000D02*
X80792000Y-104000000D01*
X77420000Y-103960000D02*
X80680000Y-103960000D01*
X77541000Y-103920000D02*
X80559000Y-103920000D01*
X77673000Y-103880000D02*
X80427000Y-103880000D01*
X77820000Y-103840000D02*
X80280000Y-103840000D01*
X77988000Y-103800000D02*
X80112000Y-103800000D01*
X78188000Y-103760000D02*
X79912000Y-103760000D01*
X78451000Y-103720000D02*
X79649000Y-103720000D01*
X80290000Y-105080000D02*
X82528000Y-105080000D01*
X80290000Y-105120000D02*
X82570000Y-105120000D01*
X80290000Y-105160000D02*
X82611000Y-105160000D01*
X80290000Y-105200000D02*
X82651000Y-105200000D01*
X80290000Y-105240000D02*
X82690000Y-105240000D01*
X80290000Y-105280000D02*
X82728000Y-105280000D01*
X80290000Y-105320000D02*
X82766000Y-105320000D01*
X80290000Y-105360000D02*
X82802000Y-105360000D01*
X80290000Y-105400000D02*
X82838000Y-105400000D01*
X80290000Y-105440000D02*
X82873000Y-105440000D01*
X80290000Y-105480000D02*
X82908000Y-105480000D01*
X80290000Y-105520000D02*
X82941000Y-105520000D01*
X80290000Y-105560000D02*
X82974000Y-105560000D01*
X80290000Y-105600000D02*
X83007000Y-105600000D01*
X80290000Y-105640000D02*
X83038000Y-105640000D01*
X80290000Y-105680000D02*
X83070000Y-105680000D01*
X80290000Y-105720000D02*
X83100000Y-105720000D01*
X80290000Y-105760000D02*
X83130000Y-105760000D01*
X80290000Y-105800000D02*
X83159000Y-105800000D01*
X80290000Y-105840000D02*
X83188000Y-105840000D01*
X80290000Y-105880000D02*
X83216000Y-105880000D01*
X80290000Y-105920000D02*
X83243000Y-105920000D01*
X80290000Y-105960000D02*
X83270000Y-105960000D01*
X80290000Y-106000000D02*
X83297000Y-106000000D01*
X80290000Y-106040000D02*
X83322000Y-106040000D01*
X80290000Y-106080000D02*
X83348000Y-106080000D01*
X80290000Y-106120000D02*
X83373000Y-106120000D01*
X80290000Y-106160000D02*
X83397000Y-106160000D01*
X80290000Y-106200000D02*
X83421000Y-106200000D01*
X80290000Y-106240000D02*
X83444000Y-106240000D01*
X80290000Y-106280000D02*
X83467000Y-106280000D01*
X80290000Y-106320000D02*
X83489000Y-106320000D01*
X80290000Y-106360000D02*
X83511000Y-106360000D01*
X80290000Y-106400000D02*
X83533000Y-106400000D01*
X80290000Y-106440000D02*
X83554000Y-106440000D01*
X80290000Y-106480000D02*
X83574000Y-106480000D01*
X80290000Y-106520000D02*
X83594000Y-106520000D01*
X80290000Y-106560000D02*
X83614000Y-106560000D01*
X80290000Y-106600000D02*
X83633000Y-106600000D01*
X80290000Y-106640000D02*
X83652000Y-106640000D01*
X80290000Y-106680000D02*
X83670000Y-106680000D01*
X80290000Y-106720000D02*
X83688000Y-106720000D01*
X80290000Y-106760000D02*
X83706000Y-106760000D01*
X80290000Y-106800000D02*
X83723000Y-106800000D01*
X80290000Y-106840000D02*
X83740000Y-106840000D01*
X80290000Y-106880000D02*
X83756000Y-106880000D01*
X80290000Y-106920000D02*
X83772000Y-106920000D01*
X80290000Y-106960000D02*
X83788000Y-106960000D01*
X80290000Y-107000000D02*
X83803000Y-107000000D01*
X80290000Y-107040000D02*
X83818000Y-107040000D01*
X80290000Y-107080000D02*
X83832000Y-107080000D01*
X80290000Y-107120000D02*
X83847000Y-107120000D01*
X80290000Y-107160000D02*
X83860000Y-107160000D01*
X80290000Y-107200000D02*
X83874000Y-107200000D01*
X80290000Y-107240000D02*
X83887000Y-107240000D01*
X80290000Y-107280000D02*
X83899000Y-107280000D01*
X80290000Y-107320000D02*
X83911000Y-107320000D01*
X80290000Y-107360000D02*
X83923000Y-107360000D01*
X80290000Y-107400000D02*
X83935000Y-107400000D01*
X80290000Y-107440000D02*
X83946000Y-107440000D01*
X80290000Y-107480000D02*
X83957000Y-107480000D01*
X80290000Y-107520000D02*
X83967000Y-107520000D01*
X84170000Y-108800000D02*
G75*
G02*
X73930000Y-108800000I-5120000J0D01*
G01*
X73930000Y-108800000D02*
G75*
G02*
X84170000Y-108800000I5120000J0D01*
G01*
%TO.C,C6*%
X154365000Y-75261252D02*
X154365000Y-74738748D01*
X155835000Y-75261252D02*
X155835000Y-74738748D01*
%TO.C,J6*%
X75886000Y-44996000D02*
X83326000Y-44996000D01*
X75886000Y-55036000D02*
X75886000Y-44996000D01*
X83926000Y-44996000D02*
X86286000Y-44996000D01*
X86286000Y-44996000D02*
X86286000Y-55036000D01*
X86286000Y-45616000D02*
X75886000Y-45616000D01*
X86286000Y-47116000D02*
X75886000Y-47116000D01*
X86286000Y-52016000D02*
X75886000Y-52016000D01*
X86286000Y-55036000D02*
X75886000Y-55036000D01*
X83626000Y-44996000D02*
X83186000Y-44386000D01*
X84066000Y-44386000D01*
X83626000Y-44996000D01*
G36*
X83626000Y-44996000D02*
G01*
X83186000Y-44386000D01*
X84066000Y-44386000D01*
X83626000Y-44996000D01*
G37*
%TO.C,Q4*%
X180962500Y-118505000D02*
X181962500Y-118505000D01*
X180962500Y-120025000D02*
X180962500Y-118505000D01*
X181012500Y-120025000D02*
X180962500Y-120025000D01*
X182912500Y-120025000D02*
X182132500Y-120025000D01*
X183082500Y-118505000D02*
X184082500Y-118505000D01*
X184082500Y-118505000D02*
X184082500Y-120025000D01*
X184082500Y-120025000D02*
X184032500Y-120025000D01*
X182472500Y-120805000D02*
X182142500Y-120565000D01*
X182472500Y-120325000D01*
X182472500Y-120805000D01*
G36*
X182472500Y-120805000D02*
G01*
X182142500Y-120565000D01*
X182472500Y-120325000D01*
X182472500Y-120805000D01*
G37*
%TO.C,SW6*%
X193100000Y-64150000D02*
X195400000Y-64150000D01*
X193100000Y-65350000D02*
X193100000Y-64150000D01*
X193100000Y-67150000D02*
X193100000Y-67850000D01*
X193100000Y-69650000D02*
X193100000Y-70350000D01*
X193100000Y-73350000D02*
X193100000Y-72150000D01*
X195400000Y-73350000D02*
X193100000Y-73350000D01*
%TO.C,Y2*%
X118275000Y-59465000D02*
X124525000Y-59465000D01*
X124525000Y-64335000D02*
X118275000Y-64335000D01*
X118275000Y-64335000D02*
G75*
G02*
X118275000Y-59465000I0J2435000D01*
G01*
X124525000Y-59465000D02*
G75*
G02*
X124525000Y-64335000I0J-2435000D01*
G01*
%TO.C,R19*%
X129765000Y-115022936D02*
X129765000Y-115477064D01*
X131235000Y-115022936D02*
X131235000Y-115477064D01*
%TO.C,J11*%
X185902500Y-102855000D02*
X195942500Y-102855000D01*
X185902500Y-113255000D02*
X185902500Y-102855000D01*
X188922500Y-113255000D02*
X188922500Y-102855000D01*
X193822500Y-113255000D02*
X193822500Y-102855000D01*
X195322500Y-113255000D02*
X195322500Y-102855000D01*
X195942500Y-102855000D02*
X195942500Y-110295000D01*
X195942500Y-110895000D02*
X195942500Y-113255000D01*
X195942500Y-113255000D02*
X185902500Y-113255000D01*
X196552500Y-111035000D02*
X195942500Y-110595000D01*
X196552500Y-110155000D01*
X196552500Y-111035000D01*
G36*
X196552500Y-111035000D02*
G01*
X195942500Y-110595000D01*
X196552500Y-110155000D01*
X196552500Y-111035000D01*
G37*
%TO.C,D5*%
X69256000Y-93871000D02*
X74696000Y-93871000D01*
X69256000Y-93991000D02*
X74696000Y-93991000D01*
X69256000Y-94111000D02*
X74696000Y-94111000D01*
X71976000Y-84886000D02*
X71976000Y-85796000D01*
X71976000Y-96446000D02*
X71976000Y-95536000D01*
X69256000Y-95536000D02*
X74696000Y-95536000D01*
X74696000Y-85796000D01*
X69256000Y-85796000D01*
X69256000Y-95536000D01*
%TO.C,SW7*%
X138550000Y-94650000D02*
X138550000Y-96150000D01*
X139800000Y-98650000D02*
X144300000Y-98650000D01*
X144300000Y-92150000D02*
X139800000Y-92150000D01*
X145550000Y-96150000D02*
X145550000Y-94650000D01*
%TO.C,J10*%
X155760000Y-131280000D02*
X166160000Y-131280000D01*
X155760000Y-134300000D02*
X166160000Y-134300000D01*
X155760000Y-139200000D02*
X166160000Y-139200000D01*
X155760000Y-140700000D02*
X166160000Y-140700000D01*
X155760000Y-141320000D02*
X155760000Y-131280000D01*
X158120000Y-141320000D02*
X155760000Y-141320000D01*
X166160000Y-131280000D02*
X166160000Y-141320000D01*
X166160000Y-141320000D02*
X158720000Y-141320000D01*
X158860000Y-141930000D02*
X157980000Y-141930000D01*
X158420000Y-141320000D01*
X158860000Y-141930000D01*
G36*
X158860000Y-141930000D02*
G01*
X157980000Y-141930000D01*
X158420000Y-141320000D01*
X158860000Y-141930000D01*
G37*
%TO.C,D3*%
X68120000Y-118300000D02*
X69030000Y-118300000D01*
X77105000Y-121020000D02*
X77105000Y-115580000D01*
X77225000Y-121020000D02*
X77225000Y-115580000D01*
X77345000Y-121020000D02*
X77345000Y-115580000D01*
X79680000Y-118300000D02*
X78770000Y-118300000D01*
X78770000Y-121020000D02*
X69030000Y-121020000D01*
X69030000Y-115580000D01*
X78770000Y-115580000D01*
X78770000Y-121020000D01*
%TO.C,C14*%
X124528748Y-65365000D02*
X125051252Y-65365000D01*
X124528748Y-66835000D02*
X125051252Y-66835000D01*
%TO.C,C3*%
X133165000Y-55538748D02*
X133165000Y-56061252D01*
X134635000Y-55538748D02*
X134635000Y-56061252D01*
%TO.C,J13*%
X168645000Y-131302500D02*
X179045000Y-131302500D01*
X168645000Y-134322500D02*
X179045000Y-134322500D01*
X168645000Y-139222500D02*
X179045000Y-139222500D01*
X168645000Y-140722500D02*
X179045000Y-140722500D01*
X168645000Y-141342500D02*
X168645000Y-131302500D01*
X171005000Y-141342500D02*
X168645000Y-141342500D01*
X179045000Y-131302500D02*
X179045000Y-141342500D01*
X179045000Y-141342500D02*
X171605000Y-141342500D01*
X171745000Y-141952500D02*
X170865000Y-141952500D01*
X171305000Y-141342500D01*
X171745000Y-141952500D01*
G36*
X171745000Y-141952500D02*
G01*
X170865000Y-141952500D01*
X171305000Y-141342500D01*
X171745000Y-141952500D01*
G37*
%TO.C,J8*%
X129645000Y-131230000D02*
X140045000Y-131230000D01*
X129645000Y-134250000D02*
X140045000Y-134250000D01*
X129645000Y-139150000D02*
X140045000Y-139150000D01*
X129645000Y-140650000D02*
X140045000Y-140650000D01*
X129645000Y-141270000D02*
X129645000Y-131230000D01*
X132005000Y-141270000D02*
X129645000Y-141270000D01*
X140045000Y-131230000D02*
X140045000Y-141270000D01*
X140045000Y-141270000D02*
X132605000Y-141270000D01*
X132745000Y-141880000D02*
X131865000Y-141880000D01*
X132305000Y-141270000D01*
X132745000Y-141880000D01*
G36*
X132745000Y-141880000D02*
G01*
X131865000Y-141880000D01*
X132305000Y-141270000D01*
X132745000Y-141880000D01*
G37*
%TO.C,D7*%
X94111000Y-92456000D02*
X99551000Y-92456000D01*
X94111000Y-92576000D02*
X99551000Y-92576000D01*
X94111000Y-92696000D02*
X99551000Y-92696000D01*
X96831000Y-83471000D02*
X96831000Y-84381000D01*
X96831000Y-95031000D02*
X96831000Y-94121000D01*
X94111000Y-94121000D02*
X99551000Y-94121000D01*
X99551000Y-84381000D01*
X94111000Y-84381000D01*
X94111000Y-94121000D01*
%TO.C,D11*%
X87356000Y-92371000D02*
X92796000Y-92371000D01*
X87356000Y-92491000D02*
X92796000Y-92491000D01*
X87356000Y-92611000D02*
X92796000Y-92611000D01*
X90076000Y-83386000D02*
X90076000Y-84296000D01*
X90076000Y-94946000D02*
X90076000Y-94036000D01*
X87356000Y-94036000D02*
X92796000Y-94036000D01*
X92796000Y-84296000D01*
X87356000Y-84296000D01*
X87356000Y-94036000D01*
%TO.C,U7*%
X104480000Y-104350000D02*
X104480000Y-104620000D01*
X104480000Y-111250000D02*
X104480000Y-110980000D01*
X110900000Y-104350000D02*
X104480000Y-104350000D01*
X110900000Y-111250000D02*
X104480000Y-111250000D01*
X102750000Y-104660000D02*
X102410000Y-104190000D01*
X103090000Y-104190000D01*
X102750000Y-104660000D01*
G36*
X102750000Y-104660000D02*
G01*
X102410000Y-104190000D01*
X103090000Y-104190000D01*
X102750000Y-104660000D01*
G37*
%TO.C,R8*%
X171022936Y-120815000D02*
X171477064Y-120815000D01*
X171022936Y-122285000D02*
X171477064Y-122285000D01*
%TO.C,J2*%
X52410000Y-112980000D02*
X62810000Y-112980000D01*
X52410000Y-116000000D02*
X62810000Y-116000000D01*
X52410000Y-120900000D02*
X62810000Y-120900000D01*
X52410000Y-122400000D02*
X62810000Y-122400000D01*
X52410000Y-123020000D02*
X52410000Y-112980000D01*
X54770000Y-123020000D02*
X52410000Y-123020000D01*
X62810000Y-112980000D02*
X62810000Y-123020000D01*
X62810000Y-123020000D02*
X55370000Y-123020000D01*
X55510000Y-123630000D02*
X54630000Y-123630000D01*
X55070000Y-123020000D01*
X55510000Y-123630000D01*
G36*
X55510000Y-123630000D02*
G01*
X54630000Y-123630000D01*
X55070000Y-123020000D01*
X55510000Y-123630000D01*
G37*
%TO.C,pull_FC1*%
X149627064Y-92415000D02*
X149172936Y-92415000D01*
X149627064Y-93885000D02*
X149172936Y-93885000D01*
%TO.C,R3*%
X124415000Y-115035436D02*
X124415000Y-115489564D01*
X125885000Y-115035436D02*
X125885000Y-115489564D01*
%TO.C,R9*%
X132615000Y-115022936D02*
X132615000Y-115477064D01*
X134085000Y-115022936D02*
X134085000Y-115477064D01*
%TO.C,REF\u002A\u002A*%
X105800000Y-80280000D02*
X105800000Y-82080000D01*
X105800000Y-82080000D02*
X109600000Y-82080000D01*
X109600000Y-80280000D02*
X105800000Y-80280000D01*
X109600000Y-82080000D02*
X109600000Y-80280000D01*
%TO.C,R2*%
X121565000Y-115035436D02*
X121565000Y-115489564D01*
X123035000Y-115035436D02*
X123035000Y-115489564D01*
%TO.C,J1*%
X139440000Y-47035331D02*
X139440000Y-42935331D01*
X141450000Y-47035331D02*
X139440000Y-47035331D01*
X141450000Y-56175331D02*
X141450000Y-47035331D01*
X142260000Y-56869669D02*
X142510000Y-56436656D01*
X142510000Y-56436656D02*
X142760000Y-56869669D01*
X142760000Y-56869669D02*
X142260000Y-56869669D01*
X154650000Y-47035331D02*
X154650000Y-56175331D01*
X154650000Y-56175331D02*
X141450000Y-56175331D01*
X156660000Y-42935331D02*
X156660000Y-47035331D01*
X156660000Y-47035331D02*
X154650000Y-47035331D01*
%TO.C,U9*%
X107545000Y-87580000D02*
X109905000Y-87580000D01*
X107545000Y-91730000D02*
X109905000Y-91730000D01*
X107325000Y-88205000D02*
X106995000Y-88445000D01*
X106995000Y-87965000D01*
X107325000Y-88205000D01*
G36*
X107325000Y-88205000D02*
G01*
X106995000Y-88445000D01*
X106995000Y-87965000D01*
X107325000Y-88205000D01*
G37*
%TO.C,C17*%
X118261252Y-65365000D02*
X117738748Y-65365000D01*
X118261252Y-66835000D02*
X117738748Y-66835000D01*
%TO.C,U2*%
X85000000Y-114210000D02*
X85000000Y-115575000D01*
X85000000Y-115575000D02*
X85950000Y-115575000D01*
X95400000Y-114210000D02*
X95400000Y-115575000D01*
X95400000Y-115575000D02*
X94450000Y-115575000D01*
X85990000Y-118400000D02*
X85520000Y-118740000D01*
X85520000Y-118060000D01*
X85990000Y-118400000D01*
G36*
X85990000Y-118400000D02*
G01*
X85520000Y-118740000D01*
X85520000Y-118060000D01*
X85990000Y-118400000D01*
G37*
%TO.C,U6*%
X131240000Y-62240000D02*
X131335000Y-62240000D01*
X131240000Y-66360000D02*
X131240000Y-62240000D01*
X131335000Y-66360000D02*
X131240000Y-66360000D01*
X136265000Y-62240000D02*
X136360000Y-62240000D01*
X136360000Y-62240000D02*
X136360000Y-66360000D01*
X136360000Y-66360000D02*
X136265000Y-66360000D01*
X131330000Y-66900000D02*
X131000000Y-67140000D01*
X131000000Y-66660000D01*
X131330000Y-66900000D01*
G36*
X131330000Y-66900000D02*
G01*
X131000000Y-67140000D01*
X131000000Y-66660000D01*
X131330000Y-66900000D01*
G37*
%TO.C,D9*%
X72381000Y-53801000D02*
X72381000Y-54711000D01*
X72381000Y-65361000D02*
X72381000Y-64451000D01*
X75101000Y-56136000D02*
X69661000Y-56136000D01*
X75101000Y-56256000D02*
X69661000Y-56256000D01*
X75101000Y-56376000D02*
X69661000Y-56376000D01*
X75101000Y-54711000D02*
X69661000Y-54711000D01*
X69661000Y-64451000D01*
X75101000Y-64451000D01*
X75101000Y-54711000D01*
%TO.C,REF\u002A\u002A*%
X111120000Y-84040000D02*
X111120000Y-85840000D01*
X111120000Y-85840000D02*
X114920000Y-85840000D01*
X114920000Y-84040000D02*
X111120000Y-84040000D01*
X114920000Y-85840000D02*
X114920000Y-84040000D01*
%TO.C,D10*%
X87411000Y-64006000D02*
X92851000Y-64006000D01*
X87411000Y-64126000D02*
X92851000Y-64126000D01*
X87411000Y-64246000D02*
X92851000Y-64246000D01*
X90131000Y-55021000D02*
X90131000Y-55931000D01*
X90131000Y-66581000D02*
X90131000Y-65671000D01*
X87411000Y-65671000D02*
X92851000Y-65671000D01*
X92851000Y-55931000D01*
X87411000Y-55931000D01*
X87411000Y-65671000D01*
%TO.C,C2*%
X114361252Y-79065000D02*
X113838748Y-79065000D01*
X114361252Y-80535000D02*
X113838748Y-80535000D01*
%TO.C,Q8*%
X181062500Y-132255000D02*
X182062500Y-132255000D01*
X181062500Y-133775000D02*
X181062500Y-132255000D01*
X181112500Y-133775000D02*
X181062500Y-133775000D01*
X183012500Y-133775000D02*
X182232500Y-133775000D01*
X183182500Y-132255000D02*
X184182500Y-132255000D01*
X184182500Y-132255000D02*
X184182500Y-133775000D01*
X184182500Y-133775000D02*
X184132500Y-133775000D01*
X182572500Y-134555000D02*
X182242500Y-134315000D01*
X182572500Y-134075000D01*
X182572500Y-134555000D01*
G36*
X182572500Y-134555000D02*
G01*
X182242500Y-134315000D01*
X182572500Y-134075000D01*
X182572500Y-134555000D01*
G37*
%TO.C,U3*%
X75661000Y-64691000D02*
X80881000Y-64691000D01*
X75661000Y-73051000D02*
X77371000Y-73051000D01*
X75661000Y-76751000D02*
X77371000Y-76751000D01*
X75661000Y-85111000D02*
X75661000Y-64691000D01*
X77371000Y-85111000D02*
X77371000Y-64691000D01*
X80881000Y-64691000D02*
X80881000Y-66294000D01*
X80881000Y-65401000D02*
X84364000Y-65401000D01*
X80881000Y-68268000D02*
X80881000Y-68834000D01*
X80881000Y-70808000D02*
X80881000Y-71374000D01*
X80881000Y-73348000D02*
X80881000Y-73914000D01*
X80881000Y-75888000D02*
X80881000Y-76454000D01*
X80881000Y-78428000D02*
X80881000Y-78994000D01*
X80881000Y-80968000D02*
X80881000Y-81534000D01*
X80881000Y-83508000D02*
X80881000Y-85111000D01*
X80881000Y-84401000D02*
X84191000Y-84401000D01*
X80881000Y-85111000D02*
X75661000Y-85111000D01*
X81225000Y-66621000D02*
X84364000Y-66621000D01*
X81225000Y-67941000D02*
X84364000Y-67941000D01*
X81225000Y-69161000D02*
X84364000Y-69161000D01*
X81225000Y-70481000D02*
X84364000Y-70481000D01*
X81225000Y-71701000D02*
X84364000Y-71701000D01*
X81225000Y-73021000D02*
X84364000Y-73021000D01*
X81225000Y-74241000D02*
X84364000Y-74241000D01*
X81225000Y-75561000D02*
X84364000Y-75561000D01*
X81225000Y-76781000D02*
X84364000Y-76781000D01*
X81225000Y-78101000D02*
X84364000Y-78101000D01*
X81225000Y-79321000D02*
X84364000Y-79321000D01*
X81225000Y-80641000D02*
X84364000Y-80641000D01*
X81225000Y-81861000D02*
X84364000Y-81861000D01*
X81225000Y-83181000D02*
X84191000Y-83181000D01*
%TO.C,J14*%
X185875000Y-129420000D02*
X195915000Y-129420000D01*
X185875000Y-139820000D02*
X185875000Y-129420000D01*
X188895000Y-139820000D02*
X188895000Y-129420000D01*
X193795000Y-139820000D02*
X193795000Y-129420000D01*
X195295000Y-139820000D02*
X195295000Y-129420000D01*
X195915000Y-129420000D02*
X195915000Y-136860000D01*
X195915000Y-137460000D02*
X195915000Y-139820000D01*
X195915000Y-139820000D02*
X185875000Y-139820000D01*
X196525000Y-137600000D02*
X195915000Y-137160000D01*
X196525000Y-136720000D01*
X196525000Y-137600000D01*
G36*
X196525000Y-137600000D02*
G01*
X195915000Y-137160000D01*
X196525000Y-136720000D01*
X196525000Y-137600000D01*
G37*
%TO.C,D2*%
X106240000Y-100440000D02*
X106240000Y-102360000D01*
X106240000Y-102360000D02*
X109100000Y-102360000D01*
X109100000Y-100440000D02*
X106240000Y-100440000D01*
%TO.C,C10*%
X97388748Y-126265000D02*
X97911252Y-126265000D01*
X97388748Y-127735000D02*
X97911252Y-127735000D01*
%TO.C,C1*%
X99890302Y-115635000D02*
X100690302Y-115635000D01*
X100290302Y-115235000D02*
X100290302Y-116035000D01*
X104300000Y-113870000D02*
X104300000Y-122030000D01*
X104340000Y-113870000D02*
X104340000Y-122030000D01*
X104380000Y-113871000D02*
X104380000Y-122029000D01*
X104420000Y-113872000D02*
X104420000Y-122028000D01*
X104460000Y-113873000D02*
X104460000Y-122027000D01*
X104500000Y-113875000D02*
X104500000Y-122025000D01*
X104540000Y-113877000D02*
X104540000Y-122023000D01*
X104580000Y-113880000D02*
X104580000Y-122020000D01*
X104620000Y-113882000D02*
X104620000Y-122018000D01*
X104660000Y-113886000D02*
X104660000Y-122014000D01*
X104700000Y-113889000D02*
X104700000Y-122011000D01*
X104740000Y-113894000D02*
X104740000Y-122006000D01*
X104780000Y-113898000D02*
X104780000Y-122002000D01*
X104820000Y-113903000D02*
X104820000Y-121997000D01*
X104860000Y-113908000D02*
X104860000Y-121992000D01*
X104900000Y-113914000D02*
X104900000Y-121986000D01*
X104940000Y-113920000D02*
X104940000Y-121980000D01*
X104980000Y-113927000D02*
X104980000Y-121973000D01*
X105020000Y-113933000D02*
X105020000Y-116910000D01*
X105020000Y-118990000D02*
X105020000Y-121967000D01*
X105060000Y-113941000D02*
X105060000Y-116910000D01*
X105060000Y-118990000D02*
X105060000Y-121959000D01*
X105100000Y-113948000D02*
X105100000Y-116910000D01*
X105100000Y-118990000D02*
X105100000Y-121952000D01*
X105140000Y-113957000D02*
X105140000Y-116910000D01*
X105140000Y-118990000D02*
X105140000Y-121943000D01*
X105180000Y-113965000D02*
X105180000Y-116910000D01*
X105180000Y-118990000D02*
X105180000Y-121935000D01*
X105220000Y-113974000D02*
X105220000Y-116910000D01*
X105220000Y-118990000D02*
X105220000Y-121926000D01*
X105260000Y-113983000D02*
X105260000Y-116910000D01*
X105260000Y-118990000D02*
X105260000Y-121917000D01*
X105300000Y-113993000D02*
X105300000Y-116910000D01*
X105300000Y-118990000D02*
X105300000Y-121907000D01*
X105340000Y-114003000D02*
X105340000Y-116910000D01*
X105340000Y-118990000D02*
X105340000Y-121897000D01*
X105380000Y-114014000D02*
X105380000Y-116910000D01*
X105380000Y-118990000D02*
X105380000Y-121886000D01*
X105420000Y-114025000D02*
X105420000Y-116910000D01*
X105420000Y-118990000D02*
X105420000Y-121875000D01*
X105460000Y-114037000D02*
X105460000Y-116910000D01*
X105460000Y-118990000D02*
X105460000Y-121863000D01*
X105500000Y-114049000D02*
X105500000Y-116910000D01*
X105500000Y-118990000D02*
X105500000Y-121851000D01*
X105540000Y-114061000D02*
X105540000Y-116910000D01*
X105540000Y-118990000D02*
X105540000Y-121839000D01*
X105580000Y-114074000D02*
X105580000Y-116910000D01*
X105580000Y-118990000D02*
X105580000Y-121826000D01*
X105620000Y-114087000D02*
X105620000Y-116910000D01*
X105620000Y-118990000D02*
X105620000Y-121813000D01*
X105660000Y-114101000D02*
X105660000Y-116910000D01*
X105660000Y-118990000D02*
X105660000Y-121799000D01*
X105700000Y-114115000D02*
X105700000Y-116910000D01*
X105700000Y-118990000D02*
X105700000Y-121785000D01*
X105740000Y-114130000D02*
X105740000Y-116910000D01*
X105740000Y-118990000D02*
X105740000Y-121770000D01*
X105780000Y-114145000D02*
X105780000Y-116910000D01*
X105780000Y-118990000D02*
X105780000Y-121755000D01*
X105820000Y-114161000D02*
X105820000Y-116910000D01*
X105820000Y-118990000D02*
X105820000Y-121739000D01*
X105860000Y-114177000D02*
X105860000Y-116910000D01*
X105860000Y-118990000D02*
X105860000Y-121723000D01*
X105900000Y-114193000D02*
X105900000Y-116910000D01*
X105900000Y-118990000D02*
X105900000Y-121707000D01*
X105940000Y-114210000D02*
X105940000Y-116910000D01*
X105940000Y-118990000D02*
X105940000Y-121690000D01*
X105980000Y-114228000D02*
X105980000Y-116910000D01*
X105980000Y-118990000D02*
X105980000Y-121672000D01*
X106020000Y-114246000D02*
X106020000Y-116910000D01*
X106020000Y-118990000D02*
X106020000Y-121654000D01*
X106060000Y-114265000D02*
X106060000Y-116910000D01*
X106060000Y-118990000D02*
X106060000Y-121635000D01*
X106100000Y-114284000D02*
X106100000Y-116910000D01*
X106100000Y-118990000D02*
X106100000Y-121616000D01*
X106140000Y-114304000D02*
X106140000Y-116910000D01*
X106140000Y-118990000D02*
X106140000Y-121596000D01*
X106180000Y-114324000D02*
X106180000Y-116910000D01*
X106180000Y-118990000D02*
X106180000Y-121576000D01*
X106220000Y-114345000D02*
X106220000Y-116910000D01*
X106220000Y-118990000D02*
X106220000Y-121555000D01*
X106260000Y-114366000D02*
X106260000Y-116910000D01*
X106260000Y-118990000D02*
X106260000Y-121534000D01*
X106300000Y-114388000D02*
X106300000Y-116910000D01*
X106300000Y-118990000D02*
X106300000Y-121512000D01*
X106340000Y-114411000D02*
X106340000Y-116910000D01*
X106340000Y-118990000D02*
X106340000Y-121489000D01*
X106380000Y-114434000D02*
X106380000Y-116910000D01*
X106380000Y-118990000D02*
X106380000Y-121466000D01*
X106420000Y-114457000D02*
X106420000Y-116910000D01*
X106420000Y-118990000D02*
X106420000Y-121443000D01*
X106460000Y-114482000D02*
X106460000Y-116910000D01*
X106460000Y-118990000D02*
X106460000Y-121418000D01*
X106500000Y-114507000D02*
X106500000Y-116910000D01*
X106500000Y-118990000D02*
X106500000Y-121393000D01*
X106540000Y-114532000D02*
X106540000Y-116910000D01*
X106540000Y-118990000D02*
X106540000Y-121368000D01*
X106580000Y-114558000D02*
X106580000Y-116910000D01*
X106580000Y-118990000D02*
X106580000Y-121342000D01*
X106620000Y-114585000D02*
X106620000Y-116910000D01*
X106620000Y-118990000D02*
X106620000Y-121315000D01*
X106660000Y-114613000D02*
X106660000Y-116910000D01*
X106660000Y-118990000D02*
X106660000Y-121287000D01*
X106700000Y-114641000D02*
X106700000Y-116910000D01*
X106700000Y-118990000D02*
X106700000Y-121259000D01*
X106740000Y-114670000D02*
X106740000Y-116910000D01*
X106740000Y-118990000D02*
X106740000Y-121230000D01*
X106780000Y-114700000D02*
X106780000Y-116910000D01*
X106780000Y-118990000D02*
X106780000Y-121200000D01*
X106820000Y-114731000D02*
X106820000Y-116910000D01*
X106820000Y-118990000D02*
X106820000Y-121169000D01*
X106860000Y-114762000D02*
X106860000Y-116910000D01*
X106860000Y-118990000D02*
X106860000Y-121138000D01*
X106900000Y-114794000D02*
X106900000Y-116910000D01*
X106900000Y-118990000D02*
X106900000Y-121106000D01*
X106940000Y-114827000D02*
X106940000Y-116910000D01*
X106940000Y-118990000D02*
X106940000Y-121073000D01*
X106980000Y-114861000D02*
X106980000Y-116910000D01*
X106980000Y-118990000D02*
X106980000Y-121039000D01*
X107020000Y-114895000D02*
X107020000Y-116910000D01*
X107020000Y-118990000D02*
X107020000Y-121005000D01*
X107060000Y-114931000D02*
X107060000Y-116910000D01*
X107060000Y-118990000D02*
X107060000Y-120969000D01*
X107100000Y-114968000D02*
X107100000Y-120932000D01*
X107140000Y-115005000D02*
X107140000Y-120895000D01*
X107180000Y-115044000D02*
X107180000Y-120856000D01*
X107220000Y-115083000D02*
X107220000Y-120817000D01*
X107260000Y-115124000D02*
X107260000Y-120776000D01*
X107300000Y-115166000D02*
X107300000Y-120734000D01*
X107340000Y-115209000D02*
X107340000Y-120691000D01*
X107380000Y-115254000D02*
X107380000Y-120646000D01*
X107420000Y-115299000D02*
X107420000Y-120601000D01*
X107460000Y-115346000D02*
X107460000Y-120554000D01*
X107500000Y-115395000D02*
X107500000Y-120505000D01*
X107540000Y-115445000D02*
X107540000Y-120455000D01*
X107580000Y-115497000D02*
X107580000Y-120403000D01*
X107620000Y-115550000D02*
X107620000Y-120350000D01*
X107660000Y-115606000D02*
X107660000Y-120294000D01*
X107700000Y-115663000D02*
X107700000Y-120237000D01*
X107740000Y-115723000D02*
X107740000Y-120177000D01*
X107780000Y-115785000D02*
X107780000Y-120115000D01*
X107820000Y-115849000D02*
X107820000Y-120051000D01*
X107860000Y-115916000D02*
X107860000Y-119984000D01*
X107900000Y-115986000D02*
X107900000Y-119914000D01*
X107940000Y-116060000D02*
X107940000Y-119840000D01*
X107980000Y-116137000D02*
X107980000Y-119763000D01*
X108020000Y-116219000D02*
X108020000Y-119681000D01*
X108060000Y-116306000D02*
X108060000Y-119594000D01*
X108100000Y-116398000D02*
X108100000Y-119502000D01*
X108140000Y-116497000D02*
X108140000Y-119403000D01*
X108180000Y-116604000D02*
X108180000Y-119296000D01*
X108220000Y-116722000D02*
X108220000Y-119178000D01*
X108260000Y-116853000D02*
X108260000Y-119047000D01*
X108300000Y-117003000D02*
X108300000Y-118897000D01*
X108340000Y-117182000D02*
X108340000Y-118718000D01*
X108380000Y-117417000D02*
X108380000Y-118483000D01*
X108420000Y-117950000D02*
G75*
G02*
X100180000Y-117950000I-4120000J0D01*
G01*
X100180000Y-117950000D02*
G75*
G02*
X108420000Y-117950000I4120000J0D01*
G01*
%TO.C,SW4*%
X193125000Y-84450000D02*
X195425000Y-84450000D01*
X193125000Y-85650000D02*
X193125000Y-84450000D01*
X193125000Y-87450000D02*
X193125000Y-88150000D01*
X193125000Y-89950000D02*
X193125000Y-90650000D01*
X193125000Y-93650000D02*
X193125000Y-92450000D01*
X195425000Y-93650000D02*
X193125000Y-93650000D01*
%TO.C,pull_INT1*%
X114565000Y-89927064D02*
X114565000Y-89472936D01*
X116035000Y-89927064D02*
X116035000Y-89472936D01*
%TO.C,R7*%
X138265000Y-115022936D02*
X138265000Y-115477064D01*
X139735000Y-115022936D02*
X139735000Y-115477064D01*
%TO.C,SW5*%
X193125000Y-74300000D02*
X195425000Y-74300000D01*
X193125000Y-75500000D02*
X193125000Y-74300000D01*
X193125000Y-77300000D02*
X193125000Y-78000000D01*
X193125000Y-79800000D02*
X193125000Y-80500000D01*
X193125000Y-83500000D02*
X193125000Y-82300000D01*
X195425000Y-83500000D02*
X193125000Y-83500000D01*
%TO.C,pull_SCL2*%
X107542936Y-85220000D02*
X107997064Y-85220000D01*
X107542936Y-86690000D02*
X107997064Y-86690000D01*
%TO.C,R15*%
X118515000Y-115072936D02*
X118515000Y-115527064D01*
X119985000Y-115072936D02*
X119985000Y-115527064D01*
%TO.C,R11*%
X106415000Y-98789564D02*
X106415000Y-98335436D01*
X107885000Y-98789564D02*
X107885000Y-98335436D01*
%TO.C,R4*%
X134222936Y-120665000D02*
X134677064Y-120665000D01*
X134222936Y-122135000D02*
X134677064Y-122135000D01*
%TO.C,R18*%
X163522936Y-120765000D02*
X163977064Y-120765000D01*
X163522936Y-122235000D02*
X163977064Y-122235000D01*
%TO.C,R20*%
X148710436Y-120690000D02*
X149164564Y-120690000D01*
X148710436Y-122160000D02*
X149164564Y-122160000D01*
%TO.C,U1*%
X118290000Y-72290000D02*
X118865000Y-72290000D01*
X118290000Y-72865000D02*
X118290000Y-72290000D01*
X118290000Y-82510000D02*
X118290000Y-81935000D01*
X118865000Y-82510000D02*
X118290000Y-82510000D01*
X127935000Y-72290000D02*
X128510000Y-72290000D01*
X128510000Y-72290000D02*
X128510000Y-72865000D01*
X128510000Y-81935000D02*
X128510000Y-82510000D01*
X128510000Y-82510000D02*
X127935000Y-82510000D01*
X118860000Y-83150000D02*
X118390000Y-83490000D01*
X118390000Y-82810000D01*
X118860000Y-83150000D01*
G36*
X118860000Y-83150000D02*
G01*
X118390000Y-83490000D01*
X118390000Y-82810000D01*
X118860000Y-83150000D01*
G37*
%TO.C,J3*%
X51683500Y-85511000D02*
X61723500Y-85511000D01*
X51683500Y-87871000D02*
X51683500Y-85511000D01*
X51683500Y-95911000D02*
X51683500Y-88471000D01*
X52303500Y-85511000D02*
X52303500Y-95911000D01*
X53803500Y-85511000D02*
X53803500Y-95911000D01*
X58703500Y-85511000D02*
X58703500Y-95911000D01*
X61723500Y-85511000D02*
X61723500Y-95911000D01*
X61723500Y-95911000D02*
X51683500Y-95911000D01*
X51683500Y-88171000D02*
X51073500Y-88611000D01*
X51073500Y-87731000D01*
X51683500Y-88171000D01*
G36*
X51683500Y-88171000D02*
G01*
X51073500Y-88611000D01*
X51073500Y-87731000D01*
X51683500Y-88171000D01*
G37*
%TO.C,R16*%
X119885436Y-120615000D02*
X120339564Y-120615000D01*
X119885436Y-122085000D02*
X120339564Y-122085000D01*
%TO.C,Q2*%
X148577500Y-126090000D02*
X150097500Y-126090000D01*
X148577500Y-126140000D02*
X148577500Y-126090000D01*
X148577500Y-128040000D02*
X148577500Y-127260000D01*
X148577500Y-129210000D02*
X148577500Y-129160000D01*
X150097500Y-126090000D02*
X150097500Y-127090000D01*
X150097500Y-128210000D02*
X150097500Y-129210000D01*
X150097500Y-129210000D02*
X148577500Y-129210000D01*
X148277500Y-127600000D02*
X147797500Y-127600000D01*
X148037500Y-127270000D01*
X148277500Y-127600000D01*
G36*
X148277500Y-127600000D02*
G01*
X147797500Y-127600000D01*
X148037500Y-127270000D01*
X148277500Y-127600000D01*
G37*
%TO.C,C5*%
X132615000Y-78688748D02*
X132615000Y-79211252D01*
X134085000Y-78688748D02*
X134085000Y-79211252D01*
%TO.C,R12*%
X132477500Y-59237258D02*
X132477500Y-58762742D01*
X133522500Y-59237258D02*
X133522500Y-58762742D01*
%TO.C,R1*%
X127222936Y-120665000D02*
X127677064Y-120665000D01*
X127222936Y-122135000D02*
X127677064Y-122135000D01*
%TO.C,R5*%
X127115000Y-115035436D02*
X127115000Y-115489564D01*
X128585000Y-115035436D02*
X128585000Y-115489564D01*
%TO.C,R14*%
X156515000Y-82177064D02*
X156515000Y-81722936D01*
X157985000Y-82177064D02*
X157985000Y-81722936D01*
%TO.C,R6*%
X141472936Y-120665000D02*
X141927064Y-120665000D01*
X141472936Y-122135000D02*
X141927064Y-122135000D01*
%TO.C,Q3*%
X161802500Y-126390000D02*
X163322500Y-126390000D01*
X161802500Y-126440000D02*
X161802500Y-126390000D01*
X161802500Y-128340000D02*
X161802500Y-127560000D01*
X161802500Y-129510000D02*
X161802500Y-129460000D01*
X163322500Y-126390000D02*
X163322500Y-127390000D01*
X163322500Y-128510000D02*
X163322500Y-129510000D01*
X163322500Y-129510000D02*
X161802500Y-129510000D01*
X161502500Y-127900000D02*
X161022500Y-127900000D01*
X161262500Y-127570000D01*
X161502500Y-127900000D01*
G36*
X161502500Y-127900000D02*
G01*
X161022500Y-127900000D01*
X161262500Y-127570000D01*
X161502500Y-127900000D01*
G37*
%TO.C,J9*%
X142540000Y-131230000D02*
X152940000Y-131230000D01*
X142540000Y-134250000D02*
X152940000Y-134250000D01*
X142540000Y-139150000D02*
X152940000Y-139150000D01*
X142540000Y-140650000D02*
X152940000Y-140650000D01*
X142540000Y-141270000D02*
X142540000Y-131230000D01*
X144900000Y-141270000D02*
X142540000Y-141270000D01*
X152940000Y-131230000D02*
X152940000Y-141270000D01*
X152940000Y-141270000D02*
X145500000Y-141270000D01*
X145640000Y-141880000D02*
X144760000Y-141880000D01*
X145200000Y-141270000D01*
X145640000Y-141880000D01*
G36*
X145640000Y-141880000D02*
G01*
X144760000Y-141880000D01*
X145200000Y-141270000D01*
X145640000Y-141880000D01*
G37*
%TO.C,pull_SDA2*%
X111135000Y-89294564D02*
X111135000Y-88840436D01*
X112605000Y-89294564D02*
X112605000Y-88840436D01*
%TO.C,SW1*%
X160300000Y-81950000D02*
X160300000Y-81850000D01*
X160300000Y-83450000D02*
X164700000Y-83450000D01*
X161350000Y-80350000D02*
X160300000Y-80350000D01*
X164700000Y-80350000D02*
X163650000Y-80350000D01*
X164700000Y-81950000D02*
X164700000Y-81850000D01*
%TO.C,D6*%
X63006000Y-62771000D02*
X68446000Y-62771000D01*
X63006000Y-62891000D02*
X68446000Y-62891000D01*
X63006000Y-63011000D02*
X68446000Y-63011000D01*
X65726000Y-53786000D02*
X65726000Y-54696000D01*
X65726000Y-65346000D02*
X65726000Y-64436000D01*
X63006000Y-64436000D02*
X68446000Y-64436000D01*
X68446000Y-54696000D01*
X63006000Y-54696000D01*
X63006000Y-64436000D01*
%TO.C,Q5*%
X174752500Y-126390000D02*
X176272500Y-126390000D01*
X174752500Y-126440000D02*
X174752500Y-126390000D01*
X174752500Y-128340000D02*
X174752500Y-127560000D01*
X174752500Y-129510000D02*
X174752500Y-129460000D01*
X176272500Y-126390000D02*
X176272500Y-127390000D01*
X176272500Y-128510000D02*
X176272500Y-129510000D01*
X176272500Y-129510000D02*
X174752500Y-129510000D01*
X174452500Y-127900000D02*
X173972500Y-127900000D01*
X174212500Y-127570000D01*
X174452500Y-127900000D01*
G36*
X174452500Y-127900000D02*
G01*
X173972500Y-127900000D01*
X174212500Y-127570000D01*
X174452500Y-127900000D01*
G37*
%TO.C,SW3*%
X193125000Y-43950000D02*
X195425000Y-43950000D01*
X193125000Y-45150000D02*
X193125000Y-43950000D01*
X193125000Y-46950000D02*
X193125000Y-47650000D01*
X193125000Y-49450000D02*
X193125000Y-50150000D01*
X193125000Y-53150000D02*
X193125000Y-51950000D01*
X195425000Y-53150000D02*
X193125000Y-53150000D01*
%TO.C,J5*%
X101740000Y-47135331D02*
X101740000Y-43035331D01*
X103750000Y-47135331D02*
X101740000Y-47135331D01*
X103750000Y-56275331D02*
X103750000Y-47135331D01*
X104560000Y-56969669D02*
X104810000Y-56536656D01*
X104810000Y-56536656D02*
X105060000Y-56969669D01*
X105060000Y-56969669D02*
X104560000Y-56969669D01*
X116950000Y-47135331D02*
X116950000Y-56275331D01*
X116950000Y-56275331D02*
X103750000Y-56275331D01*
X118960000Y-43035331D02*
X118960000Y-47135331D01*
X118960000Y-47135331D02*
X116950000Y-47135331D01*
%TO.C,D8*%
X96431000Y-54921000D02*
X96431000Y-55831000D01*
X96431000Y-66481000D02*
X96431000Y-65571000D01*
X99151000Y-57256000D02*
X93711000Y-57256000D01*
X99151000Y-57376000D02*
X93711000Y-57376000D01*
X99151000Y-57496000D02*
X93711000Y-57496000D01*
X99151000Y-55831000D02*
X93711000Y-55831000D01*
X93711000Y-65571000D01*
X99151000Y-65571000D01*
X99151000Y-55831000D01*
%TO.C,D4*%
X68220000Y-126700000D02*
X69130000Y-126700000D01*
X77205000Y-129420000D02*
X77205000Y-123980000D01*
X77325000Y-129420000D02*
X77325000Y-123980000D01*
X77445000Y-129420000D02*
X77445000Y-123980000D01*
X79780000Y-126700000D02*
X78870000Y-126700000D01*
X78870000Y-129420000D02*
X69130000Y-129420000D01*
X69130000Y-123980000D01*
X78870000Y-123980000D01*
X78870000Y-129420000D01*
%TO.C,D1*%
X68120000Y-135000000D02*
X69030000Y-135000000D01*
X77105000Y-137720000D02*
X77105000Y-132280000D01*
X77225000Y-137720000D02*
X77225000Y-132280000D01*
X77345000Y-137720000D02*
X77345000Y-132280000D01*
X79680000Y-135000000D02*
X78770000Y-135000000D01*
X78770000Y-137720000D02*
X69030000Y-137720000D01*
X69030000Y-132280000D01*
X78770000Y-132280000D01*
X78770000Y-137720000D01*
%TO.C,C7*%
X135138748Y-68965000D02*
X135661252Y-68965000D01*
X135138748Y-70435000D02*
X135661252Y-70435000D01*
%TO.C,Q7*%
X180962500Y-105705000D02*
X181962500Y-105705000D01*
X180962500Y-107225000D02*
X180962500Y-105705000D01*
X181012500Y-107225000D02*
X180962500Y-107225000D01*
X182912500Y-107225000D02*
X182132500Y-107225000D01*
X183082500Y-105705000D02*
X184082500Y-105705000D01*
X184082500Y-105705000D02*
X184082500Y-107225000D01*
X184082500Y-107225000D02*
X184032500Y-107225000D01*
X182472500Y-108005000D02*
X182142500Y-107765000D01*
X182472500Y-107525000D01*
X182472500Y-108005000D01*
G36*
X182472500Y-108005000D02*
G01*
X182142500Y-107765000D01*
X182472500Y-107525000D01*
X182472500Y-108005000D01*
G37*
%TO.C,C4*%
X88714748Y-72981000D02*
X89237252Y-72981000D01*
X88714748Y-74451000D02*
X89237252Y-74451000D01*
%TO.C,Q1*%
X135702500Y-126140000D02*
X137222500Y-126140000D01*
X135702500Y-126190000D02*
X135702500Y-126140000D01*
X135702500Y-128090000D02*
X135702500Y-127310000D01*
X135702500Y-129260000D02*
X135702500Y-129210000D01*
X137222500Y-126140000D02*
X137222500Y-127140000D01*
X137222500Y-128260000D02*
X137222500Y-129260000D01*
X137222500Y-129260000D02*
X135702500Y-129260000D01*
X135402500Y-127650000D02*
X134922500Y-127650000D01*
X135162500Y-127320000D01*
X135402500Y-127650000D01*
G36*
X135402500Y-127650000D02*
G01*
X134922500Y-127650000D01*
X135162500Y-127320000D01*
X135402500Y-127650000D01*
G37*
%TO.C,R10*%
X156172936Y-120715000D02*
X156627064Y-120715000D01*
X156172936Y-122185000D02*
X156627064Y-122185000D01*
%TO.C,R13*%
X134077500Y-58762742D02*
X134077500Y-59237258D01*
X135122500Y-58762742D02*
X135122500Y-59237258D01*
%TO.C,D12*%
X65926000Y-84836000D02*
X65926000Y-85746000D01*
X65926000Y-96396000D02*
X65926000Y-95486000D01*
X68646000Y-87171000D02*
X63206000Y-87171000D01*
X68646000Y-87291000D02*
X63206000Y-87291000D01*
X68646000Y-87411000D02*
X63206000Y-87411000D01*
X68646000Y-85746000D02*
X63206000Y-85746000D01*
X63206000Y-95486000D01*
X68646000Y-95486000D01*
X68646000Y-85746000D01*
%TD*%
M02*
