%TF.GenerationSoftware,KiCad,Pcbnew,9.0.7*%
%TF.CreationDate,2026-04-28T18:36:11+02:00*%
%TF.ProjectId,Grup_D_Llums,47727570-5f44-45f4-9c6c-756d732e6b69,28/04/2026*%
%TF.SameCoordinates,Original*%
%TF.FileFunction,Soldermask,Bot*%
%TF.FilePolarity,Negative*%
%FSLAX46Y46*%
G04 Gerber Fmt 4.6, Leading zero omitted, Abs format (unit mm)*
G04 Created by KiCad (PCBNEW 9.0.7) date 2026-04-28 18:36:11*
%MOMM*%
%LPD*%
G01*
G04 APERTURE LIST*
G04 Aperture macros list*
%AMRoundRect*
0 Rectangle with rounded corners*
0 $1 Rounding radius*
0 $2 $3 $4 $5 $6 $7 $8 $9 X,Y pos of 4 corners*
0 Add a 4 corners polygon primitive as box body*
4,1,4,$2,$3,$4,$5,$6,$7,$8,$9,$2,$3,0*
0 Add four circle primitives for the rounded corners*
1,1,$1+$1,$2,$3*
1,1,$1+$1,$4,$5*
1,1,$1+$1,$6,$7*
1,1,$1+$1,$8,$9*
0 Add four rect primitives between the rounded corners*
20,1,$1+$1,$2,$3,$4,$5,0*
20,1,$1+$1,$4,$5,$6,$7,0*
20,1,$1+$1,$6,$7,$8,$9,0*
20,1,$1+$1,$8,$9,$2,$3,0*%
G04 Aperture macros list end*
%ADD10RoundRect,0.250000X1.050000X-1.050000X1.050000X1.050000X-1.050000X1.050000X-1.050000X-1.050000X0*%
%ADD11C,2.600000*%
%ADD12R,1.700000X1.700000*%
%ADD13C,1.700000*%
%ADD14RoundRect,0.250000X-1.050000X-1.050000X1.050000X-1.050000X1.050000X1.050000X-1.050000X1.050000X0*%
%ADD15C,0.900000*%
%ADD16RoundRect,0.250000X0.750000X-0.750000X0.750000X0.750000X-0.750000X0.750000X-0.750000X-0.750000X0*%
%ADD17C,2.000000*%
%ADD18RoundRect,0.250000X1.050000X1.050000X-1.050000X1.050000X-1.050000X-1.050000X1.050000X-1.050000X0*%
%ADD19C,1.500000*%
%ADD20RoundRect,0.250000X1.350000X-1.350000X1.350000X1.350000X-1.350000X1.350000X-1.350000X-1.350000X0*%
%ADD21C,3.200000*%
%ADD22RoundRect,0.250000X1.350000X1.350000X-1.350000X1.350000X-1.350000X-1.350000X1.350000X-1.350000X0*%
%ADD23C,2.100000*%
%ADD24C,1.400000*%
%ADD25R,1.600000X1.600000*%
%ADD26C,1.600000*%
%ADD27RoundRect,0.250000X-1.350000X1.350000X-1.350000X-1.350000X1.350000X-1.350000X1.350000X1.350000X0*%
%ADD28R,1.800000X1.800000*%
%ADD29C,1.800000*%
%ADD30RoundRect,0.250000X-0.550000X-0.550000X0.550000X-0.550000X0.550000X0.550000X-0.550000X0.550000X0*%
%ADD31RoundRect,0.250000X-1.050000X1.050000X-1.050000X-1.050000X1.050000X-1.050000X1.050000X1.050000X0*%
G04 APERTURE END LIST*
D10*
%TO.C,J12*%
X191172500Y-123445000D03*
D11*
X191172500Y-118365000D03*
%TD*%
D12*
%TO.C,J4*%
X152290000Y-73400000D03*
D13*
X152290000Y-75940000D03*
X149750000Y-73400000D03*
X149750000Y-75940000D03*
X147210000Y-73400000D03*
X147210000Y-75940000D03*
%TD*%
D14*
%TO.C,J7*%
X119455000Y-136572500D03*
D11*
X124535000Y-136572500D03*
%TD*%
%TO.C,L1*%
X87850000Y-126850000D03*
X92850000Y-126850000D03*
%TD*%
D15*
%TO.C,SW2*%
X195025000Y-62050000D03*
X195025000Y-55250000D03*
%TD*%
D16*
%TO.C,C9*%
X79050000Y-111300000D03*
D17*
X79050000Y-106300000D03*
%TD*%
D18*
%TO.C,J6*%
X83626000Y-49716000D03*
D11*
X78546000Y-49716000D03*
%TD*%
D15*
%TO.C,SW6*%
X195000000Y-72150000D03*
X195000000Y-65350000D03*
%TD*%
D19*
%TO.C,Y2*%
X123840000Y-61900000D03*
X118960000Y-61900000D03*
%TD*%
D10*
%TO.C,J11*%
X191222500Y-110595000D03*
D11*
X191222500Y-105515000D03*
%TD*%
D20*
%TO.C,D5*%
X71976000Y-98286000D03*
D21*
X71976000Y-83046000D03*
%TD*%
D17*
%TO.C,SW7*%
X145300000Y-97650000D03*
X138800000Y-97650000D03*
X145300000Y-93150000D03*
X138800000Y-93150000D03*
%TD*%
D14*
%TO.C,J10*%
X158420000Y-136600000D03*
D11*
X163500000Y-136600000D03*
%TD*%
D22*
%TO.C,D3*%
X81520000Y-118300000D03*
D21*
X66280000Y-118300000D03*
%TD*%
D14*
%TO.C,J13*%
X171305000Y-136622500D03*
D11*
X176385000Y-136622500D03*
%TD*%
D14*
%TO.C,J8*%
X132305000Y-136550000D03*
D11*
X137385000Y-136550000D03*
%TD*%
D20*
%TO.C,D7*%
X96831000Y-96871000D03*
D21*
X96831000Y-81631000D03*
%TD*%
D20*
%TO.C,D11*%
X90076000Y-96786000D03*
D21*
X90076000Y-81546000D03*
%TD*%
D23*
%TO.C,REF\u002A\u002A*%
X50200000Y-46100000D03*
%TD*%
D14*
%TO.C,J2*%
X55070000Y-118300000D03*
D11*
X60150000Y-118300000D03*
%TD*%
D23*
%TO.C,REF\u002A\u002A*%
X187400000Y-142700000D03*
%TD*%
%TO.C,REF\u002A\u002A*%
X187050000Y-45700000D03*
%TD*%
D24*
%TO.C,REF\u002A\u002A*%
X108700000Y-81180000D03*
X106700000Y-81180000D03*
%TD*%
D25*
%TO.C,J1*%
X142510000Y-55115331D03*
D26*
X145280000Y-55115331D03*
X148050000Y-55115331D03*
X150820000Y-55115331D03*
X153590000Y-55115331D03*
X143895000Y-52275331D03*
X146665000Y-52275331D03*
X149435000Y-52275331D03*
X152205000Y-52275331D03*
%TD*%
D27*
%TO.C,D9*%
X72381000Y-51961000D03*
D21*
X72381000Y-67201000D03*
%TD*%
D24*
%TO.C,REF\u002A\u002A*%
X112020000Y-84940000D03*
X114020000Y-84940000D03*
%TD*%
D20*
%TO.C,D10*%
X90131000Y-68421000D03*
D21*
X90131000Y-53181000D03*
%TD*%
D28*
%TO.C,U3*%
X85351000Y-83791000D03*
D29*
X80271000Y-82521000D03*
X85351000Y-81251000D03*
X80271000Y-79981000D03*
X85351000Y-78711000D03*
X80271000Y-77441000D03*
X85351000Y-76171000D03*
X80271000Y-74901000D03*
X85351000Y-73631000D03*
X80271000Y-72361000D03*
X85351000Y-71091000D03*
X80271000Y-69821000D03*
X85351000Y-68551000D03*
X80271000Y-67281000D03*
X85351000Y-66011000D03*
%TD*%
D10*
%TO.C,J14*%
X191195000Y-137160000D03*
D11*
X191195000Y-132080000D03*
%TD*%
D30*
%TO.C,C1*%
X102550000Y-117950000D03*
D26*
X106050000Y-117950000D03*
%TD*%
D15*
%TO.C,SW4*%
X195025000Y-92450000D03*
X195025000Y-85650000D03*
%TD*%
%TO.C,SW5*%
X195025000Y-82300000D03*
X195025000Y-75500000D03*
%TD*%
D23*
%TO.C,REF\u002A\u002A*%
X50400000Y-141100000D03*
%TD*%
D31*
%TO.C,J3*%
X56403500Y-88171000D03*
D11*
X56403500Y-93251000D03*
%TD*%
D14*
%TO.C,J9*%
X145200000Y-136550000D03*
D11*
X150280000Y-136550000D03*
%TD*%
D20*
%TO.C,D6*%
X65726000Y-67186000D03*
D21*
X65726000Y-51946000D03*
%TD*%
D15*
%TO.C,SW3*%
X195025000Y-51950000D03*
X195025000Y-45150000D03*
%TD*%
D25*
%TO.C,J5*%
X104810000Y-55215331D03*
D26*
X107580000Y-55215331D03*
X110350000Y-55215331D03*
X113120000Y-55215331D03*
X115890000Y-55215331D03*
X106195000Y-52375331D03*
X108965000Y-52375331D03*
X111735000Y-52375331D03*
X114505000Y-52375331D03*
%TD*%
D27*
%TO.C,D8*%
X96431000Y-53081000D03*
D21*
X96431000Y-68321000D03*
%TD*%
D22*
%TO.C,D4*%
X81620000Y-126700000D03*
D21*
X66380000Y-126700000D03*
%TD*%
D22*
%TO.C,D1*%
X81520000Y-135000000D03*
D21*
X66280000Y-135000000D03*
%TD*%
D27*
%TO.C,D12*%
X65926000Y-82996000D03*
D21*
X65926000Y-98236000D03*
%TD*%
M02*
