M48
; DRILL file {KiCad 9.0.7} date 2026-04-28T18:36:34+0200
; FORMAT={-:-/ absolute / metric / decimal}
; #@! TF.CreationDate,2026-04-28T18:36:34+02:00
; #@! TF.GenerationSoftware,Kicad,Pcbnew,9.0.7
; #@! TF.FileFunction,Plated,1,2,PTH
FMAT,2
METRIC
; #@! TA.AperFunction,Plated,PTH,ViaDrill
T1C0.300
; #@! TA.AperFunction,Plated,PTH,ComponentDrill
T2C0.700
; #@! TA.AperFunction,Plated,PTH,ComponentDrill
T3C0.800
; #@! TA.AperFunction,Plated,PTH,ComponentDrill
T4C1.000
; #@! TA.AperFunction,Plated,PTH,ComponentDrill
T5C1.100
; #@! TA.AperFunction,Plated,PTH,ComponentDrill
T6C1.300
; #@! TA.AperFunction,Plated,PTH,ComponentDrill
T7C1.600
%
G90
G05
T1
X85.92Y-112.58
X85.97Y-107.76
X85.98Y-106.37
X86.04Y-109.22
X86.04Y-110.98
X86.95Y-112.59
X87.0Y-107.77
X87.01Y-106.38
X87.07Y-109.23
X87.07Y-110.99
X88.01Y-112.59
X88.06Y-107.77
X88.07Y-106.38
X88.13Y-109.23
X88.13Y-110.99
X89.08Y-112.59
X89.13Y-107.77
X89.14Y-106.38
X89.2Y-109.23
X89.2Y-110.99
X90.09Y-112.58
X90.14Y-107.76
X90.15Y-106.37
X90.21Y-109.22
X90.21Y-110.98
X91.1Y-73.3
X91.1Y-74.2
X91.16Y-112.58
X91.21Y-107.76
X91.22Y-106.37
X91.28Y-109.22
X91.28Y-110.98
X92.15Y-112.59
X92.2Y-107.77
X92.21Y-106.38
X92.27Y-109.23
X92.27Y-110.99
X93.19Y-112.59
X93.24Y-107.77
X93.25Y-106.38
X93.31Y-109.23
X93.31Y-110.99
X94.19Y-112.6
X94.24Y-107.78
X94.25Y-106.39
X94.31Y-109.24
X94.31Y-111.0
X98.314Y-110.675
X99.064Y-110.675
X99.61Y-127.37
X99.62Y-126.59
X102.416Y-104.415
X103.166Y-104.415
X104.55Y-91.08
X105.15Y-91.08
X106.81Y-96.77
X107.13Y-89.77
X107.13Y-90.52
X107.56Y-96.77
X112.25Y-79.5
X112.25Y-80.25
X114.63Y-68.01
X114.65Y-59.35
X114.65Y-60.3
X114.65Y-61.25
X114.65Y-62.25
X114.65Y-63.2
X114.65Y-64.15
X114.65Y-65.15
X114.65Y-66.1
X114.65Y-67.05
X114.66Y-69.06
X114.75Y-58.5
X115.25Y-69.83
X115.6Y-58.15
X116.25Y-69.83
X116.55Y-58.15
X116.61Y-77.24
X117.21Y-69.83
X117.5Y-58.15
X118.16Y-69.83
X118.5Y-58.15
X118.9Y-77.4
X119.11Y-69.83
X119.45Y-58.15
X120.11Y-69.83
X120.4Y-58.15
X121.25Y-128.0
X121.25Y-128.9
X121.4Y-58.15
X122.35Y-58.15
X122.35Y-120.9
X122.35Y-121.8
X122.75Y-70.0
X123.3Y-58.15
X123.37Y-84.19
X123.41Y-81.95
X123.62Y-70.01
X124.35Y-58.15
X124.36Y-88.6
X124.57Y-70.01
X125.14Y-88.61
X125.3Y-58.15
X125.52Y-70.01
X126.25Y-58.15
X126.4Y-69.72
X126.48Y-88.64
X127.06Y-69.07
X127.25Y-58.41
X127.26Y-88.65
X127.71Y-68.19
X127.75Y-59.35
X127.75Y-60.3
X127.75Y-61.25
X127.75Y-62.25
X127.75Y-63.2
X127.75Y-64.15
X127.75Y-65.15
X127.75Y-66.1
X127.76Y-67.14
X127.92Y-78.18
X129.7Y-121.0
X129.7Y-121.9
X130.19Y-78.17
X133.15Y-68.19
X133.17Y-65.3
X133.55Y-53.92
X134.15Y-128.15
X134.15Y-129.05
X134.3Y-53.92
X134.6Y-79.5
X134.6Y-80.4
X136.65Y-121.0
X136.65Y-121.9
X137.32Y-69.33
X137.32Y-70.08
X143.9Y-121.0
X143.9Y-121.9
X147.05Y-128.15
X147.05Y-129.05
X151.2Y-121.0
X151.2Y-121.9
X156.45Y-73.6
X156.45Y-74.5
X158.55Y-121.05
X158.55Y-121.95
X159.5Y-82.38
X159.5Y-83.13
X160.25Y-128.45
X160.25Y-129.35
X165.48Y-82.4
X165.48Y-83.15
X165.9Y-121.1
X165.9Y-122.0
X173.25Y-128.45
X173.25Y-129.35
X173.4Y-121.1
X173.4Y-122.0
X183.022Y-108.765
X183.022Y-121.565
X183.123Y-135.315
X183.922Y-108.765
X183.922Y-121.565
X184.022Y-135.315
X190.4Y-50.6
X190.4Y-51.5
X190.4Y-70.85
X190.4Y-71.75
X190.4Y-91.0
X190.4Y-91.9
X190.45Y-60.7
X190.45Y-61.6
X190.45Y-81.0
X190.45Y-81.9
T2
X106.7Y-81.18
X108.7Y-81.18
X112.02Y-84.94
X114.02Y-84.94
T3
X102.55Y-117.95
X106.05Y-117.95
X118.96Y-61.9
X123.84Y-61.9
T4
X79.05Y-106.3
X79.05Y-111.3
X80.271Y-67.281
X80.271Y-69.821
X80.271Y-72.361
X80.271Y-74.901
X80.271Y-77.441
X80.271Y-79.981
X80.271Y-82.521
X85.351Y-66.011
X85.351Y-68.551
X85.351Y-71.091
X85.351Y-73.631
X85.351Y-76.171
X85.351Y-78.711
X85.351Y-81.251
X85.351Y-83.791
X104.81Y-55.215
X106.195Y-52.375
X107.58Y-55.215
X108.965Y-52.375
X110.35Y-55.215
X111.735Y-52.375
X113.12Y-55.215
X114.505Y-52.375
X115.89Y-55.215
X142.51Y-55.115
X143.895Y-52.275
X145.28Y-55.115
X146.665Y-52.275
X147.21Y-73.4
X147.21Y-75.94
X148.05Y-55.115
X149.435Y-52.275
X149.75Y-73.4
X149.75Y-75.94
X150.82Y-55.115
X152.205Y-52.275
X152.29Y-73.4
X152.29Y-75.94
X153.59Y-55.115
T5
X138.8Y-93.15
X138.8Y-97.65
X145.3Y-93.15
X145.3Y-97.65
T6
X55.07Y-118.3
X56.403Y-88.171
X56.403Y-93.251
X60.15Y-118.3
X78.546Y-49.716
X83.626Y-49.716
X87.85Y-126.85
X92.85Y-126.85
X119.455Y-136.572
X124.535Y-136.572
X132.305Y-136.55
X137.385Y-136.55
X145.2Y-136.55
X150.28Y-136.55
X158.42Y-136.6
X163.5Y-136.6
X171.305Y-136.623
X176.385Y-136.623
X191.172Y-118.365
X191.172Y-123.445
X191.195Y-132.08
X191.195Y-137.16
X191.222Y-105.515
X191.222Y-110.595
T7
X65.726Y-51.946
X65.726Y-67.186
X65.926Y-82.996
X65.926Y-98.236
X66.28Y-118.3
X66.28Y-135.0
X66.38Y-126.7
X71.976Y-83.046
X71.976Y-98.286
X72.381Y-51.961
X72.381Y-67.201
X81.52Y-118.3
X81.52Y-135.0
X81.62Y-126.7
X90.076Y-81.546
X90.076Y-96.786
X90.131Y-53.181
X90.131Y-68.421
X96.431Y-53.081
X96.431Y-68.321
X96.831Y-81.631
X96.831Y-96.871
M30
